<?xml version="1.0" standalone="no"?><!DOCTYPE svg PUBLIC "-//W3C//DTD SVG 1.1//EN" "http://www.w3.org/Graphics/SVG/1.1/DTD/svg11.dtd"><svg t="1572428949168" class="icon" viewBox="0 0 1024 1024" version="1.1" xmlns="http://www.w3.org/2000/svg" p-id="1176" xmlns:xlink="http://www.w3.org/1999/xlink" width="200" height="200"><defs><style type="text/css"></style></defs><path d="M31.6745197 393.31673125a497.1026963 497.1026963 0 1 1 361.64221155 599.00874905 493.99580445 493.99580445 0 0 1-361.64221155-599.00874905" fill="#E72D14" p-id="1177"></path><path d="M543.06891852 495.84416237l-22.9909997 27.96202666L486.52348682 512l19.26272948 30.44754015-22.99099971 27.96202667 34.79718874-8.69929719 19.88410785 30.44754015v-36.03994548l35.41856712-9.32067555-33.554432-13.04894578z m134.217728-75.80816119h-36.03994549L630.06189037 387.72432592l-11.18481067 34.79718875h-36.03994548l29.20478341 21.12686458-11.18481066 34.79718875 29.2047834-21.74824297 29.20478341 21.74824297-11.18481067-34.79718875z m-59.03094519-132.97497126l5.59240534 38.52545897 16.777216-32.31167526 36.03994548 5.59240534-26.09789156-25.47651319L667.34459259 241.07903052l-31.06891851 13.67032415-25.47651319-25.47651319 5.59240533 36.03994549-32.31167525 16.15583762z m-74.56540444-165.90802489l-22.99099971 27.96202667-34.17581036-13.67032415 19.88410785 31.06891853-23.61237808 27.34064829 35.41856711-8.69929719 19.26272948 30.44754015V179.56257185l36.66132385-8.69929718-33.554432-13.67032415zM290.78930015 280.84724622l-34.17581037-105.01294459-34.17581037 105.01294459h-109.98397156L201.31081482 345.47059675 167.13500445 449.86216297l89.47848533-62.13783705 88.85710697 62.13783705-34.17581038-104.39156622 89.47848533-62.13783705z" fill="#FFD700" p-id="1178"></path></svg>