<?xml version="1.0" standalone="no"?><!DOCTYPE svg PUBLIC "-//W3C//DTD SVG 1.1//EN" "http://www.w3.org/Graphics/SVG/1.1/DTD/svg11.dtd"><svg t="1570504135383" class="icon" viewBox="0 0 1024 1024" version="1.1" xmlns="http://www.w3.org/2000/svg" p-id="4755" xmlns:xlink="http://www.w3.org/1999/xlink" width="128" height="128"><defs><style type="text/css"></style></defs><path d="M511.805498 1024c-245.849237 0-446.187364-200.338126-446.187364-446.187364s200.338126-446.187364 446.187364-446.187364 446.187364 200.338126 446.187364 446.187364-200.338126 446.187364-446.187364 446.187364" fill="#74C4EE" p-id="4756"></path><path d="M511.805498 158.842702c-231.125054 0-418.969935 187.84488-418.969935 418.969934 0 231.125054 187.84488 418.969935 418.969935 418.969935s418.969935-187.84488 418.969935-418.969935c0-231.125054-187.84488-418.969935-418.969935-418.969934" fill="#FFFFFF" p-id="4757"></path><path d="M472.54101 675.973856c9.369935 6.246623 20.078431 10.708497 31.233116 12.939434V892.374728c-66.928105-4.015686-128.055773-30.786928-174.905447-72.728541l143.672331-143.672331z" fill="#0D568D" p-id="4758"></path><path d="M568.917481 675.973856L712.589812 819.646187c-46.849673 41.941612-107.977342 68.712854-174.905447 72.728541V688.91329c11.600871-2.230937 22.309368-6.69281 31.233116-12.939434M605.951032 620.646623h203.461438c-4.015686 66.928105-30.786928 128.055773-72.728541 174.905447l-143.672331-143.672331c6.246623-9.369935 11.154684-20.078431 12.939434-31.233116" fill="#1B7EAD" p-id="4759"></path><path d="M435.507459 620.646623c2.230937 11.154684 6.69281 21.863181 12.939433 31.233116l-143.672331 143.672331c-41.941612-46.849673-68.712854-107.977342-72.72854-174.905447h203.461438z" fill="#0D568D" p-id="4760"></path><path d="M713.035999 387.290632L568.917481 530.962963c-9.369935-6.246623-20.078431-10.708497-31.233116-12.939434v-203.461437c66.928105 4.015686 128.055773 30.786928 175.351634 72.72854" fill="#74C4EE" p-id="4761"></path><path d="M809.41247 586.736383h-203.461438c-2.230937-11.154684-6.69281-21.863181-12.939434-31.233115l143.672331-143.672331c42.3878 46.849673 69.159041 107.531155 72.728541 174.905446" fill="#4CA1D6" p-id="4762"></path><path d="M489.49613 508.653595" fill="#103D54" p-id="4763"></path><path d="M448.446892 555.057081c-6.246623 9.369935-10.708497 20.078431-12.939433 31.233115h-203.461438v-248.526362l216.400871 217.293247zM503.774126 314.562092v203.461437c-4.908061 0.892375-9.816122 2.230937-14.277996 4.015687-5.800436 2.230937-11.154684 4.908061-16.508933 8.47756L232.492208 290.021786v-290.021786l271.281918 314.562092z" fill="#024E7B" p-id="4764"></path><path d="M489.49613 508.653595" fill="#525252" p-id="4765"></path></svg>