<?xml version="1.0" standalone="no"?><!DOCTYPE svg PUBLIC "-//W3C//DTD SVG 1.1//EN" "http://www.w3.org/Graphics/SVG/1.1/DTD/svg11.dtd"><svg t="1568602396072" class="icon" viewBox="0 0 1024 1024" version="1.1" xmlns="http://www.w3.org/2000/svg" p-id="903" xmlns:xlink="http://www.w3.org/1999/xlink" width="128" height="128"><defs><style type="text/css"></style></defs><path d="M832 172.32C908.48 172.32 977.088 130.688 1024 99.2L1024 694.88C977.088 726.368 908.48 768 832 768 755.52 768 686.912 745.344 640 713.856 593.088 682.368 524.48 659.68 448 659.68 371.52 659.68 302.912 698.624 256 730.08L256 134.4C302.912 102.912 371.52 64 448 64 524.48 64 593.088 86.656 640 118.144 686.912 149.632 755.52 172.32 832 172.32ZM128 0C163.36 0 192 28.64 192 64L192 1024 64 1024 64 64C64 28.64 92.64 0 128 0Z" p-id="904" fill="#ffffff"></path></svg>