<?xml version="1.0" standalone="no"?><!DOCTYPE svg PUBLIC "-//W3C//DTD SVG 1.1//EN" "http://www.w3.org/Graphics/SVG/1.1/DTD/svg11.dtd"><svg t="1569828526009" class="icon" viewBox="0 0 1024 1024" version="1.1" xmlns="http://www.w3.org/2000/svg" p-id="6905" xmlns:xlink="http://www.w3.org/1999/xlink" width="128" height="128"><defs><style type="text/css"></style></defs><path d="M979.072 317.824c-25.472-60.288-61.952-114.432-108.544-160.896-46.464-46.464-100.608-83.072-160.896-108.544-62.464-26.368-128.768-39.808-197.12-39.808-68.352 0-134.656 13.44-197.12 39.808-60.288 25.472-114.432 62.08-160.896 108.544s-83.072 100.608-108.544 160.896c-26.368 62.464-39.808 128.768-39.808 197.12 0 68.352 13.44 134.656 39.808 197.12 25.472 60.288 61.952 114.432 108.544 160.896 46.464 46.464 100.608 83.072 160.896 108.544 62.464 26.368 128.768 39.808 197.12 39.808 68.352 0 134.656-13.44 197.12-39.808 60.288-25.472 114.432-61.952 160.896-108.544 46.464-46.464 83.072-100.608 108.544-160.896 26.368-62.464 39.808-128.768 39.808-197.12 0-68.352-13.44-134.656-39.808-197.12z m-44.928 375.168c-23.04 54.528-56.064 103.68-98.176 145.792-42.112 42.24-91.008 75.392-145.408 98.56-56.448 24.064-116.352 36.224-177.92 36.224-61.696 0-121.6-12.16-177.92-36.224-54.4-23.168-103.424-56.32-145.408-98.56S114.304 747.52 91.136 692.992c-23.936-56.576-35.968-116.48-35.968-178.176 0-252.288 205.312-457.6 457.6-457.6s457.6 205.312 457.6 457.6c-0.256 61.824-12.416 121.728-36.224 178.176z" p-id="6906"></path><path d="M536.832 505.088V193.664c0-13.44-10.88-24.32-24.32-24.32s-24.32 10.88-24.32 24.32v321.28c0 6.4 2.432 12.416 6.912 16.896l0.256 0.256 0.256 0.384c0.64 0.768 1.152 1.408 1.792 2.048l159.104 159.104c4.608 4.608 10.752 7.168 17.28 7.168s12.672-2.56 17.28-7.168c4.608-4.608 7.168-10.752 7.168-17.28s-2.56-12.672-7.168-17.28L536.832 505.088z" p-id="6907"></path></svg>