<?xml version="1.0" standalone="no"?><!DOCTYPE svg PUBLIC "-//W3C//DTD SVG 1.1//EN" "http://www.w3.org/Graphics/SVG/1.1/DTD/svg11.dtd"><svg t="1568612934734" class="icon" viewBox="0 0 1024 1024" version="1.1" xmlns="http://www.w3.org/2000/svg" p-id="787" xmlns:xlink="http://www.w3.org/1999/xlink" width="128" height="128"><defs><style type="text/css"></style></defs><path d="M511.877 60.832c-121.168 0-235.149 47.264-320.852 132.999-85.701 85.703-132.933 199.65-132.933 320.851 0 121.234 47.233 235.181 132.933 320.885 85.703 85.738 199.684 132.967 320.852 132.967 121.3 0 235.246-47.229 320.953-132.967 85.767-85.701 132.966-199.65 132.966-320.885 0-121.201-47.197-235.147-132.966-320.851-85.705-85.735-199.65-132.999-320.953-132.999M792.716 795.457c-74.94 75.005-174.748 116.32-280.839 116.32-106.026 0-205.702-41.316-280.774-116.32-75.007-75.007-116.319-174.682-116.319-280.774 0-106.092 41.313-205.767 116.32-280.773 75.073-75.008 174.748-116.321 280.774-116.321 106.090 0 205.9 41.314 280.839 116.321 75.008 75.006 116.322 174.679 116.322 280.773 0 106.093-41.314 205.767-116.322 280.774M721.654 573.712l-181.366-77.714v-293.308c0-15.644-12.701-28.412-28.411-28.412-15.644 0-28.313 12.768-28.313 28.412v311.993c0 11.333 6.753 21.66 17.214 26.071l198.546 85.104c3.643 1.537 7.42 2.306 11.13 2.306 10.998 0 21.561-6.484 26.107-17.18 6.148-14.441-0.505-31.052-14.909-37.27M228.262 486.337h-28.345c-15.643 0-28.378 12.702-28.378 28.345 0 15.644 12.735 28.345 28.378 28.345h28.345c15.643 0 28.412-12.702 28.412-28.345s-12.769-28.345-28.412-28.345M767.18 514.682c0 15.644 12.768 28.378 28.411 28.378h28.345c15.677 0 28.345-12.735 28.345-28.378s-12.668-28.378-28.345-28.378h-28.345c-15.644 0-28.411 12.733-28.411 28.378M511.877 769.986c-15.644 0-28.313 12.7-28.313 28.345v28.41c0 15.578 12.669 28.313 28.313 28.313 15.709 0 28.411-12.735 28.411-28.313v-28.41c0-15.645-12.701-28.345-28.411-28.345z" p-id="788" fill="#ffffff"></path></svg>