<?xml version="1.0" standalone="no"?><!DOCTYPE svg PUBLIC "-//W3C//DTD SVG 1.1//EN" "http://www.w3.org/Graphics/SVG/1.1/DTD/svg11.dtd"><svg t="1571632954280" class="icon" viewBox="0 0 1024 1024" version="1.1" xmlns="http://www.w3.org/2000/svg" p-id="1144" xmlns:xlink="http://www.w3.org/1999/xlink" width="200" height="200"><defs><style type="text/css"></style></defs><path d="M512 1024C229.23264 1024 0 794.76736 0 512S229.23264 0 512 0s512 229.23264 512 512-229.23264 512-512 512z m236.05248-676.1984V235.52H287.24224v112.2816h169.8816v73.35936C319.03744 427.3664 215.04 454.52288 215.04 487.1168c0 32.58368 103.9872 59.74016 242.09408 65.9456V788.48h121.0368V552.99072C715.73504 546.7136 819.2 519.59808 819.2 487.1168s-103.46496-59.60704-241.02912-65.8944v-73.41056h169.8816z m19.11808 132.66944c0 21.43232-80.40448 39.41376-188.99968 44.40064l-7.0144 0.29696H570.368l-6.58432 0.24576h-0.7168c-4.88448 0.16384-9.84064 0.3072-14.848 0.41984h-0.31744l-6.72768 0.14336h-1.90464l-5.31456 0.07168h-33.61792l-5.26336-0.07168h-1.82272l-6.27712-0.13312h-0.68608a1349.7344 1349.7344 0 0 1-21.99552-0.67584h-0.09216l-7.18848-0.3072c-109.13792-4.9152-190.0544-22.95808-190.0544-44.4928 0-21.53472 80.93696-39.5264 190.0544-44.4928v68.096c18.944 0.99328 39.09632 1.536 59.99616 1.536 21.22752 0 41.7792-0.55296 61.05088-1.57696v-67.85024c108.68736 4.97664 189.10208 22.95808 189.10208 44.3904z" fill="#479974" p-id="1145"></path></svg>