<?xml version="1.0" encoding="utf-8"?>
<!-- Generator: Adobe Illustrator 22.0.0, SVG Export Plug-In . SVG Version: 6.00 Build 0)  -->
<svg version="1.1" id="图层_1" xmlns="http://www.w3.org/2000/svg" xmlns:xlink="http://www.w3.org/1999/xlink" x="0px" y="0px"
	 width="100px" height="100px" viewBox="0 0 100 100" style="enable-background:new 0 0 100 100;" xml:space="preserve">
<style type="text/css">
	.st0{fill:#FFFFFF;}
</style>
<path class="st0" d="M25,75c0,2.5,1.7,4.2,4.2,4.2h4.2v14.6c0,3.3,2.9,6.2,6.2,6.2s6.2-2.9,6.2-6.2V79.2h8.3v14.6
	c0,3.3,2.9,6.2,6.2,6.2s6.2-2.9,6.2-6.2V79.2h4.2c2.5,0,4.2-1.7,4.2-4.2V33.3H25V75z M14.6,33.3c-3.3,0-6.2,2.9-6.2,6.2v29.2
	c0,3.3,2.9,6.2,6.2,6.2s6.2-2.9,6.2-6.2V39.6C20.8,36.2,17.9,33.3,14.6,33.3z M85.4,33.3c-3.3,0-6.2,2.9-6.2,6.2v29.2
	c0,3.3,2.9,6.2,6.2,6.2s6.2-2.9,6.2-6.2V39.6C91.7,36.2,88.8,33.3,85.4,33.3z M64.6,9.2L70,3.7c0.8-0.8,0.8-2.1,0-2.9
	c-0.8-0.8-2.1-0.8-2.9,0l-6.2,6.2C57.9,5,54.2,4.2,50,4.2S42.1,5,38.8,6.7l-5.8-6.3c-0.8-0.4-2.5-0.4-3.3,0c-0.4,0.8-0.4,2.5,0,3.3
	L35,9.2c-5.8,4.6-10,11.7-10,20h50C75,20.8,70.8,13.3,64.6,9.2z M41.7,20.8h-4.2v-4.2h4.2C41.7,16.7,41.7,20.8,41.7,20.8z
	 M62.5,20.8h-4.2v-4.2h4.2C62.5,16.7,62.5,20.8,62.5,20.8z"/>
</svg>
