<?xml version="1.0" standalone="no"?><!DOCTYPE svg PUBLIC "-//W3C//DTD SVG 1.1//EN" "http://www.w3.org/Graphics/SVG/1.1/DTD/svg11.dtd"><svg t="1569827739867" class="icon" viewBox="0 0 1024 1024" version="1.1" xmlns="http://www.w3.org/2000/svg" p-id="5733" xmlns:xlink="http://www.w3.org/1999/xlink" width="128" height="128"><defs><style type="text/css"></style></defs><path d="M507.93931 85.097931a432.375172 432.375172 0 1 0 432.551724 432.375172 432.375172 432.375172 0 0 0-432.551724-432.375172z m0 834.736552a402.361379 402.361379 0 1 1 402.537931-402.36138 402.361379 402.361379 0 0 1-402.537931 402.36138z" fill="#7C848B" p-id="5734"></path><path d="M529.655172 732.689655h-35.310344v-47.668965q-95.691034-7.944828-122.350345-92.513104l55.260689-12.888276a70.62069 70.62069 0 0 0 67.089656 58.438621v-101.693793q-68.148966-15.713103-88.275862-39.724138a85.451034 85.451034 0 0 1-20.656552-57.555862q0-86.686897 109.285517-100.104828v-37.075862h35.310345v37.075862q79.977931 10.24 100.987586 78.918621l-52.965517 11.122759A55.26069 55.26069 0 0 0 529.655172 386.471724V476.689655a629.406897 629.406897 0 0 1 67.972414 22.068966 74.151724 74.151724 0 0 1 31.426207 30.013793 96.750345 96.750345 0 0 1 13.947586 52.965517 94.984828 94.984828 0 0 1-29.131034 70.62069A133.826207 133.826207 0 0 1 529.655172 685.02069v47.668965z m-35.310344-346.217931a63.205517 63.205517 0 0 0-37.428966 11.122759 37.428966 37.428966 0 0 0-15.006896 32.308965q0 35.310345 52.965517 42.902069z m35.310344 251.586207a61.44 61.44 0 0 0 40.430345-14.124138 45.373793 45.373793 0 0 0 16.242759-36.193103q0-37.605517-56.849655-48.022069z" fill="#7D858C" p-id="5735"></path></svg>