<?xml version="1.0" standalone="no"?>
<!DOCTYPE svg PUBLIC "-//W3C//DTD SVG 1.1//EN" "http://www.w3.org/Graphics/SVG/1.1/DTD/svg11.dtd">
<svg t="1572422327062" class="icon" viewBox="0 0 1024 1024" version="1.1" xmlns="http://www.w3.org/2000/svg" p-id="2210" xmlns:xlink="http://www.w3.org/1999/xlink" width="200" height="200">
  <defs>
    <style type="text/css"></style>
  </defs>
  <path d="M771.072 102.4H252.928a48.128 48.128 0 0 0-48.128 48.128v722.944a48.128 48.128 0 0 0 48.128 48.128h518.144a48.128 48.128 0 0 0 48.128-48.128V150.528a48.128 48.128 0 0 0-48.128-48.128zM768 153.6v460.8H256V153.6zM256 870.4v-204.8h512v204.8z" p-id="2211"></path>
  <path d="M512 768m-51.2 0a51.2 51.2 0 1 0 102.4 0 51.2 51.2 0 1 0-102.4 0Z"  p-id="2212"></path>
  <path d="M494.08 501.248a26.112 26.112 0 0 0 35.84 0l73.728-73.728a25.6 25.6 0 0 0 0-35.84 25.6 25.6 0 0 0-36.352 0l-29.696 29.184V297.472a25.6 25.6 0 1 0-51.2 0v123.392l-29.696-29.184a25.6 25.6 0 0 0-36.352 0 25.6 25.6 0 0 0 0 35.84z"  p-id="2213"></path>
</svg>