<?xml version="1.0" encoding="utf-8"?>
<svg xmlns="http://www.w3.org/2000/svg" xmlns:xlink="http://www.w3.org/1999/xlink" id="icon-CHN" viewBox="0 0 1024 1024" width="100%" height="100%">
<path d="M0 160h1024v704H0z" fill="#F1361D"></path>
<path d="M579.84 418.56l-27.52 32.64 1.28-42.88-39.68-16 40.96-12.16 3.2-42.88 24.32 35.84 41.6-10.24-26.24 33.92 22.4 36.48-40.32-14.72zM473.6 296.96l-42.24 6.4 29.44-31.36-19.2-38.4 39.04 17.92 30.72-30.08-5.12 42.88 38.4 19.84-42.24 8.32-7.04 42.24-21.76-37.76z m17.28 391.68l-26.24 33.92v-42.88l-40.32-14.72 40.96-13.44 1.92-42.88 25.6 34.56 41.6-11.52-26.24 33.92 23.68 35.84-40.96-12.8zM569.6 568.96l-39.04 17.92 19.2-38.4-29.44-31.36 42.24 6.4 21.12-37.76 7.04 42.24 42.24 8.32L595.2 556.8l5.12 42.88-30.72-30.72z m-296.32-30.72L166.4 615.04l39.68-125.44-106.24-78.72 131.84-1.28 41.6-124.8L315.52 409.6l131.84 1.28-106.24 78.08L380.8 614.4 273.28 538.24z" fill="#FFDC42">
</path>
</svg>