<?xml version="1.0" standalone="no"?><!DOCTYPE svg PUBLIC "-//W3C//DTD SVG 1.1//EN" "http://www.w3.org/Graphics/SVG/1.1/DTD/svg11.dtd"><svg t="1572428940082" class="icon" viewBox="0 0 1024 1024" version="1.1" xmlns="http://www.w3.org/2000/svg" p-id="1061" xmlns:xlink="http://www.w3.org/1999/xlink" width="200" height="200"><defs><style type="text/css"></style></defs><path d="M1013.51448272 292.83984877c-27.40278613-65.49328023-66.6117613-124.39994975-116.6389339-174.85587342-49.9526072-50.51806151-108.18197428-90.22413938-172.99173831-117.9376147-67.11507778-28.70768071-138.38717686-43.24793458-211.89623808-43.24793457s-144.7811603 14.54025387-211.89002429 43.24793457c-64.80976403 27.71347532-123.03291733 67.41955318-172.99173832 117.9376147a548.29184645 548.29184645 0 0 0-116.63272011 174.85587342C-17.91147425 360.69436682-32.32745245 432.71211995-32.32745245 507.02897303c0 74.3168531 14.41597819 146.33460622 42.81296973 214.18912427a548.97536266 548.97536266 0 0 0 116.63272011 174.86208721c49.95882098 50.5242753 108.18197428 90.23035316 172.99173831 117.88169064 67.108864 28.70146693 138.38096308 43.31007242 211.8900243 43.31007242s144.7811603-14.60860549 211.8900243-43.31007242c64.82219159-27.65133748 123.03913111-67.35741535 173.00416588-117.88169064a548.14892942 548.14892942 0 0 0 116.63272011-174.86208721c28.39699152-67.85451805 42.8191835-139.87227117 42.8191835-214.18912427-0.00621378-74.3168531-14.43461954-146.33460622-42.83161107-214.18912426zM512 1053.65552545c-298.19947995 0-540.78559573-245.19590495-540.78559573-546.62655242S213.80052005-39.59757938 512-39.59757938s540.78559573 245.19590495 540.78559573 546.62655241-242.58611579 546.62655242-540.78559573 546.62655242z" fill="#E0E0E0" p-id="1062"></path><path d="M512-14.61816889c-283.96991525 0-514.25273932 230.90420243-514.25273932 515.74404741s230.28282405 515.74404741 514.25273932 515.7440474 514.19060148-230.90420243 514.19060148-515.7440474-230.22068622-515.74404741-514.19060148-515.74404741z m381.65059508 373.88336546l-25.29009967 16.71507815L822.01188276 306.94513778l25.28388589-16.777216 46.35482643 69.09727479z m-99.35840143 217.73098098l25.29009968 16.71507815-46.35482643 69.091061-25.29009967-16.77100221 46.35482642-69.03513694z m-48.10089964-219.84366745l25.23417562-16.71507815 46.41696427 69.09727477-25.2838859 16.71507817-46.36725399-69.09727479z m86.06711808 244.9473536l25.22796183 16.777216-46.34861264 69.02270939-25.28388589-16.7026506 46.4045367-69.09727479z m-39.76200192-393.58105979l46.34861265 69.09727479-25.27767211 16.777216-46.35482643-69.09727479 25.28388589-16.777216z m-37.91029438 25.10368617l101.1603987 150.74639264-25.29009967 16.777216-101.1603987-150.74639264 25.29009967-16.777216z m-37.91029437 25.165824l46.36104021 69.09727477-25.29009968 16.71507817-46.35482643-69.09727479 25.2838859-16.71507815zM338.20046981 274.57132468L237.10220895 425.2555795l-25.29009967-16.71507817 101.16039869-150.74639265 25.22796184 16.777216z m-37.90408059-25.165824L199.13599052 400.15189333l-25.22796184-16.71507816 101.09826087-150.74639265 25.29009967 16.71507816z m-53.43853985 420.30032972l-25.29009968 16.71507817-46.35482644-69.03513695 25.29009968-16.777216 46.35482644 69.09727478zM237.10220895 207.52459852l25.29009967 16.777216-101.1603987 150.74639265-25.29009967-16.777216L237.10220895 207.52459852z m1.30489457 585.71125191L137.24670483 642.48945778l25.29009967-16.777216 101.1603987 150.75260643-25.29009968 16.77100222z m37.96621843-25.165824l-46.41696426-69.09727478 25.29009968-16.70886439 46.35482642 69.09106101-25.22796184 16.71507816z m37.9040806-25.10368616L213.11700385 592.21994762l25.29009967-16.71507817 101.1603987 150.68425482-25.29009967 16.777216z m342.62803342-133.22352262c-32.49808877 42.50228053-83.64374243 69.90506667-141.18959331 69.90506667-98.36419603 0-178.01868933-79.90925843-178.01868933-178.5220058 0-0.74565405 0.06213783-1.42917025 0.06213784-2.11268647 7.33226477 20.94045108 20.50548622 39.64394003 38.7740103 51.8229561 43.06152107 28.63932909 101.53322572 19.07631597 133.40993613-22.24534566 25.47651318-38.02835627 77.11305577-48.34323722 115.2656877-22.92886187 30.14306475 20.00838352 43.12987269 66.67389915 31.69651067 104.08087703z m-22.92886187-117.37837415c-45.36062103-30.13685097-106.8770797-17.89569707-136.82751715 26.96782127-26.53285642 34.30629983-75.68388551 42.37800485-111.84810667 18.26852408-31.75243472-21.12686459-45.67131022-67.35741535-34.42436171-103.89446352 3.23116752-7.8915053 6.95943775-15.47232142 11.2469485-22.74244835l11.55763768-17.46073221c32.49808877-43.06152107 84.01035568-70.89927205 141.98495763-70.89927206 98.36419603 0 178.02490311 79.90925843 178.02490312 178.52200581 0 27.08588317-6.08950803 52.81716148-16.84556763 75.80816118-1.23654295-33.80298335-16.59080249-67.04672617-42.86889377-84.5695962z m59.2173587 235.31598885l46.34861264-69.09727478 25.23417563 16.777216-46.35482644 69.09727478-25.22796183-16.777216z m37.84194275 25.165824l46.41696427-69.09106099 25.29009968 16.70886437-46.41696427 69.09727479-25.29009968-16.71507817z m63.2563181 41.88090217l-25.2776721-16.777216 46.34861265-69.09727479 25.28388589 16.777216-46.35482644 69.09727479z m54.80557227-81.65533165l-25.29009967-16.77100222 46.35482643-69.09727478 25.29009967 16.777216-46.35482643 69.091061z" fill="#FFFFFF" p-id="1063"></path><path d="M656.90543597 609.74281765c-32.49808877 42.50228053-83.64374243 69.90506667-141.18337953 69.90506667-98.37040981 0-178.01868933-79.90925843-178.01868933-178.5220058 0-0.74565405 0.06213783-1.42917025 0.06213784-2.11268647 7.33226477 20.94045108 20.50548622 39.64394003 38.7740103 51.8229561 43.06152107 28.63932909 101.53322572 19.07631597 133.40993613-22.24534566 25.47651318-38.02835627 77.11305577-48.34323722 115.2656877-22.92886187 30.13685097 20.00838352 43.1236589 66.67389915 31.69029689 104.08087703z" fill="#1200FF" p-id="1064"></path><path d="M693.6910355 501.12587852c0 27.08588317-6.08950803 52.81716148-16.83935385 75.80816118-1.24275675-33.80298335-16.59080249-67.04672617-42.87510755-84.5695962-45.36062103-30.13685097-106.8770797-17.89569707-136.82751715 26.96782127-26.53285642 34.30629983-75.68388551 42.37800485-111.84810667 18.26852408-31.75243472-21.12686459-45.67131022-67.35741535-34.42436171-103.89446352 3.23116752-7.8915053 6.95943775-15.47232142 11.2469485-22.74244835l11.55763768-17.46073221c32.49808877-43.06152107 84.01035568-70.89927205 141.98495763-70.89927206 98.36419603 0 178.02490311 79.90925843 178.02490312 178.52200581z" fill="#FF0000" p-id="1065"></path><path d="M893.65059508 359.26519657l-25.29009967 16.71507815L822.01188276 306.94513778l25.28388589-16.777216 46.35482643 69.09727479z m-54.80557226-81.64911787l-25.28388589 16.777216-46.35482643-69.09727479 25.29009967-16.777216 46.34861265 69.09727479z m16.90149167 106.75280402l-25.29009967 16.777216-101.1603987-150.74639264 25.29009967-16.777216 101.1603987 150.74639264z m-92.70965286-56.48329387l-25.29009968 16.71507817-46.35482643-69.09727479 25.2838859-16.71507815 46.36104021 69.09727477z m54.80557227 81.64911787l-25.2838859 16.71507817-46.36104021-69.09727479 25.23417562-16.71507815 46.41075049 69.09727477z m-53.06571283 265.82566685l-46.35482644 69.09727478-25.22796183-16.777216 46.35482643-69.09727478 25.22796184 16.777216z m37.96621843 25.10368616l-46.41696427 69.09727479-25.29009968-16.71507817 46.41696427-69.09106099 25.29009968 16.70886437z m37.91029437 25.165824l-46.36104022 69.09727479-25.29009967-16.777216 46.36104022-69.09727479 25.29009967 16.777216z m54.79935848-81.64911786l-46.35482643 69.091061-25.29009967-16.77100222 46.36104021-69.09727478 25.28388589 16.777216z m-37.96621843-25.10368617l-46.34861264 69.03513695-25.29009968-16.71507816 46.41696427-69.09727479 25.22174805 16.777216z m-37.90408059-25.165824l-46.35482643 69.091061-25.29009967-16.77100221 46.35482642-69.03513694 25.29009968 16.71507815z m-572.72444396 75.9945747l-25.29009968 16.71507817-46.35482644-69.03513695 25.29009968-16.777216 46.35482644 69.09727478z m54.74343442 81.64911787l-25.22796184 16.71507816-46.41696426-69.09727478 25.29009968-16.70886439 46.35482642 69.09106101z m37.96621843-25.165824l-25.29009967 16.777216-101.1603987-150.74639265 25.29009967-16.71507817 101.1603987 150.68425482z m-75.87029902 50.27572394l-25.29009968 16.77100222L137.24670483 642.48945778l25.29009967-16.777216 101.1603987 150.75260643zM262.39230862 224.30181452L161.23190992 375.04820717l-25.29009967-16.777216L237.10220895 207.52459852l25.29009967 16.777216z m37.9040806 25.10368616L199.13599052 400.15189333l-25.22796184-16.71507816 101.09826087-150.74639265 25.29009967 16.71507816z m37.90408059 25.165824L237.10220895 425.2555795l-25.29009967-16.71507817 101.16039869-150.74639265 25.22796184 16.777216z" p-id="1066"></path></svg>