<?xml version="1.0" encoding="utf-8"?>
<!-- Generator: Adobe Illustrator 22.0.0, SVG Export Plug-In . SVG Version: 6.00 Build 0)  -->
<svg version="1.1" id="图层_1" xmlns="http://www.w3.org/2000/svg" xmlns:xlink="http://www.w3.org/1999/xlink" x="0px" y="0px"
	 viewBox="0 0 1024 1024" style="enable-background:new 0 0 1024 1024;" xml:space="preserve">
<style type="text/css">
	.st0{fill:#FFFFFF;}
	.st1{fill:#CC303C;}
	.st2{fill:#005C9E;}
	.st3{fill:#231815;}
</style>
<g>
	<path class="st0" d="M0,170.8h1024v682.4H0V170.8z"/>
	<path class="st1" d="M680.3,496.8c8.4,92.8-59.9,174.6-152.7,183c-92.8,8.4-174.6-59.9-183-152.7c-8.4-92.8,59.9-174.6,152.7-183
		C590.1,336.6,671.9,404.9,680.3,496.8z"/>
	<path class="st2" d="M369.1,425.1c-24.5,39.6-11.8,91.1,28.7,115.6c39.6,24.5,91.1,11,115.6-28.7c24.5-39.6,75.9-52.3,115.6-28.7
		c39.6,24.5,52.3,75.9,28.7,115.6c-48.1,79.3-151.8,104.6-231.1,56.5C346.3,608.2,321,505.3,369.1,425.1z"/>
	<path class="st3" d="M155.1,376.9L249.5,237l21.7,14.6l-94.3,139.9L155.1,376.9z M188.9,399.5l94.4-139.8l21.7,14.6l-94.4,139.8
		L188.9,399.5z M222.3,422.6l21.9,14.3l94.5-140l-21.9-15.2L222.3,422.6z M737.6,652.2l43.9-65l21.7,14.6l-43.9,65L737.6,652.2z
		 M687.1,728.4l43.8-65.1l21.7,14.6L708.8,743L687.1,728.4z M770.9,675.6l43.9-65l21.7,14.6l-43.9,65L770.9,675.6z M720.8,750.7
		l21.9,14.3l43.9-64.9l-21.9-14.3L720.8,750.7z M804.7,698.3l43.8-65.1l21.7,14.6l-43.8,65.1L804.7,698.3z M754,773.4l43.7-65.1
		l21.7,14.6l-43.7,65.1L754,773.4z M815.3,414.2l21.9-14.3l-94.5-140l-21.9,14.3L815.3,414.2z M754.1,251.2l21.7-14.6l43.9,65
		l-21.7,14.6L754.1,251.2z M805.1,327.1l21.7-14.7l43.9,65l-21.7,14.7L805.1,327.1z M686.8,296.8l21.7-14.6l43.8,65.1l-21.7,14.6
		L686.8,296.8z M737.3,371.9l21.7-14.6l43.8,65.1L781.2,437L737.3,371.9z M221.8,602.4l21.7-14.6l94.4,139.8l-21.7,14.6L221.8,602.4
		z M155.2,647.4l21.7-14.6l94.3,139.9l-21.7,14.6L155.2,647.4z M188.6,625.7l21.7-14.6l43.9,65.1l-21.7,14.6L188.6,625.7z M283,765
		l21.9-14.3l-43.9-64.9l-21.9,14.3L283,765z"/>
</g>
</svg>
