<?xml version="1.0" standalone="no"?><!DOCTYPE svg PUBLIC "-//W3C//DTD SVG 1.1//EN" "http://www.w3.org/Graphics/SVG/1.1/DTD/svg11.dtd"><svg t="1576490530682" class="icon" viewBox="0 0 1024 1024" version="1.1" xmlns="http://www.w3.org/2000/svg" p-id="1286" xmlns:xlink="http://www.w3.org/1999/xlink" width="200" height="200"><defs><style type="text/css"></style></defs><path d="M512 928C281.6 928 96 742.4 96 512S281.6 96 512 96s416 185.6 416 416S742.4 928 512 928zM544 288c0-19.2-12.8-32-32-32-19.2 0-32 12.8-32 32l0 288c0 19.2 12.8 32 32 32 19.2 0 32-12.8 32-32L544 288zM512 672c-19.2 0-32 12.8-32 32s12.8 32 32 32c19.2 0 32-12.8 32-32S531.2 672 512 672z" p-id="1287" fill="#cccccc"></path></svg>