<?xml version="1.0" standalone="no"?><!DOCTYPE svg PUBLIC "-//W3C//DTD SVG 1.1//EN" "http://www.w3.org/Graphics/SVG/1.1/DTD/svg11.dtd"><svg t="1569825984615" class="icon" viewBox="0 0 1024 1024" version="1.1" xmlns="http://www.w3.org/2000/svg" p-id="3389" width="128" height="128" xmlns:xlink="http://www.w3.org/1999/xlink"><defs><style type="text/css"></style></defs><path d="M281.103666 631.652154v300.304733c0 34.462954 27.921633 62.404048 62.404048 62.404049h4.868893c34.46417 0 62.404048-27.930148 62.404048-62.404049V677.015686l-98.974869-98.819181c-18.310345 10.848277-30.696039 30.648603-30.696038 53.450784l-0.006082 0.004865z m339.170733-19.370968l-101.098548 100.933129v252.324917c0 15.92151 12.942764 28.858193 28.909278 28.858193h72.194135c15.95435 0 28.909278-12.913573 28.909278-28.858193V641.096808c0-15.8984-12.913573-28.80954-28.909278-28.80954l-0.004865-0.006082zM42.778488 734.796536v200.634135c0 32.560643 26.400029 58.915668 58.916885 58.915669h4.989307c32.56186 0 58.916885-26.398812 58.916885-58.915669V678.746497c0-18.288451-8.481336-34.396056-21.49343-45.192033l-101.381948 101.256668 0.052301-0.014596zM942.212438 32.706601l-196.666529 4.371421c-20.853651 0.318673-30.9989 25.099792-10.462706 45.570305l64.22973 64.018093-308.614569 308.241162-163.851677-158.428146c-1.228474-4.719286-3.27066-9.21842-6.953649-12.942765l-30.526972-30.730095c-11.22655-11.314124-29.581898-11.410213-40.902103-0.189745L35.542655 462.734543V604.774115L265.527588 377.777657 468.4642 573.947931c11.472245 11.053834 29.765561 10.793543 40.882643-0.617886l5.407718-5.55854c5.542729-1.151846 10.871387-3.329043 15.087121-7.702897l341.797964-341.332117 66.695193 66.47504c20.550789 20.45835 45.14338 10.06254 45.454755-10.707185l4.665769-195.722671c0.261507-20.758778-25.407519-46.318336-46.259953-46.060479l0.017028-0.014595zM757.156813 475.515538V931.986079c0 34.46417 27.930148 62.404048 62.405265 62.404048h5.451505c34.465386 0 62.405264-27.928931 62.405264-62.404048V393.871884c0-13.6762-4.518595-26.209068-11.958769-36.502708l-118.288669 118.162174-0.014596-0.015812z" fill="" p-id="3390"></path></svg>