<?xml version="1.0" standalone="no"?><!DOCTYPE svg PUBLIC "-//W3C//DTD SVG 1.1//EN" "http://www.w3.org/Graphics/SVG/1.1/DTD/svg11.dtd"><svg t="1569826045125" class="icon" viewBox="0 0 1024 1024" version="1.1" xmlns="http://www.w3.org/2000/svg" p-id="4849" xmlns:xlink="http://www.w3.org/1999/xlink" width="128" height="128"><defs><style type="text/css"></style></defs><path d="M260.436008 609.529891v299.927677c0 34.590666 28.017722 62.597441 62.596225 62.597442h5.081747c34.58945 0 62.596225-28.017722 62.596225-62.597442V655.341026l-99.527074-99.428553c-18.326157 10.918823-30.733744 30.711851-30.733744 53.617418h-0.013379zM22.140021 371.696103v537.726192c0 34.590666 28.017722 62.597441 62.596225 62.597442h5.078098c34.58945 0 62.596225-28.017722 62.596226-62.597442V417.251812L53.034318 317.994759c-18.436841 10.918823-30.885783 30.733744-30.885783 53.695262l-0.008514 0.006082z m975.065379 8.335379c-0.318673-20.813512-24.857746-31.189861-45.350152-10.707185l-66.509098 66.440983-225.855558-233.178966c-4.186542-4.348312-9.552906-6.565646-15.073741-7.702897l-5.407719-5.558541c-11.05505-11.428457-29.361746-11.721588-40.816962-0.617886L395.695863 384.877264 70.190384 62.939225c-11.269121-11.183979-29.469997-11.053834-40.692898 0.006081v101.673863l349.137184 345.31067c11.332369 11.19006 29.606224 11.132894 40.846153-0.189745l30.468589-30.730095c3.673259-3.680557 5.676523-8.256319 6.950001-12.913573l162.990528-157.861345 193.273021 199.53459-64.108099 64.033904c-20.461999 20.45835-10.350806 45.269876 10.462706 45.571522l196.23109 4.371421c20.841488 0.318673 46.472808-25.281022 46.129808-46.077507l-4.663336-195.714157-0.009731 0.076628zM602.452908 457.770778L498.81227 561.30073v348.383072c0 34.420383 27.928931 62.366342 62.404049 62.366342h4.868892c34.46417 0 62.404048-27.930148 62.404048-62.366342V508.334039c0-20.832973-10.3131-39.151832-26.001078-50.538935l-0.035273-0.024326z m198.589516 247.508325h-4.990524c-32.560643 0-58.915668 26.402461-58.915668 58.969186V913.121097c0 32.56186 26.400029 58.916885 58.915668 58.916884h4.990524c32.560643 0 58.915668-26.400029 58.915668-58.916884V764.248289c0.001216-32.56186-26.37327-58.969186-58.915668-58.969186z" fill="" p-id="4850"></path></svg>