<svg xmlns="http://www.w3.org/2000/svg" xmlns:xlink="http://www.w3.org/1999/xlink" viewBox="0 0 100 79.09"><defs><style>.cls-1{fill:url(#未命名的渐变_2);}</style><linearGradient id="未命名的渐变_2" x1="50" y1="79.09" x2="50" gradientUnits="userSpaceOnUse"><stop offset="0" stop-color="#cd7d29"/><stop offset="1" stop-color="#faac49"/></linearGradient></defs><title>资源 1</title><g id="图层_2" data-name="图层 2"><g id="图层_1-2" data-name="图层 1"><path class="cls-1" d="M95.91,70.91H4.09a4.09,4.09,0,0,0,0,8.18H95.91a4.09,4.09,0,0,0,0-8.18Zm0-45.91H79.09A4.08,4.08,0,0,0,75,29.09V62.27a4.07,4.07,0,0,0,4.09,4.09H95.91A4.07,4.07,0,0,0,100,62.27V29.09A4.08,4.08,0,0,0,95.91,25ZM87.27,58.18c-2.72,0-5-.45-6.36-1.82s-2.27-3.63-2.27-6.81H85c0,1.36,0,2.72.45,3.18,0,.45.91.91,1.37.91.91,0,1.36-.46,1.82-1.37V50a4.89,4.89,0,0,0-.46-2.73c-.45-.45-.91-.45-1.82-.45H84.55V42.73h.9a3.4,3.4,0,0,0,2.28-.46c.45-.45.45-1.36.45-2.72,0-1.82-.45-2.73-1.82-2.73-.45,0-.91,0-1.36.91,0,.45-.45,1.82-.45,2.72H78.64c0-5,2.72-7.72,7.72-7.72,2.73,0,5,.45,6.37,1.82a7.23,7.23,0,0,1,1.82,5c0,1.36,0,2.27-.91,2.72a3.08,3.08,0,0,1-2.73,1.82c2.73.46,4.09,2.27,4.09,5.46.91,5.9-1.82,8.63-7.73,8.63ZM33.18,66.82H66.36a4.07,4.07,0,0,0,4.09-4.09V4.09A4.07,4.07,0,0,0,66.36,0H33.18a4.08,4.08,0,0,0-4.09,4.09V62.27c0,2.28,1.82,4.55,4.09,4.55Zm8.64-48.64a17.69,17.69,0,0,0,5.91-.91c.91-.45,1.82-2.72,2.27-5h5.91V45.45H47.27V23.64H41.82ZM4.09,66.82H20.91A4.08,4.08,0,0,0,25,62.73V20.91a4.08,4.08,0,0,0-4.09-4.09H4.09A4.08,4.08,0,0,0,0,20.91V62.27c0,2.28,1.82,4.55,4.09,4.55ZM7.73,42.27l4.54-5a5.8,5.8,0,0,0,1.82-4.54c0-2.28-.45-3.18-1.82-3.18s-1.82,1.36-1.82,3.63v1.37H4.55c0-3.19.45-5.46,1.81-6.82C7.27,25.91,9.55,25,12.73,25a10.26,10.26,0,0,1,6.82,2.27,9.79,9.79,0,0,1,1.36,5.46,11,11,0,0,1-3.18,8.18l-4.09,4.54-.91.91c-.46.46-.46,0-.46,0h8.18v7.28H4.09A19.86,19.86,0,0,1,7.73,42.27Z"/></g></g></svg>