<?xml version="1.0" encoding="utf-8"?>
<!-- Generator: Adobe Illustrator 22.1.0, SVG Export Plug-In . SVG Version: 6.00 Build 0)  -->
<svg version="1.0" id="图层_1" xmlns="http://www.w3.org/2000/svg" xmlns:xlink="http://www.w3.org/1999/xlink" x="0px" y="0px"
	 viewBox="0 0 101 101" style="enable-background:new 0 0 101 101;" xml:space="preserve">
<path d="M50.5,0.5c-27.6,0-50,22.4-50,50c0,27.6,22.4,50,50,50c27.6,0,50-22.4,50-50S78.1,0.5,50.5,0.5z M55.4,79.4
	c0,1.4-1.1,2.5-2.5,2.5h-7.5c-1.4,0-2.5-1.1-2.5-2.5v-7.5c0-1.4,1.1-2.5,2.5-2.5h7.5c1.4,0,2.5,1.1,2.5,2.5V79.4z M67.7,44.9
	c-1,1.4-3.3,3.3-6.1,5.5l-3.2,2.2c-1.5,1.2-2.9,2.6-3.4,4.2c-0.2,0.5-0.3,1.4-0.4,2.4c0,0.5-0.5,1.5-1.5,1.5c-2.5,0-7.2,0-8.1,0
	c-1.3,0-1.6-1-1.5-1.5c0.1-3.3,0.5-6.3,1.8-7.9c2.7-3.2,9-7.2,9-7.2c0.9-0.7,1.7-1.5,2.3-2.3c1.1-1.5,1.9-3.1,1.9-4.8
	c0-2-0.6-3.8-1.8-5.5c-1.2-1.7-3.3-2.5-6.4-2.5c-3.1,0-5.2,1-6.5,3.1c-0.9,1.5-1.5,2.9-1.8,4.4c-0.1,0.5-0.4,1.7-1.6,1.7
	c-2.4,0-6.8,0-7.9,0c-1.7,0-2.1-1.1-2-1.6c0.6-6.7,3.2-11.2,7.8-14.1c3.1-2,7-3,11.5-3c6,0,11,1.4,14.9,4.3c4,2.9,5.9,7.1,5.9,12.7
	C70.7,39.7,69.5,42.6,67.7,44.9z"/>
</svg>
