<?xml version="1.0" standalone="no"?>
<!DOCTYPE svg PUBLIC "-//W3C//DTD SVG 1.1//EN" "http://www.w3.org/Graphics/SVG/1.1/DTD/svg11.dtd"><svg t="1561030468199" class="icon" viewBox="0 0 1024 1024" version="1.1" xmlns="http://www.w3.org/2000/svg" p-id="5959" xmlns:xlink="http://www.w3.org/1999/xlink" width="200" height="200">
<defs>
<style type="text/css">
</style>
</defs>
<path d="M961.473195 916.343467c0 14.5408-2.935467 29.0816-8.669867 40.7552-5.802667 11.605333-11.605333 23.210667-20.206933 34.884266a128.273067 128.273067 0 0 1-31.812267 23.278934c-11.537067 5.802667-25.941333 8.738133-40.413867 8.738133H106.842795c-14.472533 0-28.8768-2.935467-40.413867-8.738133-14.472533-5.802667-25.941333-11.605333-34.679467-23.210667a104.6528 104.6528 0 0 1-23.074133-34.952533A93.525333 93.525333 0 0 1 0.005461 916.343467v-578.901334c0-29.0816 11.605333-55.296 31.744-75.639466a104.448 104.448 0 0 1 75.093334-32.017067h756.394666c28.945067 0 54.8864 11.605333 75.093334 32.085333 20.206933 20.343467 31.812267 46.4896 31.812266 75.5712v157.0816h-268.561066c-28.8768 0-54.818133 8.738133-75.093334 29.0816-20.138667 20.411733-31.744 43.690667-31.744 75.639467 0 20.411733 5.802667 37.819733 11.605334 52.360533 5.7344 14.609067 17.271467 26.2144 31.744 34.952534 14.404267 11.605333 34.6112 17.408 60.6208 17.408h262.7584v212.3776zM805.552128 177.493333H282.970795c40.413867-20.343467 80.827733-43.6224 118.3744-63.965866L496.577195 61.098667c31.812267-17.476267 54.8864-29.0816 75.093333-40.7552C597.611861 5.802667 623.621461 0 643.828395 0c20.206933 0 40.413867 5.802667 54.8864 11.605333 17.339733 8.738133 31.744 20.411733 43.281066 34.952534l63.488 130.8672zM649.631061 599.381333c0-14.609067 5.802667-26.2144 14.404267-37.888a54.613333 54.613333 0 0 1 37.546667-14.5408c14.472533 0 25.941333 5.870933 37.546666 14.5408 8.669867 8.738133 14.472533 23.278933 14.472534 37.819734 0 14.5408-5.802667 26.2144-14.472534 37.819733-8.669867 11.605333-23.074133 14.5408-37.546666 14.5408-14.404267 0-25.941333-5.802667-37.546667-14.5408a50.517333 50.517333 0 0 1-14.404267-37.819733z" fill="#999899" p-id="5960"></path></svg>