<?xml version="1.0" standalone="no"?><!DOCTYPE svg PUBLIC "-//W3C//DTD SVG 1.1//EN" "http://www.w3.org/Graphics/SVG/1.1/DTD/svg11.dtd"><svg t="1602472712337" class="icon" viewBox="0 0 1024 1024" version="1.1" xmlns="http://www.w3.org/2000/svg" p-id="2654" xmlns:xlink="http://www.w3.org/1999/xlink" width="200" height="200"><defs><style type="text/css"></style></defs><path d="M542 957.2c-246.4 0-446.8-200.4-446.8-446.8S295.6 63.7 542 63.7c11.9 0 24.2 0.5 36.3 1.5 13.3 1.1 25 9.2 30.7 21.3s4.4 26.3-3.2 37.2c-44.2 62.8-67.5 136.8-67.5 213.9 0 94.2 35.2 184 99.2 253 63.6 68.6 149.8 110.6 242.8 118.1 13.3 1.1 25 9.2 30.7 21.3 5.7 12.1 4.4 26.3-3.2 37.2-83.8 119-220.6 190-365.8 190z m-32.1-817.7c-190.4 16.3-340.3 176.4-340.3 370.9 0 205.3 167 372.3 372.3 372.3 100.1 0 195.3-40.5 264.8-110.6-85.4-20.3-163.2-65.5-223.9-131-76.8-82.7-119-190.6-119-303.6 0-69.4 15.8-136.8 46.1-198z" fill="" p-id="2655"></path></svg>