<svg id="图层_1" data-name="图层 1" xmlns="http://www.w3.org/2000/svg" viewBox="0 0 83.11 100"><defs><style>.cls-1{fill:#f24e4d;}.cls-2{fill:#fff;}</style></defs><title>hot</title><g id="图层_2" data-name="图层 2"><g id="图层_1-2" data-name="图层 1-2"><path class="cls-1" d="M67.62,97.51C114.78,73,78.9,22.68,72.06,18c2.4,5.1,2.72,13.57-2.06,17.64C62.19,5.75,42.88,0,42.88,0c2.38,15.25-8.14,31.91-18.29,44.44-.33-6.08-.65-10.2-4.07-16.28-.64,11.12-9.08,20-11.51,31.15C6,74.55,15.2,89.42,32.07,96.75,32.07,96.75,51.83,103.53,67.62,97.51Z" transform="translate(-8.45)"/><path class="cls-2" d="M41.69,74.07H37.5V66H29.25v8H25.14V54.59h4.12v7.86h8.3V54.59h4.18V74.07Zm3.36-9.5a10.37,10.37,0,0,1,2.66-7.43,9.23,9.23,0,0,1,7.06-2.88A8.67,8.67,0,0,1,61.44,57,10.13,10.13,0,0,1,64,64.16a10.24,10.24,0,0,1-2.65,7.38,9,9,0,0,1-6.9,2.85,8.82,8.82,0,0,1-6.77-2.77,9.74,9.74,0,0,1-2.61-7.05Zm4.34-.22A7.62,7.62,0,0,0,50.74,69a4.49,4.49,0,0,0,3.7,1.81,4.6,4.6,0,0,0,3.8-1.74,7.2,7.2,0,0,0,1.36-4.66,8.07,8.07,0,0,0-1.29-4.83,4.34,4.34,0,0,0-3.75-1.79,4.58,4.58,0,0,0-3.85,1.79,8.09,8.09,0,0,0-1.36,4.77ZM79.67,58H74.14V74H70V58H64.44V54.53H79.67Z" transform="translate(-8.45)"/></g></g></svg>