<?xml version="1.0" standalone="no"?><!DOCTYPE svg PUBLIC "-//W3C//DTD SVG 1.1//EN" "http://www.w3.org/Graphics/SVG/1.1/DTD/svg11.dtd"><svg t="1536248165191" class="icon" style="" viewBox="0 0 1024 1024" version="1.1" xmlns="http://www.w3.org/2000/svg" p-id="5239" xmlns:xlink="http://www.w3.org/1999/xlink" width="200" height="200"><defs><style type="text/css"></style></defs><path d="M512 63.488c126.976 3.072 232.448 47.104 316.416 131.072s128 190.464 132.096 317.44c-3.072 126.976-47.104 232.448-131.072 316.416S638.976 956.416 512 960.512c-126.976-3.072-232.448-47.104-316.416-131.072S67.584 638.976 63.488 512c3.072-126.976 47.104-232.448 131.072-316.416S385.024 67.584 512 63.488z m0 403.456C472.064 427.008 393.216 348.16 354.304 308.224l-46.08 46.08C348.16 393.216 427.008 472.064 466.944 512 427.008 551.936 348.16 630.784 308.224 669.696l46.08 46.08C393.216 675.84 472.064 596.992 512 557.056c39.936 39.936 118.784 118.784 157.696 158.72l46.08-46.08C675.84 630.784 596.992 551.936 557.056 512c39.936-39.936 118.784-118.784 158.72-157.696l-46.08-46.08C630.784 348.16 551.936 427.008 512 466.944z" p-id="5240"></path></svg>