<?xml version="1.0" encoding="utf-8"?>
<!-- Generator: Adobe Illustrator 22.0.0, SVG Export Plug-In . SVG Version: 6.00 Build 0)  -->
<svg version="1.1" id="图层_1" xmlns="http://www.w3.org/2000/svg" xmlns:xlink="http://www.w3.org/1999/xlink" x="0px" y="0px"
	 viewBox="0 0 100 100" style="enable-background:new 0 0 100 100;" xml:space="preserve">
<style type="text/css">
	.st0{fill:#E52828;}
	.st1{fill:#C9A96E;}
</style>
<title>news</title>
<g id="图层_2_1_">
	<g id="图层_1-2">
		<circle class="st0" cx="75.2" cy="24.9" r="18.6"/>
		<path class="st1" d="M48.7,100c6.9,0,12.5-5.6,12.5-12.5l0,0h-25C36.2,94.4,41.8,100,48.7,100L48.7,100z"/>
		<path class="st1" d="M87.2,72.6c0.6,0.1,1.2,0.3,1.7,0.6c-3.2-2.1-5.2-5.7-5.2-9.5V46.8c-2.7,1-5.6,1.6-8.5,1.6
			c-13,0-23.5-10.5-23.5-23.5c0-6,2.3-11.9,6.5-16.2c-0.7-0.2-1.3-0.4-2-0.5V7.5c0-4.1-3.4-7.5-7.5-7.5s-7.5,3.4-7.5,7.5v0.8
			c-15.7,3.3-27.5,16.9-27.5,33.2v22.2c0,3.8-2,7.4-5.2,9.5c0.8-0.5,1.7-0.8,2.7-0.7c-2.8,0-5,2.2-5,5s2.2,5,5,5h75c2.8,0,5-2.2,5-5
			C91.2,75.1,89.5,73.1,87.2,72.6z"/>
	</g>
</g>
</svg>
