<?xml version="1.0" standalone="no"?><!DOCTYPE svg PUBLIC "-//W3C//DTD SVG 1.1//EN" "http://www.w3.org/Graphics/SVG/1.1/DTD/svg11.dtd"><svg t="1561024809666" class="icon" viewBox="0 0 1024 1024" version="1.1" xmlns="http://www.w3.org/2000/svg" p-id="1767" xmlns:xlink="http://www.w3.org/1999/xlink" width="200" height="200"><defs><style type="text/css"></style></defs><path d="M719.78046875 488.51210937c48.74414063-24.92578125 79.76425781-69.24023438 72.5625-142.91015624-9.41835938-100.81230469-92.21132812-134.60097656-201.88476563-144.01582032V62h-85.303125v135.70839844c-22.15722656 0-44.86816406 0.55371094-67.57734375 1.10742187V62h-85.303125v139.58613281c-31.36289062 0.94746094-67.89023438 0.48515625-171.15820312 0v90.84023438c67.34882813-1.19179688 102.68613281-5.51953125 110.78261719 37.66464843v382.19941407c-5.14160156 34.26328125-32.56171875 29.32910156-93.61230469 28.24980469L181.11816406 841.90625c155.53300781 0 171.15820313 0.55371094 171.15820313 0.55371094V962h85.303125v-117.87890625c23.26289062 0.55371094 45.97382812 0.55371094 67.57734375 0.55371094V962h85.303125v-119.54003906c142.90839844-7.75546875 238.44199219-43.75898438 251.18261718-178.35996094 9.96855469-108.01054688-40.9921875-156.20273438-121.86210937-175.58789063zM439.240625 298.51894531c48.19042969 0 198.85429688-14.95371094 198.85429688 85.303125 0 95.82714844-150.66210938 84.74765625-198.85429688 84.74765625v-170.05078125z m0 442.575V553.87285156c57.60703125 0 234.01230469-16.06289062 234.01230469 93.61230469-0.00175781 105.79570312-176.40527344 93.60878906-234.01230469 93.60878906z" fill="" p-id="1768"></path></svg>