<?xml version="1.0" standalone="no"?>
<!DOCTYPE svg PUBLIC "-//W3C//DTD SVG 1.1//EN" "http://www.w3.org/Graphics/SVG/1.1/DTD/svg11.dtd">
<svg t="1561030472828" class="icon" viewBox="0 0 1024 1024" version="1.1" xmlns="http://www.w3.org/2000/svg" p-id="6089" xmlns:xlink="http://www.w3.org/1999/xlink" width="200" height="200">
<defs> 
<style type="text/css">
	.st0{fill:#999899;}
	.st1{fill:#F2F2F2;}
</style> 
</defs>
<path class="st0" d="M512 0C229.228 0 0 229.228 0 512s229.228 512 512 512 512-229.228 512-512S794.772 0 512 0z m0 954.182C267.818 954.182 69.818 756.205 69.818 512S267.818 69.818 512 69.818c244.228 0 442.182 197.977 442.182 442.182S756.228 954.182 512 954.182z" p-id="6090"></path>
<path class="st0" d="M456.909 578.716l-57.637 57.637V302.534c0-19.272-15.636-34.909-34.909-34.909-19.272 0-34.909 15.637-34.909 34.909v336.738l-57.613-57.67c-13.659-13.591-35.772-13.591-49.363 0.022-13.659 13.659-13.705 35.772-0.068 49.364l115.204 115.204c5.364 5.363 12.068 8.103 19 9.228 0.387 0.091 0.773 0.193 1.159 0.261 1.432 0.193 2.818 0.433 4.25 0.433 0.796 0.057 1.546 0.238 2.341 0.238 11.909 0 22.409-5.978 28.705-15.08l113.204-113.17c13.637-13.637 13.637-35.75 0.023-49.363-13.683-13.636-35.796-13.682-49.387-0.023zM686.363 277.784c-5.295-5.295-11.932-8-18.772-9.159-0.5-0.113-1-0.25-1.522-0.352-1.364-0.17-2.659-0.398-4.022-0.409-0.818-0.045-1.592-0.239-2.433-0.239-11.886 0-22.341 5.966-28.659 15.034l-113.25 113.239c-13.636 13.636-13.636 35.75-0.022 49.364 13.682 13.613 35.796 13.659 49.387 0.022l57.636-57.636v333.795c0 19.296 15.637 34.909 34.909 34.909 19.273 0 34.909-15.613 34.909-34.909V384.716l57.614 57.659c13.659 13.591 35.772 13.591 49.363 0 13.659-13.659 13.704-35.795 0.068-49.386L686.363 277.784z" p-id="6091"></path>
</svg>