<?xml version="1.0" standalone="no"?><!DOCTYPE svg PUBLIC "-//W3C//DTD SVG 1.1//EN" "http://www.w3.org/Graphics/SVG/1.1/DTD/svg11.dtd"><svg t="1561024820569" class="icon" viewBox="0 0 1024 1024" version="1.1" xmlns="http://www.w3.org/2000/svg" p-id="2027" xmlns:xlink="http://www.w3.org/1999/xlink" width="200" height="200"><defs><style type="text/css"></style></defs><path d="M567.23363335 898.63543088v55.23363206h-110.4672667v-55.23363206c-121.51399286 0-220.93453212-99.42053925-220.93453083-220.93453212h110.46726542c0 60.75699579 49.71026963 110.46726541 110.46726541 110.46726542v-220.93453083c-121.51399286 0-220.93453212-99.42053925-220.93453083-220.93453211s99.42053925-220.93453212 220.93453083-220.93453212V70.13093706h110.4672667v55.23363206c121.51399286 0 220.93453212 99.42053925 220.93453083 220.93453212h-110.46726542c0-60.75699579-49.71026963-110.46726541-110.46726541-110.46726542v220.93453083h22.09345231c38.66354348 0 88.3738131 22.0934536 127.03735659 55.23363335 44.18690591 38.66354348 77.32708566 99.42053925 77.32708565 165.70089876-5.52336372 121.51399286-104.94390299 220.93453212-226.45789455 220.93453212z m0-110.4672667c60.75699579 0 110.46726541-49.71026963 110.46726541-110.46726542s-49.71026963-110.46726541-110.46726541-110.46726541v220.93453083zM456.76636665 235.83183582c-60.75699579 0-110.46726541 49.71026963-110.46726541 110.46726542s49.71026963 110.46726541 110.46726541 110.46726541V235.83183582z"  p-id="2028"></path></svg>