<?xml version="1.0" standalone="no"?><!DOCTYPE svg PUBLIC "-//W3C//DTD SVG 1.1//EN" "http://www.w3.org/Graphics/SVG/1.1/DTD/svg11.dtd"><svg t="1623122524415" class="icon" viewBox="0 0 1024 1024" version="1.1" xmlns="http://www.w3.org/2000/svg" p-id="2562" xmlns:xlink="http://www.w3.org/1999/xlink" width="200" height="200"><defs><style type="text/css"></style></defs><path d="M787.2 192V64c0-38.4-25.6-64-64-64h-640C44.8 0 19.2 25.6 19.2 64v896c0 38.4 25.6 64 64 64h704V192z m-256 620.8H192c-25.6 0-44.8-19.2-44.8-44.8 0-25.6 19.2-44.8 44.8-44.8h339.2c25.6 0 44.8 19.2 44.8 44.8 0 25.6-19.2 44.8-44.8 44.8z m0-256H192c-25.6 0-44.8-19.2-44.8-44.8 0-25.6 19.2-44.8 44.8-44.8h339.2c25.6 0 44.8 19.2 44.8 44.8 0 25.6-19.2 44.8-44.8 44.8z m89.6-256H192c-25.6 0-44.8-19.2-44.8-44.8 0-25.6 19.2-44.8 44.8-44.8h428.8c25.6 0 44.8 19.2 44.8 44.8-6.4 25.6-25.6 44.8-44.8 44.8z m320-89.6h-64V1024h64c32 0 64-25.6 64-64V275.2c0-32-32-64-64-64z m0 0" p-id="2563"></path></svg>