<?xml version="1.0" encoding="utf-8"?>
<!-- Generator: Adobe Illustrator 22.0.0, SVG Export Plug-In . SVG Version: 6.00 Build 0)  -->
<svg version="1.1" id="图层_1" xmlns="http://www.w3.org/2000/svg" xmlns:xlink="http://www.w3.org/1999/xlink" x="0px" y="0px"
	 viewBox="0 0 100 100" style="enable-background:new 0 0 100 100;" xml:space="preserve">
<style type="text/css">
	.st0{fill:#F28931;}
</style>
<title></title>
<desc></desc>
<g id="Classic">
	<g id="Bitcoin" transform="translate(-328.000000, -409.000000)">
		<g transform="translate(300.000000, 381.000000)">
			<path class="st0" d="M74,79.6l9.1,2.5c4.3,1.1,6,4.7,4.9,8.7c-0.8,2.9-2.8,5.2-5.5,5.6c-1,0.2-2.4-0.1-3.5-0.4l-8.7-2.3L74,79.6z
				 M90.3,64.2c1.6,1.5,1.9,3.8,1.3,6.1c-1,3.7-3.8,5.6-7.5,4.6l-8.3-2.2l3.3-12.3l7.3,2C88.1,62.8,89.4,63.4,90.3,64.2z
				 M77.9,103.2c-1.3,4.7-1.9,7.1-1.9,7.1s-1.6-0.4-4.8-1.3l1.9-7.1l-5-1.3c-1.3,4.7-1.9,7.1-1.9,7.1s-1.6-0.4-4.8-1.3l1.9-7.1
				c-6.4-1.7-9.6-2.6-9.6-2.6s0.6-2.2,1.7-6.5l2.9,0.8c1.5,0.4,3-0.5,3.4-1.9l7.7-28.8c0.4-1.5-0.5-3-1.9-3.4
				c-2-0.5-2.9-0.8-2.9-0.8s0.6-2.2,1.7-6.5l9.6,2.6c1.3-4.7,1.9-7.1,1.9-7.1s1.6,0.4,4.8,1.3l-1.9,7.1l5,1.3
				c1.3-4.7,1.9-7.1,1.9-7.1s1.6,0.4,4.8,1.3l-1.9,7.2c2.4,0.8,4.3,1.6,6,2.9c3.8,2.8,5.7,7.5,4.3,12.8c-1.2,4.5-4.2,7.6-8.5,8.5
				c4.8,3.1,5.9,8.3,4.6,13.3c-1.8,6.4-7.3,9.9-12.9,10.2C81.8,104.1,79.9,103.8,77.9,103.2z M29.7,65.1
				c-7.1,26.6,8.7,54.1,35.4,61.2c26.6,7.1,54.1-8.7,61.2-35.4s-8.7-54.1-35.4-61.2C64.3,22.6,36.8,38.4,29.7,65.1z"/>
		</g>
	</g>
</g>
</svg>
