<?xml version="1.0" standalone="no"?><!DOCTYPE svg PUBLIC "-//W3C//DTD SVG 1.1//EN" "http://www.w3.org/Graphics/SVG/1.1/DTD/svg11.dtd"><svg t="1589015280277" class="icon" viewBox="0 0 1024 1024" version="1.1" xmlns="http://www.w3.org/2000/svg" p-id="2478" xmlns:xlink="http://www.w3.org/1999/xlink" width="200" height="200"><defs><style type="text/css"></style></defs><path d="M480 64C214.848 64 0 278.848 0 544S214.848 1024 480 1024 960 809.152 960 544 745.152 64 480 64zM672 512C689.664 512 704 526.336 704 544S689.664 576 672 576L512 576l0 128 160 0c17.664 0 32 14.336 32 32S689.664 768 672 768L512 768l0 96C512 881.664 497.664 896 480 896S448 881.664 448 864L448 768 288 768C270.336 768 256 753.664 256 736S270.336 704 288 704L448 704 448 576 288 576C270.336 576 256 561.664 256 544S270.336 512 288 512L448 512 448 491.008 265.024 308.032c-11.904-11.968-11.904-31.168 0-43.072s31.168-11.904 43.072 0l171.456 171.52 173.312-173.312c12.096-12.096 31.808-12.096 43.968 0s12.096 31.808 0 43.968L512 491.968 512 512 672 512z" p-id="2479"></path></svg>