<?xml version="1.0" encoding="utf-8"?>
<!-- Generator: Adobe Illustrator 22.0.0, SVG Export Plug-In . SVG Version: 6.00 Build 0)  -->
<svg version="1.1" id="图层_1" xmlns="http://www.w3.org/2000/svg" xmlns:xlink="http://www.w3.org/1999/xlink" x="0px" y="0px"
	 width="100px" height="100px" viewBox="0 0 100 100" style="enable-background:new 0 0 100 100;" xml:space="preserve">
<style type="text/css">
	.st0{fill:#FFFFFF;}
</style>
<path class="st0" d="M67.7,0H32.3c-7.6,0-13.8,6.2-13.8,13.8v72.3c0,7.6,6.2,13.8,13.8,13.8h35.4c7.6,0,13.8-6.2,13.8-13.8V13.8
	C81.5,6.2,75.3,0,67.7,0z M50,93.8c-2.1,0-3.8-1.7-3.8-3.8c0-2.1,1.7-3.8,3.8-3.8s3.8,1.7,3.8,3.8S52.1,93.8,50,93.8z M73.8,81.5
	H26.2v-63h47.7L73.8,81.5L73.8,81.5z"/>
</svg>
