<?xml version="1.0" standalone="no"?><!DOCTYPE svg PUBLIC "-//W3C//DTD SVG 1.1//EN" "http://www.w3.org/Graphics/SVG/1.1/DTD/svg11.dtd"><svg t="1559289418133" class="icon" style="" viewBox="0 0 1024 1024" version="1.1" xmlns="http://www.w3.org/2000/svg" p-id="7232" xmlns:xlink="http://www.w3.org/1999/xlink" width="400" height="400"><defs><style type="text/css"></style></defs><path d="M849.541131 803.25034c0.008186 0.010233 0.01842 0.019443 0.025583 0.029676 67.451228-78.151941 108.256586-179.945325 108.256586-291.280016 0-246.353804-199.708438-446.062242-446.061218-446.062242-246.38962 0-446.098058 199.708438-446.098058 446.062242 0 115.059526 43.568285 219.941248 115.101481 299.05612 4.942569-150.193721 108.907409-275.311323 248.721735-312.1176-45.790906-27.691689-76.403111-77.957513-76.403111-135.3742 0-87.313601 70.780043-158.093645 158.213371-158.093645 87.312578 0 158.093645 70.780043 158.093645 158.093645 0 56.485479-29.630854 106.044198-74.190723 134.00297 133.772726 32.832779 238.799758 162.127518 255.477602 304.372196C850.302471 802.379507 849.919754 802.814412 849.541131 803.25034z" p-id="7233" fill="#01CED1"></path></svg>