<?xml version="1.0" standalone="no"?>
<!DOCTYPE svg PUBLIC "-//W3C//DTD SVG 1.1//EN" "http://www.w3.org/Graphics/SVG/1.1/DTD/svg11.dtd">

<svg t="1635838699111" class="icon" viewBox="0 0 1024 1024" version="1.1" xmlns="http://www.w3.org/2000/svg" p-id="6365" width="200" height="200"><path d="M192 960h640v64H192v-64z" p-id="6366"></path><path d="M384 768h256v256H384v-256zM960 0H64a64 64 0 0 0-64 64v640a64 64 0 0 0 64 64h896a64 64 0 0 0 64-64V64a64 64 0 0 0-64-64z m0 704H64V64h896v640z" p-id="6367"></path><path d="M128 128h768v512H128V128z" p-id="6368"></path></svg>
