<?xml version="1.0" standalone="no"?><!DOCTYPE svg PUBLIC "-//W3C//DTD SVG 1.1//EN" "http://www.w3.org/Graphics/SVG/1.1/DTD/svg11.dtd"><svg t="1581495564963" class="icon" viewBox="0 0 1024 1024" version="1.1" xmlns="http://www.w3.org/2000/svg" p-id="2246" xmlns:xlink="http://www.w3.org/1999/xlink" width="200" height="200"><defs><style type="text/css"></style></defs><path d="M437.513 910.13h40.42s0.512-179.122 0-192.68 5.35-28.42 11.257-35.305l448.72-522.91S815.694 783.788 814.067 792.069c-1.257 6.393-5.435 9.121-11.235 7.245-6.997-2.266-262.478-81.865-262.478-81.865l-12.982 39.397s242.571 76.188 266.762 83.4c26.606 7.93 54.235-9.21 59.864-39.397 4.644-24.907 131.175-668.911 133.031-680.497 1.854-11.584 6.98-27.97-12.515-37.38-14.432-6.966-31.828 8.046-31.828 8.046l-5.459-10.577S117.132 518.331 87.883 534.106s-27.952 49.001-3.41 56.966c24.54 7.963 272.199 88.344 272.199 88.344l12.621-38.886-244.91-78.794 765.432-409.663s-409.322 476.86-426.207 496.303-26.384 39.653-26.35 65.236l0.255 196.519z" fill="" p-id="2247"></path></svg>