<?xml version="1.0" encoding="utf-8"?>
<!-- Generator: Adobe Illustrator 22.0.0, SVG Export Plug-In . SVG Version: 6.00 Build 0)  -->
<svg version="1.1" id="图层_1" xmlns="http://www.w3.org/2000/svg" xmlns:xlink="http://www.w3.org/1999/xlink" x="0px" y="0px"
	 viewBox="0 0 100 100" style="enable-background:new 0 0 100 100;" xml:space="preserve">
<style type="text/css">
	.st0{fill:#999999;}
</style>
<g>
	<path class="st0" d="M50,92.5c23.4,0,42.5-19.1,42.5-42.5S73.4,7.5,50,7.5S7.5,26.6,7.5,50S26.6,92.5,50,92.5 M50,100
		C22.4,100,0,77.6,0,50S22.4,0,50,0s50,22.4,50,50S77.6,100,50,100z"/>
	<path class="st0" d="M50,75c-2.8,0-5-2.2-5-5s2.2-5,5-5s5,2.2,5,5l0,0C55,72.8,52.8,75,50,75L50,75z M50.3,60h-0.6
		c-2.6,0-4.7-2.1-4.7-4.7V29.7c0-2.6,2.1-4.7,4.7-4.7h0.6c2.6,0,4.7,2.1,4.7,4.7l0,0v25.6C55,57.9,52.9,60,50.3,60L50.3,60L50.3,60z
		"/>
</g>
</svg>
