<?xml version="1.0" standalone="no"?><!DOCTYPE svg PUBLIC "-//W3C//DTD SVG 1.1//EN" "http://www.w3.org/Graphics/SVG/1.1/DTD/svg11.dtd"><svg t="1606473563119" class="icon" viewBox="0 0 1024 1024" version="1.1" xmlns="http://www.w3.org/2000/svg" p-id="1232" xmlns:xlink="http://www.w3.org/1999/xlink" width="200" height="200"><defs><style type="text/css"></style></defs><path d="M511.799855 1023.99945C229.000007 1023.79945-0.19987 794.499573 0.00013 511.699725 0.10013 306.199836 123.200064 120.599935 312.499962 40.499978c260.49986-109.999941 560.899699 11.899994 670.99964 272.399854s-11.899994 560.799699-272.399854 670.89964c-63.099966 26.599986-130.89993 40.299978-199.299893 40.199978z m0-909.999511c-219.899882 0-398.199786 178.199904-398.199786 398.099786s178.299904 398.099786 398.199786 398.099786S909.999641 731.999607 909.999641 512.099725c0-105.599943-41.999977-206.799889-116.599937-281.499849-74.59996-74.89996-175.899906-116.899937-281.599849-116.599937z" p-id="1233"></path><path d="M568.999824 739.499603H455.099886V568.899694H284.499977V455.099756h170.599909V284.499847h113.699938v170.599909h170.599909v113.799938H568.999824v170.599909z"  p-id="1234"></path></svg>