<?xml version="1.0" encoding="utf-8"?>
<!-- Generator: Adobe Illustrator 22.0.0, SVG Export Plug-In . SVG Version: 6.00 Build 0)  -->
<svg version="1.1" id="图层_1" xmlns="http://www.w3.org/2000/svg" xmlns:xlink="http://www.w3.org/1999/xlink" x="0px" y="0px"
	 viewBox="0 0 100 100" style="enable-background:new 0 0 100 100;" xml:space="preserve">
<style type="text/css">
	.st0{fill:#FDA22D;}
</style>
<path class="st0" d="M35.3,100c-9,0-18.1-3.4-24.9-10.3C3.7,83,0.1,74.2,0.1,64.7s3.6-18.2,10.3-24.9l11.9-11.9
	c2.8-2.8,6.6-4.4,10.5-4.4s7.7,1.6,10.5,4.4l2.9,2.9l9.5-9.5l-3.2-3.2c-2-2-3.1-4.7-3.1-7.5c0-2.9,1.1-5.5,3.1-7.5
	c4.1-4.1,10.9-4.1,15,0l29.4,29.4c4.1,4.2,4.1,10.8,0,14.9c-2,2-4.7,3.1-7.5,3.1c-2.9,0-5.5-1.1-7.5-3.1l-3.2-3.2l-9.5,9.5l2.9,2.9
	c5.8,5.8,5.8,15.3,0,21.1l-11.9,12C53.4,96.6,44.3,100,35.3,100z M32.9,31.9c-1.8,0-3.4,0.6-4.5,1.9l-12,11.9
	c-5.1,5.1-7.9,11.8-7.9,19s2.8,13.9,7.9,19c10.5,10.5,27.5,10.5,37.9,0l11.9-11.9c2.5-2.5,2.5-6.6,0-9.2l-5.8-5.8
	c-1.6-1.6-1.6-4.4,0-6l15.5-15.5c1.6-1.6,4.4-1.6,6,0l6.2,6.2c0.5,0.5,1.2,0.6,1.5,0.6s1-0.1,1.5-0.6c0.8-0.8,0.8-2.2,0-3L61.6,9.1
	c-0.5-0.5-1.2-0.6-1.5-0.6s-1,0.1-1.5,0.6S58,10.3,58,10.6s0.1,1,0.6,1.5l6.2,6.2c1.6,1.6,1.6,4.4,0,6L49.3,39.6
	c-1.6,1.6-4.4,1.6-6,0l-5.8-5.8C36.2,32.6,34.6,31.9,32.9,31.9z"/>
<path class="st0" d="M40.7,63.5c-1.1,0-2.1-0.4-3-1.2c-1.6-1.6-1.6-4.4,0-6l18.6-18.6c1.6-1.6,4.4-1.6,6,0s1.6,4.4,0,6L43.7,62.3
	C42.9,63.1,41.8,63.5,40.7,63.5z"/>
</svg>
