<?xml version="1.0" standalone="no"?>
<!DOCTYPE svg PUBLIC "-//W3C//DTD SVG 1.1//EN" "http://www.w3.org/Graphics/SVG/1.1/DTD/svg11.dtd">
<svg t="1572422338609" class="icon" viewBox="0 0 1024 1024" version="1.1" xmlns="http://www.w3.org/2000/svg" p-id="2440" xmlns:xlink="http://www.w3.org/1999/xlink" width="200" height="200">
  <defs>
    <style type="text/css"></style>
  </defs>
  <path d="M473.3 668.2l392-392c21.6-21.6 56.7-21.6 78.3 0 21.6 21.6 21.6 56.7 0 78.3l-392 392c-21.6 21.6-56.7 21.6-78.3 0-21.6-21.6-21.6-56.7 0-78.3z" p-id="2441">
  </path>
  <path d="M473.4 746.5l-392-392c-21.6-21.6-21.6-56.7 0-78.3 21.6-21.6 56.7-21.6 78.3 0l392 392c21.6 21.6 21.6 56.7 0 78.3-21.6 21.6-56.7 21.6-78.3 0z" p-id="2442">
  </path>
</svg>