<?xml version="1.0" encoding="utf-8"?>
<!-- Generator: Adobe Illustrator 22.1.0, SVG Export Plug-In . SVG Version: 6.00 Build 0)  -->
<svg version="1.1" id="图层_1" xmlns="http://www.w3.org/2000/svg" xmlns:xlink="http://www.w3.org/1999/xlink" x="0px" y="0px"
	 viewBox="0 0 100 100" style="enable-background:new 0 0 100 100;" xml:space="preserve">
<style type="text/css">
	.st0{fill:#666666;}
</style>
<g>
	<path class="st0" d="M80.8,72.6H70.4V61.7c0-1.2-1-2.1-2.1-2.1s-2.1,1-2.1,2.1v12.8c-0.2,1.2,0.7,2.2,1.8,2.4c0,0,0,0,0.1,0h12.8
		c1.2,0,2.1-1,2.1-2.1C82.9,73.6,82,72.6,80.8,72.6z"/>
	<path class="st0" d="M68,48.9c-14.1,0-25.5,11.4-25.5,25.5S53.9,100,68,100s25.5-11.4,25.5-25.5S82.1,48.9,68,48.9z M68,95.7
		c-11.8,0-21.3-9.5-21.3-21.3S56.3,53.2,68,53.2c11.8,0,21.3,9.5,21.3,21.3c0,0,0,0,0,0C89.3,86.2,79.8,95.7,68,95.7z"/>
	<path class="st0" d="M23.4,72.6c-1.2,0-2.1,1-2.1,2.1c0,1.2,1,2.1,2.1,2.1H34c1.2,0,2.1-1,2.1-2.1c0-1.2-1-2.1-2.1-2.1
		C34,72.6,23.4,72.6,23.4,72.6z M40.4,59.9c0-1.2-1-2.1-2.1-2.1H23.4c-1.2,0-2.1,1-2.1,2.1c0,1.2,1,2.1,2.1,2.1h14.9
		C39.4,62,40.4,61,40.4,59.9z M61.7,45c0-1.2-1-2.1-2.1-2.1H23.4c-1.2,0-2.1,1-2.1,2.1c0,1.2,1,2.1,2.1,2.1h36.2
		C60.7,47.1,61.7,46.1,61.7,45z"/>
	<path class="st0" d="M44.6,91.8H19.1c-4.7-0.2-8.4-4.1-8.2-8.8c0,0,0,0,0,0V32.2h76.6V53c0,1.2,1,2.1,2.1,2.1c1.2,0,2.1-1,2.1-2.1
		V19.1c-0.2-7-6-12.6-13-12.5c0,0,0,0,0,0h-8.2V2.1c0-1.2-1-2.1-2.1-2.1c-1.2,0-2.1,1-2.1,2.1v4.5h-34V2.1C32.1,1,31.2,0,30,0
		c-1.2,0-2.1,1-2.1,2.1v4.5h-8.8C12.3,6.6,6.7,12,6.6,18.8c0,0.1,0,0.2,0,0.3V83C6.5,90,12,95.9,19.1,96c0,0,0,0,0,0h25.5
		c1.2,0,2.1-1,2.1-2.1S45.8,91.8,44.6,91.8z M19.1,10.9h8.8v1.9c0,1.2,1,2.1,2.1,2.1c1.2,0,2.1-1,2.1-2.1v-1.9h34v1.9
		c0,1.2,1,2.1,2.1,2.1s2.1-1,2.1-2.1v-1.9h8.2c4.7-0.2,8.6,3.5,8.8,8.2c0,0,0,0,0,0v8.8H10.9v-8.8c-0.1-4.5,3.4-8.1,7.9-8.2
		C18.9,10.9,19,10.9,19.1,10.9z"/>
</g>
</svg>
