<?xml version="1.0" standalone="no"?><!DOCTYPE svg PUBLIC "-//W3C//DTD SVG 1.1//EN" "http://www.w3.org/Graphics/SVG/1.1/DTD/svg11.dtd"><svg t="1606721282254" class="icon" viewBox="0 0 1024 1024" version="1.1" xmlns="http://www.w3.org/2000/svg" p-id="5977" xmlns:xlink="http://www.w3.org/1999/xlink" width="200" height="200"><defs><style type="text/css"></style></defs><path d="M889.518298 0.021787C889.518298 0.021787 134.481702 0.021787 134.481702 0.021787 66.135149 0.021787 10.752 55.906043 10.752 124.862638 10.752 124.862638 10.752 899.028426 10.752 899.028426 10.752 967.941447 66.135149 1023.803915 134.481702 1023.803915 134.481702 1023.803915 889.518298 1023.803915 889.518298 1023.803915 957.864851 1023.803915 1013.248 967.941447 1013.248 899.028426 1013.248 899.028426 1013.248 124.862638 1013.248 124.862638 1013.248 55.906043 957.864851 0.021787 889.518298 0.021787 889.518298 0.021787 889.518298 0.021787 889.518298 0.021787ZM554.561362 871.66366C554.561362 871.66366 449.198298 871.66366 449.198298 871.66366 449.198298 871.66366 449.198298 761.61634 449.198298 761.61634 449.198298 761.61634 554.561362 761.61634 554.561362 761.61634 554.561362 761.61634 554.561362 871.66366 554.561362 871.66366 554.561362 871.66366 554.561362 871.66366 554.561362 871.66366ZM707.377021 432.75983C692.169532 456.682213 659.72834 489.254128 609.966298 530.497362 584.213787 551.805277 568.265532 568.973617 561.990809 581.915234 557.32834 591.719489 554.604936 607.384511 553.777021 628.844936 553.820596 630.370043 554.561362 631.677277 554.561362 633.202383 554.561362 634.901787 553.820596 636.29617 553.646298 637.952 553.602723 642.418383 553.472 646.623319 553.537362 651.547234 553.537362 651.547234 551.010043 651.547234 551.010043 651.547234 543.733106 672.833362 524.756426 688.236936 501.923404 688.236936 479.090383 688.236936 460.113702 672.833362 452.836766 651.547234 452.836766 651.547234 449.198298 651.547234 449.198298 651.547234 448.936851 635.707915 449.198298 618.321702 449.198298 614.857532 449.198298 579.104681 448.413957 557.491745 460.200851 534.419064 472.074894 511.346383 495.822979 485.397787 531.33617 456.573277 566.958298 427.726979 588.200851 408.881021 595.129191 399.926468 605.826723 385.80834 611.20817 370.230468 611.20817 353.236426 611.20817 329.619064 601.687149 309.400511 582.754043 292.515404 563.820936 275.630298 538.264511 267.242213 506.150128 267.242213 475.190468 267.242213 449.329021 276.022468 428.500426 293.626553 407.650043 311.187064 386.734298 322.124255 378.934468 358.138553 378.934468 358.138553 378.716596 358.138553 378.716596 358.138553 379.261277 361.406638 379.653447 364.718298 379.653447 368.138894 379.653447 399.054979 355.665702 424.066723 326.100426 424.066723 296.556936 424.066723 272.525617 399.011404 272.525617 368.138894 272.525617 362.88817 273.440681 357.964255 274.70434 353.171064 279.453957 304.738043 300.761872 263.059064 339.761021 228.74417 380.699234 192.729872 434.404766 174.690043 500.942979 174.690043 570.967149 174.690043 626.633532 192.925957 668.007489 229.397787 709.425021 265.804255 730.079319 308.311149 730.079319 356.722383 730.122894 383.455319 722.519149 408.881021 707.377021 432.75983 707.377021 432.75983 707.377021 432.75983 707.377021 432.75983Z" p-id="5978"></path></svg>