<?xml version="1.0" encoding="utf-8"?>
<!-- Generator: Adobe Illustrator 22.1.0, SVG Export Plug-In . SVG Version: 6.00 Build 0)  -->
<svg version="1.1" id="图层_1" xmlns="http://www.w3.org/2000/svg" xmlns:xlink="http://www.w3.org/1999/xlink" x="0px" y="0px"
	 viewBox="0 0 100 100" style="enable-background:new 0 0 100 100;" xml:space="preserve">
<path d="M50,0C22.4,0,0,22.4,0,50s22.4,50,50,50s50-22.4,50-50S77.6,0,50,0z M74.5,34.2l-8.2,38.7c-0.6,2.7-2.3,3.4-4.5,2.1
	l-12.6-9.2l-6,5.8c-0.6,0.6-1.3,1.3-2.6,1.3l0.8-12.7l23.2-21c1-1-0.2-1.5-1.6-0.5L34.7,56.8l-12.4-3.9c-2.7-0.8-2.7-2.7,0.6-4
	l48.2-18.5C73.4,29.5,75.3,30.8,74.5,34.2z"/>
</svg>
