<?xml version="1.0" encoding="utf-8"?>
<!-- Generator: Adobe Illustrator 22.0.0, SVG Export Plug-In . SVG Version: 6.00 Build 0)  -->
<svg version="1.1" id="图层_1" xmlns="http://www.w3.org/2000/svg" xmlns:xlink="http://www.w3.org/1999/xlink" x="0px" y="0px"
	 viewBox="0 0 1024 1024" style="enable-background:new 0 0 1024 1024;" xml:space="preserve">
<path d="M0 160h1024v704H0z" fill="#F0371D"></path>
<path d="M588.8 494.08c-46.08-28.8-57.6 23.68-57.6 0 0-48 51.84-87.04 115.2-87.04s115.2 39.04 115.2 87.04c-55.04 0-60.16 28.8-86.4 28.8-32 0-40.32 0-86.4-28.8z m-32.64 103.04c13.44-52.48-40.32-47.36-17.92-55.04 45.44-14.72 98.56 22.4 118.4 83.2 19.84 60.8-1.28 121.6-47.36 136.96-16.64-51.84-46.08-48.64-54.4-73.6-9.6-30.72-12.16-38.4 1.28-91.52z m-106.88 0.64c54.4-3.84 32.64-53.12 46.72-33.92 28.16 39.04 9.6 101.12-42.24 138.24s-116.48 36.48-144.64-2.56c44.16-32 32-58.88 53.12-74.24 25.6-19.2 32.64-23.68 87.04-27.52z m-33.92-102.4c20.48 50.56 60.8 14.72 46.72 33.92-28.16 39.04-92.8 40.32-144.64 2.56s-70.4-99.2-42.24-138.24c44.16 32 65.92 12.16 87.04 27.52 26.24 18.56 32.64 23.68 53.12 74.24z m86.4-64.64c-41.6 34.56 4.48 62.08-17.92 55.04-45.44-14.72-66.56-76.16-47.36-136.96s72.96-97.92 118.4-83.2c-16.64 51.84 8.96 66.56 0.64 91.52-9.6 31.36-12.16 39.04-53.76 73.6z m-4.48-68.48l8.96 12.8 0.64-15.36 14.72-4.48-14.72-5.76v-15.36L497.92 345.6l-14.72-5.12 8.32 12.8-9.6 12.16 15.36-3.2z m170.24 110.72l14.72-4.48-14.72-5.76v-15.36l-9.6 12.16-14.72-5.12 8.32 12.8-9.6 12.16 15.36-3.84 8.96 12.8 1.28-15.36z m-56.32 189.44l14.72-4.48-14.72-5.76v-15.36l-9.6 12.16-14.72-5.12 8.32 12.8-9.6 12.16 15.36-3.84 8.96 12.8 1.28-15.36z m-196.48 3.2l14.72-4.48-14.72-5.76V640l-9.6 12.16-14.72-5.12 8.32 12.8-9.6 12.16 15.36-3.84 8.96 12.8 1.28-15.36zM346.88 480l14.72-4.48-14.72-5.76V454.4l-9.6 12.16-14.08-5.76 8.32 12.8-8.96 12.8 15.36-3.84 8.96 12.8V480z" fill="#FFFFFF"></path>
</svg>
