<?xml version="1.0" standalone="no"?><!DOCTYPE svg PUBLIC "-//W3C//DTD SVG 1.1//EN" "http://www.w3.org/Graphics/SVG/1.1/DTD/svg11.dtd"><svg t="1620803470588" class="icon" viewBox="0 0 1024 1024" version="1.1" xmlns="http://www.w3.org/2000/svg" p-id="2779" xmlns:xlink="http://www.w3.org/1999/xlink" width="48" height="48"><defs><style type="text/css"></style></defs><path d="M416.55352888 10.04278518C258.10204444 38.58735408 121.20462222 132.95919408 54.79480888 260.53594075c-35.53507555 67.57489778-47.18592 116.50844445-46.60337777 192.23893333 1.16508445 117.09098667 37.28270222 199.22944 128.15928889 290.68856889l54.75896888 54.17642666 1.16508445 110.10048 1.74762667 110.10048 104.27505778-62.33201778 104.27505777-62.91456h105.44014223c97.86709333-0.58254222 108.93539555-1.74762667 157.86894222-16.31118222 105.44014222-32.62236445 169.51978667-71.07015111 238.84231111-145.05301333 47.76846222-50.68117333 73.98286222-92.62421333 93.78929777-149.71335112 71.07015111-204.47232-26.2144-417.68277333-238.8423111-521.9578311-78.6432-39.03032889-129.90691555-50.68117333-230.68672-53.01134223-46.60337778-0.58254222-97.28455111 0.58254222-112.4306489 3.49525333z m220.20096 78.06065779c19.22389333 5.24288 59.41930667 21.55406222 89.71150223 36.11761778 44.85575111 22.13660445 64.07964445 36.11761778 102.52743111 74.56540443 80.39082667 79.80828445 109.51793778 147.38318222 109.51793778 251.07569779s-29.12711111 171.26741333-108.93539556 250.49315555c-52.4288 51.84625778-108.35285333 85.05116445-184.08334222 108.35285333-36.70016 11.65084445-56.50659555 13.98101333-122.33386667 13.98101333-43.10812445 0-86.79879111-1.74762667-97.28455111-4.07779555-15.72864-3.49525333-27.37948445 1.16508445-90.29404444 39.03032889L263.92746666 901.33238518l-1.74762666-75.73048888-1.74762667-75.14794667-19.22389333-12.23338666c-27.96202667-16.89372445-87.96387555-82.13845333-108.35285334-118.25607112-32.62236445-57.08913778-43.69066667-99.03217778-43.69066666-170.10232888 0-66.99235555 7.57304889-99.03217778 34.95253333-154.37368889 52.4288-104.27505778 163.69436445-185.24842667 294.18382222-212.62791111 48.35100445-10.48576 170.10232889-7.57304889 218.45333333 5.24288z" p-id="2780"></path><path d="M234.80035555 388.11268741c-26.2144 11.65084445-37.86524445 30.87473778-37.86524444 62.33201777 0 29.70965333 30.87473778 60.58439111 60.58439111 60.58439112 30.29219555 0 52.4288-13.39847111 64.66218666-39.03032889 9.32067555-19.22389333 9.32067555-23.88423111 2.3301689-44.85575111-14.56355555-40.19541333-51.26371555-56.50659555-89.71150223-39.03032889zM466.65216 403.25878518c-19.22389333 19.22389333-20.38897778 22.71914667-17.47626667 47.76846223 7.57304889 68.15744 98.44963555 83.30353778 124.66403555 20.97152 18.64135111-46.02083555-10.48576-89.12896-60.5843911-89.12896-22.13660445 0-29.12711111 2.91271111-46.60337778 20.38897777zM729.37870222 393.35556741c-17.47626667 13.98101333-25.63185778 32.03982222-25.63185778 56.50659556 0 30.29219555 30.87473778 61.16693333 60.58439111 61.16693333 30.29219555 0 52.4288-13.39847111 64.66218667-38.44778667 8.15559111-18.05880889 8.73813333-25.04931555 3.49525333-43.69066666-9.32067555-30.87473778-30.87473778-46.02083555-64.07964444-46.02083556-16.31118222 0-31.45728 4.07779555-39.03032889 10.48576z" p-id="2781"></path></svg>