<?xml version="1.0" encoding="utf-8"?>
<!-- Generator: Adobe Illustrator 22.1.0, SVG Export Plug-In . SVG Version: 6.00 Build 0)  -->
<svg version="1.0" id="图层_1" xmlns="http://www.w3.org/2000/svg" xmlns:xlink="http://www.w3.org/1999/xlink" x="0px" y="0px"
	 viewBox="0 0 100 100" style="enable-background:new 0 0 100 100;" xml:space="preserve">
<style type="text/css">
	.st0{fill:#FFFFFF;}
</style>
<g>
	<path class="st0" d="M50,8.3C73,8.3,91.7,27,91.7,50S73,91.7,50,91.7S8.3,73,8.3,50S27,8.3,50,8.3 M50,0C22.4,0,0,22.4,0,50
		s22.4,50,50,50s50-22.4,50-50S77.6,0,50,0L50,0z"/>
	<path class="st0" d="M50,29.2c11.5,0,20.8,9.3,20.8,20.8S61.5,70.8,50,70.8S29.2,61.5,29.2,50S38.5,29.2,50,29.2 M50,20.8
		c-16.1,0-29.2,13.1-29.2,29.2S33.9,79.2,50,79.2S79.2,66.1,79.2,50S66.1,20.8,50,20.8L50,20.8z"/>
	<circle class="st0" cx="50" cy="50" r="8.3"/>
</g>
</svg>
