<?xml version="1.0" encoding="utf-8"?>
<!-- Generator: Adobe Illustrator 22.0.0, SVG Export Plug-In . SVG Version: 6.00 Build 0)  -->
<svg version="1.1" id="图层_1" xmlns="http://www.w3.org/2000/svg" xmlns:xlink="http://www.w3.org/1999/xlink" x="0px" y="0px"
	 viewBox="0 0 100 100" style="enable-background:new 0 0 100 100;" xml:space="preserve">
<title></title>
<desc></desc>
<g>
	<g id="Logo">
		<path d="M50.2,100l-0.6-0.4L17.2,80L28,32.3L50.1,0l21.7,32.3l0,0.1l10.9,47.9L50.2,100z M22.9,80.6l25.2,15.3l-4.9-15.3H22.9z
			 M57,80.6l-4.7,15.2L77,80.6H57z M45.8,80.6l4.4,13.9l4.3-13.9H45.8z M57.8,78.2h21.5L65.3,53.9L57.8,78.2z M45,78.2h10.3
			l8.4-27.1L50.2,27.6L36.4,51.2L45,78.2z M20.7,78.2h21.8l-7.7-24.2L20.7,78.2z M19.3,77.4L19.3,77.4L19.3,77.4L19.3,77.4z
			 M66.3,50.8l12.4,21.9l-8.2-35.4L66.3,50.8z M29.4,37.2L21.5,72L33.8,51L29.4,37.2z M30.5,32.7l4.9,15.4L49,24.8V6L30.5,32.7z
			 M51.4,24.8l13.2,23.1l4.7-15.2l-18-26.6V24.8z"/>
	</g>
</g>
</svg>
