<?xml version="1.0" standalone="no"?><!DOCTYPE svg PUBLIC "-//W3C//DTD SVG 1.1//EN" "http://www.w3.org/Graphics/SVG/1.1/DTD/svg11.dtd"><svg t="1559100134843" class="icon" style="" viewBox="0 0 1024 1024" version="1.1" xmlns="http://www.w3.org/2000/svg" p-id="1050" xmlns:xlink="http://www.w3.org/1999/xlink" width="200" height="200"><defs><style type="text/css"></style></defs><path d="M450.267 580.24500003l0 92.511 92.511 0 0-92.511L450.267 580.24500003zM689.448 260.28000003c13.538-24.367 20.311-50.991 20.311-79.875 0-49.938-19.261-92.516-57.765-127.713-38.517-35.197-90.114-52.8-154.797-52.8-61.077 0-110.191 16.4-147.342 49.188-37.16 32.798-59.497 80.032-67.014 141.703l83.486 9.927c7.218-46.025 22.41-79.875 45.576-101.533 23.166-21.665 52.047-32.494 86.647-32.494 35.802 0 66.038 11.957 90.711 35.874 24.667 23.92 37.01 51.675 37.01 83.266 0 17.451-4.222 33.55-12.642 48.284-8.425 14.747-26.698 34.526-54.83 59.346s-47.607 43.701-58.442 56.637c-14.741 17.754-25.424 35.354-32.037 52.797-9.028 23.172-13.537 50.701-13.537 82.584 0 5.418 0.146 13.539 0.45 24.374l78.069 0c0.599-32.495 2.855-55.966 6.772-70.4 3.903-14.44 9.926-27.229 18.047-38.363 8.127-11.123 25.425-28.43 51.901-51.895C649.43 314.28800003 675.908 284.65600003 689.448 260.28000003L689.448 260.28000003z" p-id="1051"></path></svg>