<?xml version="1.0" standalone="no"?><!DOCTYPE svg PUBLIC "-//W3C//DTD SVG 1.1//EN" "http://www.w3.org/Graphics/SVG/1.1/DTD/svg11.dtd"><svg t="1606272657515" class="icon" viewBox="0 0 2084 1024" version="1.1" xmlns="http://www.w3.org/2000/svg" p-id="4528" xmlns:xlink="http://www.w3.org/1999/xlink" width="407.03125" height="200"><defs><style type="text/css"></style></defs><path d="M745.728 833.828571l94.244571-549.888h150.491429L896.219429 833.828571H745.691429zM1441.536 297.398857c-29.878857-11.190857-76.434286-23.149714-134.948571-23.149714-148.589714 0-253.293714 74.569143-254.098286 181.211428-0.731429 78.848 74.861714 122.88 131.913143 149.540572 58.514286 27.062857 78.336 44.068571 77.933714 68.022857-0.365714 36.717714-46.921143 53.686857-89.965714 53.686857-60.123429 0-92.306286-8.484571-141.531429-28.964571l-19.419428-8.886857-20.955429 122.88c35.291429 15.433143 100.059429 28.598857 167.533714 29.366857 158.244571 0 260.644571-73.801143 261.814857-187.830857 0.365714-62.537143-39.570286-110.08-126.427428-149.504-52.772571-25.526857-84.955429-42.532571-84.553143-68.022858 0-22.784 27.136-47.140571 86.089143-47.140571a275.053714 275.053714 0 0 1 112.493714 21.248l13.531429 6.217143 20.589714-118.674286z m385.901714-12.726857h-116.370285c-36.059429 0-62.829714 9.654857-78.701715 45.604571L1408.950857 834.194286h157.842286s25.965714-67.657143 31.817143-82.724572c17.042286 0 170.642286 0.402286 192.731428 0.402286 4.681143 19.309714 18.249143 82.285714 18.249143 82.285714h139.629714l-121.782857-549.449143z m-185.782857 354.340571c12.434286-31.707429 59.721143-153.782857 59.721143-153.782857-0.731429 1.536 12.434286-31.707429 19.785143-52.589714l10.093714 47.542857s28.708571 131.401143 34.889143 158.829714H1641.691429z m-1021.988571-354.742857l-147.382857 374.857143-15.506286-76.141714c-27.538286-87.734857-112.859429-183.149714-208.274286-230.692572l134.582857 480.694858h159.012572l236.617143-548.717715h-159.049143z" fill="#0057A0" p-id="4529"></path><path d="M335.762286 283.940571H93.366857l-1.938286 11.593143c188.489143 45.604571 313.417143 155.318857 365.348572 287.451429l-52.736-252.708572c-8.923429-34.742857-35.693714-44.8-68.278857-46.336" fill="#FAA61A" p-id="4530"></path></svg>