<?xml version="1.0" encoding="utf-8"?>
<!-- Generator: Adobe Illustrator 22.0.0, SVG Export Plug-In . SVG Version: 6.00 Build 0)  -->
<svg version="1.1" id="图层_1" xmlns="http://www.w3.org/2000/svg" xmlns:xlink="http://www.w3.org/1999/xlink" x="0px" y="0px"
	 viewBox="0 0 100 100" style="enable-background:new 0 0 100 100;" xml:space="preserve">
<style type="text/css">
	.st0{fill:url(#SVGID_1_);}
	.st1{fill:url(#SVGID_2_);}
	.st2{fill:url(#SVGID_3_);}
	.st3{fill:url(#SVGID_4_);}
	.st4{fill:url(#SVGID_5_);}
</style>
<title>资源 1</title>
<g id="图层_2_1_">
	<g id="图层_1-2">
		
			<linearGradient id="SVGID_1_" gradientUnits="userSpaceOnUse" x1="27.76" y1="21.64" x2="27.76" y2="69.26" gradientTransform="matrix(1 0 0 -1 0 102.9)">
			<stop  offset="0" style="stop-color:#CD7D29"/>
			<stop  offset="1" style="stop-color:#FAAC49"/>
		</linearGradient>
		<path class="st0" d="M20.9,81.3v-8.8h2.5v-28h-2.5v-4.9c1.1-0.7,2-1.5,2.9-2.4c1-1.1,1.8-2.3,2.5-3.5h5.9v38.8h2.5v8.8L20.9,81.3z
			"/>
		
			<linearGradient id="SVGID_2_" gradientUnits="userSpaceOnUse" x1="72.24" y1="21.64" x2="72.24" y2="69.26" gradientTransform="matrix(1 0 0 -1 0 102.9)">
			<stop  offset="0" style="stop-color:#CD7D29"/>
			<stop  offset="1" style="stop-color:#FAAC49"/>
		</linearGradient>
		<path class="st1" d="M65.3,81.3v-8.8h2.5v-28h-2.5v-4.9c1.1-0.7,2-1.5,2.9-2.4c1-1.1,1.8-2.3,2.5-3.5h5.9v38.8h2.5v8.8L65.3,81.3z
			"/>
		
			<linearGradient id="SVGID_3_" gradientUnits="userSpaceOnUse" x1="50" y1="53.28" x2="50" y2="60.6" gradientTransform="matrix(1 0 0 -1 0 102.9)">
			<stop  offset="0" style="stop-color:#CD7D29"/>
			<stop  offset="1" style="stop-color:#FAAC49"/>
		</linearGradient>
		<path class="st2" d="M46.3,46c0,2,1.6,3.7,3.7,3.7s3.7-1.6,3.7-3.7S52,42.3,50,42.3l0,0C48,42.3,46.3,43.9,46.3,46z"/>
		
			<linearGradient id="SVGID_4_" gradientUnits="userSpaceOnUse" x1="50" y1="37.72" x2="50" y2="45.04" gradientTransform="matrix(1 0 0 -1 0 102.9)">
			<stop  offset="0" style="stop-color:#CD7D29"/>
			<stop  offset="1" style="stop-color:#FAAC49"/>
		</linearGradient>
		<path class="st3" d="M46.3,61.5c0,2,1.6,3.7,3.7,3.7s3.7-1.6,3.7-3.7S52,57.9,50,57.9l0,0C48,57.9,46.3,59.5,46.3,61.5z"/>
		
			<linearGradient id="SVGID_5_" gradientUnits="userSpaceOnUse" x1="50" y1="3.35" x2="50" y2="102.45" gradientTransform="matrix(1 0 0 -1 0 102.9)">
			<stop  offset="0" style="stop-color:#CD7D29"/>
			<stop  offset="1" style="stop-color:#FAAC49"/>
		</linearGradient>
		<path class="st4" d="M96.5,7.9H81.5V2.8c0-1.3-1.1-2.4-2.4-2.4s-2.4,1.1-2.4,2.4v5.1h-9.1V2.8c0-1.3-1.1-2.4-2.4-2.4
			S63,1.5,63,2.8v5.1H37.3V2.8c0-1.3-1.1-2.4-2.4-2.4s-2.4,1.1-2.4,2.4v5.1h-9.1V2.8c0-1.3-1.1-2.4-2.4-2.4c-1.3,0-2.4,1.1-2.4,2.4
			v5.1H3.5C1.6,7.9,0,9.5,0,11.5V96c0,2,1.6,3.5,3.5,3.5c0,0,0,0,0,0h92.9c2,0,3.5-1.6,3.5-3.5l0,0V11.5C100,9.5,98.4,7.9,96.5,7.9z
			 M92.9,92.4H7.1V15h11.6v5.9c0,1.3,1.1,2.4,2.4,2.4c1.3,0,2.4-1.1,2.4-2.4V15h9.1v5.9c0,1.3,1.1,2.4,2.4,2.4s2.4-1.1,2.4-2.4V15
			H63v5.9c0.1,1.3,1.2,2.3,2.5,2.2c1.2-0.1,2.1-1,2.2-2.2V15h9.1v5.9c0,1.3,1.1,2.4,2.4,2.4s2.4-1.1,2.4-2.4V15h11.4V92.4z"/>
	</g>
</g>
</svg>
