<?xml version="1.0" encoding="utf-8"?>
<!-- Generator: Adobe Illustrator 22.0.0, SVG Export Plug-In . SVG Version: 6.00 Build 0)  -->
<svg version="1.1" id="图层_1" xmlns="http://www.w3.org/2000/svg" xmlns:xlink="http://www.w3.org/1999/xlink" x="0px" y="0px"
	 viewBox="0 0 100 100" style="enable-background:new 0 0 100 100;" xml:space="preserve">
<path d="M100,63v32.3c0,2.6-2.1,4.7-4.7,4.7H4.7C2.1,100,0,97.9,0,95.3V63c0-2.6,2.1-4.7,4.7-4.7s4.7,2.1,4.7,4.7v27.6h81.2V63
	c0-2.6,2.1-4.7,4.7-4.7C97.9,58.3,100,60.4,100,63z M24.1,37.3L45.4,16v58c0,2.6,2.1,4.7,4.7,4.7c2.6,0,4.7-2.1,4.7-4.7V16L76,37.3
	c1.8,1.8,4.8,1.8,6.6,0c1.8-1.8,1.8-4.8,0-6.6L53.4,1.4c-1.8-1.8-4.8-1.8-6.6,0l0,0L17.5,30.6c-1.8,1.9-1.7,4.8,0.1,6.6
	S22.3,39,24.1,37.3z"/>
</svg>
