<?xml version="1.0" standalone="no"?><!DOCTYPE svg PUBLIC "-//W3C//DTD SVG 1.1//EN" "http://www.w3.org/Graphics/SVG/1.1/DTD/svg11.dtd"><svg t="1563001349611" class="icon" viewBox="0 0 1024 1024" version="1.1" xmlns="http://www.w3.org/2000/svg" p-id="3492" xmlns:xlink="http://www.w3.org/1999/xlink" width="200" height="200"><defs><style type="text/css"></style></defs><path d="M512 0.006C229.234 0.006 0.006 229.234 0.006 512S229.234 1023.994 512 1023.994 1023.994 794.765 1023.994 512C1023.994 229.234 794.766 0.006 512 0.006z m319.607 831.601c-41.529 41.53-89.874 74.129-143.689 96.892-55.686 23.553-114.873 35.495-175.918 35.495s-120.232-11.942-175.918-35.495c-53.815-22.763-102.16-55.361-143.69-96.892-41.529-41.529-74.128-89.874-96.891-143.689C71.949 632.232 60.006 573.045 60.006 512s11.942-120.232 35.495-175.918c22.762-53.815 55.361-102.16 96.891-143.69s89.875-74.128 143.69-96.891C391.768 71.949 450.955 60.006 512 60.006s120.232 11.942 175.918 35.495c53.815 22.762 102.16 55.361 143.689 96.891 41.53 41.53 74.129 89.875 96.892 143.69 23.553 55.686 35.495 114.873 35.495 175.918s-11.942 120.232-35.495 175.918c-22.763 53.815-55.361 102.16-96.892 143.689z" p-id="3493"></path><path d="M503.959 750.153c-31.507 0-57.034 25.545-57.034 57.035 0 31.505 25.527 57.042 57.034 57.042 31.506 0 57.043-25.537 57.043-57.042 0.001-31.49-25.536-57.035-57.043-57.035zM503.959 155.542c-122.947 13.647-191.251 66.939-204.918 159.824-2.731 30.062 12.291 46.459 45.086 49.184 16.38 2.742 30.044-9.556 40.976-36.886 16.397-57.373 55.963-86.061 118.856-86.061 76.46 5.458 117.446 43.709 122.963 114.748 0 65.581-44.509 76.27-68.688 96.044-30.636 25.066-50.673 50.489-75.199 93.581-20.61 36.206-24.161 113.659-24.161 113.659 0 32.786 14.987 49.185 45.084 49.185 27.277 0 42.353-16.398 45.093-49.185 0 0 3.611-86.922 38.704-125.356 39.776-43.562 134.783-74.102 137.518-186.118-10.93-117.49-84.703-181.696-221.314-192.619z" p-id="3494"></path></svg>