<svg t="1636623981719" class="icon" viewBox="0 0 1024 1024" version="1.1" xmlns="http://www.w3.org/2000/svg" p-id="3199" width="200" height="200"><path d="M448 448 0 448 0 0l448 0L448 448zM384 64 64 64l0 320 320 0L384 64z" p-id="3200"></path><path d="M1024 448 576 448 576 0l448 0L1024 448zM960 64l-320 0 0 320 320 0L960 64z" p-id="3201"></path><path d="M1024 1024 576 1024 576 576l448 0L1024 1024zM960 640l-320 0 0 320 320 0L960 640z" p-id="3202"></path><path d="M448 1024 0 1024 0 576l448 0L448 1024zM384 640 64 640l0 320 320 0L384 640z" p-id="3203"></path></svg>