<?xml version="1.0" standalone="no"?><!DOCTYPE svg PUBLIC "-//W3C//DTD SVG 1.1//EN" "http://www.w3.org/Graphics/SVG/1.1/DTD/svg11.dtd"><svg t="1635901648009" class="icon" viewBox="0 0 1024 1024" version="1.1" xmlns="http://www.w3.org/2000/svg" p-id="5100" xmlns:xlink="http://www.w3.org/1999/xlink" width="200" height="200"><defs><style type="text/css"></style></defs><path d="M512 992C246.912 992 32 777.088 32 512 32 246.912 246.912 32 512 32c265.088 0 480 214.912 480 480 0 265.088-214.912 480-480 480z m0-64c229.76 0 416-186.24 416-416S741.76 96 512 96 96 282.24 96 512s186.24 416 416 416z" p-id="5101"></path><path d="M741.216 344a32 32 0 0 1 46.816 43.616l-315.296 338.208a32 32 0 0 1-43.968 2.688l-193.344-162.368a32 32 0 1 1 41.152-48.992l170.08 142.816 294.56-316z" p-id="5102"></path></svg>