<svg xmlns="http://www.w3.org/2000/svg" xmlns:xlink="http://www.w3.org/1999/xlink" viewBox="0 0 93.85 100"><defs><style>.cls-1{fill:url(#未命名的渐变_2);}.cls-2{fill:url(#未命名的渐变_2-2);}.cls-3{fill:url(#未命名的渐变_2-3);}</style><linearGradient id="未命名的渐变_2" x1="46.92" y1="47.42" x2="46.92" gradientUnits="userSpaceOnUse"><stop offset="0" stop-color="#cd7d29"/><stop offset="1" stop-color="#faac49"/></linearGradient><linearGradient id="未命名的渐变_2-2" x1="46.92" y1="73.71" x2="46.92" y2="40.43" xlink:href="#未命名的渐变_2"/><linearGradient id="未命名的渐变_2-3" x1="46.92" y1="100" x2="46.92" y2="67.04" xlink:href="#未命名的渐变_2"/></defs><title>资源 1</title><g id="图层_2" data-name="图层 2"><g id="图层_1-2" data-name="图层 1"><path class="cls-1" d="M0,23.71C0,32.18,9,40,23.47,44.24a88.13,88.13,0,0,0,46.92,0C84.91,40,93.85,32.18,93.85,23.71,93.85,10.62,72.83,0,46.92,0S0,10.62,0,23.71Z"/><path class="cls-2" d="M46.92,54.55c-19.16,0-35.64-5.8-42.93-14.12A14.5,14.5,0,0,0,0,50C0,63.1,21,73.71,46.92,73.71S93.85,63.1,93.85,50a14.5,14.5,0,0,0-4-9.57C82.57,48.75,66.09,54.55,46.92,54.55Z"/><path class="cls-3" d="M46.92,81.49C27.51,81.49,10.85,75.54,3.71,67A14.35,14.35,0,0,0,0,76.3C0,89.39,21,100,46.92,100S93.85,89.39,93.85,76.29A14.35,14.35,0,0,0,90.14,67C83,75.54,66.34,81.49,46.92,81.49Z"/></g></g></svg>