<svg id="图层_1" data-name="图层 1" xmlns="http://www.w3.org/2000/svg" viewBox="0 0 680 680"><defs><style></style></defs><title>ziyuan</title><path class="cls-1" d="M1024.51-256c-187.77,0-340,152.22-340,340s152.23,340,340,340,340-152.22,340-340S1212.29-256,1024.51-256ZM1256-27.25h-18q-4.83,0-10.42,5.59T1222-11.48V212.18c0,3,1.82,6.21,5.47,9.52s7.15,5,10.54,5h18v53H1093v-53H1127V-8.45h-1.45l-79.73,288.1H984.08L905.38-8.45h-2V226.66h34.27v53H801v-53H818.5q5.32,0,10.91-5c3.73-3.31,5.59-6.47,5.59-9.52V-11.55q0-4.57-5.59-10.19T818.5-27.32H801v-53H971.65l56.1,208.42h1.53L1085.9-80.3H1256Z" transform="translate(-684.51 256)"/></svg>