<svg xmlns="http://www.w3.org/2000/svg" viewBox="0 0 28 28" width="28" height="28"><path d="M17 11v6h3v-6h-3zm-.5-1h4a.5.5 0 0 1 .5.5v7a.5.5 0 0 1-.5.5h-4a.5.5 0 0 1-.5-.5v-7a.5.5 0 0 1 .5-.5z"></path><path d="M18 7h1v3.5h-1zm0 10.5h1V21h-1z"></path><path d="M9 8v11h3V8H9zm-.5-1h4a.5.5 0 0 1 .5.5v12a.5.5 0 0 1-.5.5h-4a.5.5 0 0 1-.5-.5v-12a.5.5 0 0 1 .5-.5z"></path><path d="M10 4h1v5h-1zm0 14h1v5h-1zM8.5 9H10v1H8.5zM11 9h1.5v1H11zm-1 1h1v1h-1zm-1.5 1H10v1H8.5zm2.5 0h1.5v1H11zm-1 1h1v1h-1zm-1.5 1H10v1H8.5zm2.5 0h1.5v1H11zm-1 1h1v1h-1zm-1.5 1H10v1H8.5zm2.5 0h1.5v1H11zm-1 1h1v1h-1zm-1.5 1H10v1H8.5zm2.5 0h1.5v1H11z"></path></svg>