<?xml version="1.0" encoding="utf-8"?>
<!-- Generator: Adobe Illustrator 22.0.0, SVG Export Plug-In . SVG Version: 6.00 Build 0)  -->
<svg version="1.1" id="图层_1" xmlns="http://www.w3.org/2000/svg" xmlns:xlink="http://www.w3.org/1999/xlink" x="0px" y="0px"
	 width="100px" height="100px" viewBox="0 0 100 100" style="enable-background:new 0 0 100 100;" xml:space="preserve">
<style type="text/css">
	.st0{clip-path:url(#SVGID_2_);}
	.st1{fill:url(#SVGID_3_);}
	.st2{fill:#00A0E9;}
	.st3{clip-path:url(#SVGID_5_);}
	.st4{fill:url(#SVGID_6_);}
	.st5{clip-path:url(#SVGID_8_);}
	.st6{fill:url(#SVGID_9_);}
	.st7{clip-path:url(#SVGID_11_);}
	.st8{fill:url(#SVGID_12_);}
	.st9{clip-path:url(#SVGID_14_);}
	.st10{fill:url(#SVGID_15_);}
	.st11{clip-path:url(#SVGID_17_);}
	.st12{fill:url(#SVGID_18_);}
	.st13{fill:#1D2088;}
</style>
<title>byb-logo</title>
<g id="图层_2_1_">
	<g id="图层_1-2">
		<g>
			<defs>
				<polygon id="SVGID_1_" points="61.3,46.7 69.2,38 51,0 51,46.7 				"/>
			</defs>
			<clipPath id="SVGID_2_">
				<use xlink:href="#SVGID_1_"  style="overflow:visible;"/>
			</clipPath>
			<g class="st0">
				
					<linearGradient id="SVGID_3_" gradientUnits="userSpaceOnUse" x1="-86.0789" y1="-45.1295" x2="-85.4089" y2="-45.1295" gradientTransform="matrix(11.4346 94.4906 58.9102 -7.1289 3698.8367 7801.6714)">
					<stop  offset="0" style="stop-color:#1D2088"/>
					<stop  offset="0.35" style="stop-color:#00A0E9"/>
					<stop  offset="1" style="stop-color:#FFFFFF"/>
				</linearGradient>
				<polygon class="st1" points="45.3,0.8 68.9,-2.1 74.8,46.1 51.1,49 				"/>
			</g>
		</g>
		<polygon class="st2" points="69.8,39.4 63.2,46.7 73.3,46.7 		"/>
		<g>
			<defs>
				<polygon id="SVGID_4_" points="63.2,48.2 69.8,55.4 73.3,48.2 				"/>
			</defs>
			<clipPath id="SVGID_5_">
				<use xlink:href="#SVGID_4_"  style="overflow:visible;"/>
			</clipPath>
			<g class="st3">
				
					<linearGradient id="SVGID_6_" gradientUnits="userSpaceOnUse" x1="-85.4353" y1="-50.9402" x2="-84.7553" y2="-50.9402" gradientTransform="matrix(-1.2265 -33.4475 -21.4056 0.7849 -1126.4532 -2755.1602)">
					<stop  offset="0" style="stop-color:#1D2088"/>
					<stop  offset="1" style="stop-color:#00A0E9"/>
				</linearGradient>
				<polygon class="st4" points="63.1,48.2 73.4,47.9 73.6,55.5 63.3,55.8 				"/>
			</g>
		</g>
		<g>
			<defs>
				<polygon id="SVGID_7_" points="69.2,56.8 61.3,48.2 51,48.2 51,94.9 				"/>
			</defs>
			<clipPath id="SVGID_8_">
				<use xlink:href="#SVGID_7_"  style="overflow:visible;"/>
			</clipPath>
			<g class="st5">
				
					<linearGradient id="SVGID_9_" gradientUnits="userSpaceOnUse" x1="-86.1816" y1="-47.4317" x2="-85.7116" y2="-47.4317" gradientTransform="matrix(-73.6516 -128.084 -104.409 60.0379 -11235.5586 -8112.2661)">
					<stop  offset="0" style="stop-color:#00A0E9"/>
					<stop  offset="1" style="stop-color:#FFFFFF"/>
				</linearGradient>
				<polygon class="st6" points="30.8,59.7 64.7,40.2 89.4,83.2 55.5,102.7 				"/>
			</g>
		</g>
		<g>
			<defs>
				<polygon id="SVGID_10_" points="35.2,65.1 35.2,29.7 26.7,47.4 				"/>
			</defs>
			<clipPath id="SVGID_11_">
				<use xlink:href="#SVGID_10_"  style="overflow:visible;"/>
			</clipPath>
			<g class="st7">
				
					<linearGradient id="SVGID_12_" gradientUnits="userSpaceOnUse" x1="-83.7638" y1="-46.53" x2="-83.1638" y2="-46.53" gradientTransform="matrix(48.3508 -7.5715 -9.5302 -60.8583 3627.7502 -3416.9795)">
					<stop  offset="0" style="stop-color:#00A0E9"/>
					<stop  offset="1" style="stop-color:#FFFFFF"/>
				</linearGradient>
				<polygon class="st8" points="21.3,30.6 35,28.5 40.6,64.3 26.9,66.4 				"/>
			</g>
		</g>
		<g>
			<defs>
				<polygon id="SVGID_13_" points="36.7,48.2 36.7,68.2 49.5,94.8 49.5,48.2 				"/>
			</defs>
			<clipPath id="SVGID_14_">
				<use xlink:href="#SVGID_13_"  style="overflow:visible;"/>
			</clipPath>
			<g class="st9">
				
					<linearGradient id="SVGID_15_" gradientUnits="userSpaceOnUse" x1="-85.2383" y1="-48.4757" x2="-84.5383" y2="-48.4757" gradientTransform="matrix(25.2552 -75.0443 -45.4265 -15.2877 -16.038 -7037.3032)">
					<stop  offset="0" style="stop-color:#00A0E9"/>
					<stop  offset="1" style="stop-color:#FFFFFF"/>
				</linearGradient>
				<polygon class="st10" points="22.5,90.1 37.9,44.3 63.6,52.9 48.2,98.7 				"/>
			</g>
		</g>
		<g>
			<defs>
				<polygon id="SVGID_16_" points="36.7,26.7 36.7,46.7 49.5,46.7 49.5,0 				"/>
			</defs>
			<clipPath id="SVGID_17_">
				<use xlink:href="#SVGID_16_"  style="overflow:visible;"/>
			</clipPath>
			<g class="st11">
				
					<linearGradient id="SVGID_18_" gradientUnits="userSpaceOnUse" x1="-86.0527" y1="-44.1596" x2="-85.3627" y2="-44.1596" gradientTransform="matrix(9.1392 134.0588 40.1368 -2.7363 2597.3135 11371.1348)">
					<stop  offset="0" style="stop-color:#1D2088"/>
					<stop  offset="0.35" style="stop-color:#00A0E9"/>
					<stop  offset="1" style="stop-color:#FFFFFF"/>
				</linearGradient>
				<polygon class="st12" points="33.4,0.3 49.4,-0.8 52.6,46.5 36.7,47.6 				"/>
			</g>
		</g>
		<polygon class="st13" points="26.7,47.4 50.4,100 73.3,48.2 50.4,96.5 		"/>
	</g>
</g>
</svg>
