<?xml version="1.0" standalone="no"?><!DOCTYPE svg PUBLIC "-//W3C//DTD SVG 1.1//EN" "http://www.w3.org/Graphics/SVG/1.1/DTD/svg11.dtd"><svg t="1561518821272" class="icon" viewBox="0 0 1024 1024" version="1.1" xmlns="http://www.w3.org/2000/svg" p-id="2520" xmlns:xlink="http://www.w3.org/1999/xlink" width="200" height="200"><defs><style type="text/css"></style></defs><path d="M444.58034998 309.80516673c9.31358834 0 17.26276527 3.29732647 23.82775732 9.78816585 6.61937049 6.68857977 9.89197942 14.51911231 9.89197942 23.89202248v67.35543407h67.42958671c9.31358834 0 17.23310436 3.2923831 23.84753146 9.98590696 6.56004866 6.59465294 9.87714932 14.5240564 9.8771486 23.79315231 0 9.26909662-3.31710066 17.30231363-9.8771486 23.79315228-6.61442712 6.58970958-14.53394314 9.88703605-23.84753146 9.88703679h-67.42958671v67.45430425c0 9.26909662-3.27260892 17.20344271-9.89692351 23.89696658-6.56004866 6.48589603-14.50922558 9.88703605-23.82281323 9.88703605-9.29875753 0-17.26276527-3.40114076-23.82281391-9.88703605-6.62431458-6.69846723-9.8969235-14.62786996-9.89692351-23.89696658V478.30003747h-67.42958671c-9.31358834 0-17.23310436-3.29732647-23.84258739-9.88703679-6.56004866-6.49083938-9.87714932-14.5240564-9.87714933-23.79315228 0-9.26909662 3.31215729-17.20344271 9.87714933-23.79315231 6.60948377-6.69352312 14.53394314-9.98590625 23.84258739-9.98590696h67.42958671V343.48535506c0-9.37291018 3.27755228-17.20344271 9.89692351-23.89696584 6.56004866-6.48589603 14.5240564-9.7832225 23.82775729-9.7832225z m0-101.13449333c-31.96973123 0-62.47618159 6.17939726-91.63305129 18.63706342-29.15686974 12.4626088-54.24522418 29.25079657-75.32932853 50.36456256-21.0593868 21.0099517-37.81791365 46.14279787-50.31512745 75.28978014-12.45272208 29.14203892-18.69144189 59.73252936-18.69144189 91.65776888s6.23871981 62.51572995 18.69144189 91.66271223c12.4972138 29.04316872 29.25079657 54.17107153 50.31512745 75.28483752 21.08410434 21.0099517 46.17245879 37.79813946 75.32932853 50.25580489a230.69915857 230.69915857 0 0 0 91.63305129 18.74582036 230.6645543 230.6645543 0 0 0 91.63305134-18.74087699c29.16675646-12.4626088 54.25016755-29.25079657 75.32932852-50.26074826 21.06433088-21.11376599 37.83274374-46.24166806 50.29535255-75.28978089 12.47249626-29.14203892 18.71121607-59.73252936 18.71121606-91.65776886s-6.23871981-62.51572995-18.71121606-91.66271223c-12.4626088-29.14203892-29.23102238-54.2748851-50.29535255-75.28483679-21.07916097-21.1088219-46.15762871-37.89700965-75.32932852-50.3596192-29.15686974-12.4626088-59.65343262-18.64200679-91.63305134-18.64200678z m0-67.45924762c41.10535267 0 80.3568863 8.03321702 117.84852773 24.09965034 37.47186724 16.06643404 69.70360479 37.59051161 96.76936601 64.67604774 27.06081786 26.98666522 48.58489543 59.22334684 64.631556 96.71004418 16.03677241 37.48669734 24.09965033 76.72340087 24.09965034 117.8188668 0 35.32638027-5.74436812 69.11038289-17.22816027 101.44593473-11.51839716 32.23173827-27.88144177 61.5863484-49.13856968 87.84631578l191.43279413 191.25482792c6.52050031 6.49083938 9.74367413 14.42024212 9.74367412 23.89696658 0 9.67940821-3.20339964 17.71262524-9.60031219 24.19852126-6.41668674 6.38702511-14.43507293 9.58053802-24.08976361 9.58053801-9.48661118 0-17.4901673-3.29732647-23.96617585-9.78816587l-191.2103362-191.45256829c-26.32423404 21.31644973-55.65412661 37.69432517-87.94518671 49.12373886-32.2910601 11.53817134-66.07011937 17.30231363-101.36683799 17.30231363-41.0806351 0-80.38654793-8.03321702-117.83369762-24.09965105-37.46197978-16.06643404-69.7184356-37.69432517-96.77431008-64.67604703-27.04598776-27.09047876-48.59478289-59.22334684-64.64144203-96.71004417C149.2545795 524.95201713 141.23619257 485.61150076 141.21147503 444.51603484c-0.01977419-40.98670828 8.02332956-80.33216873 24.09965105-117.8188668 16.06643404-37.38782714 37.63500335-69.72337897 64.64144203-96.71004418 27.02621357-27.0855354 59.27278195-48.60961371 96.77431008-64.67604774C364.22346298 149.343513 403.49971416 141.21142578 444.56057582 141.21142578h0.01977416z" p-id="2521"></path></svg>