<?xml version="1.0" standalone="no"?><!DOCTYPE svg PUBLIC "-//W3C//DTD SVG 1.1//EN" "http://www.w3.org/Graphics/SVG/1.1/DTD/svg11.dtd"><svg t="1559441962678" class="icon" style="" viewBox="0 0 1024 1024" version="1.1" xmlns="http://www.w3.org/2000/svg" p-id="1883" xmlns:xlink="http://www.w3.org/1999/xlink" width="400" height="400"><defs><style type="text/css"></style></defs><path d="M512 895.437122c-211.426875 0-383.434784-172.007909-383.434784-383.434784s172.007909-383.434784 383.434784-383.434784 383.434784 172.007909 383.434784 383.434784-172.012585 383.434784-383.434784 383.434784z m0-720.109229c-185.643224 0-336.674445 151.031221-336.674445 336.674445 0 185.6479 151.031221 336.674445 336.674445 336.674445s336.674445-151.031221 336.674445-336.674445c0-185.6479-151.031221-336.674445-336.674445-336.674445z" fill="#F5A623" p-id="1884"></path><path d="M511.406144 607.398107c-11.835042 0-21.893191-5.260538-30.183799-15.837727-8.285932-10.553809-12.424222-23.038819-12.424223-37.436328V319.429232c0-14.397509 4.13829-26.863815 12.424223-37.436328 8.285932-10.549133 18.348757-15.837727 30.183799-15.837727 11.839718 0 22.089584 5.288594 30.772979 15.837727 8.674043 10.577189 13.022755 23.038819 13.022755 37.436328v234.699496c0 14.397509-4.348712 26.882519-13.022755 37.436328-8.688071 10.572513-18.933261 15.833051-30.772979 15.833051zM453.601012 700.250113c0-16.006064 5.597213-29.856477 16.796314-41.597998 11.203777-11.722817 24.80636-17.600592 40.807748-17.600592 15.996712 0 29.842449 5.877775 41.597998 17.600592 11.718141 11.746197 17.600592 25.59661 17.600592 41.597998 0 15.996712-5.882451 29.594619-17.600592 40.798396-11.755549 11.203777-25.601286 16.805666-41.597998 16.805666-16.001388 0-29.603971-5.597213-40.807748-16.805666-11.199101-11.203777-16.796314-24.801684-16.796314-40.798396z" fill="#F5A623" p-id="1885"></path></svg>