<?xml version="1.0" encoding="utf-8"?>
<!-- Generator: Adobe Illustrator 22.0.0, SVG Export Plug-In . SVG Version: 6.00 Build 0)  -->
<svg xmlns="http://www.w3.org/2000/svg" xmlns:xlink="http://www.w3.org/1999/xlink" id="icon-yingguoGBR" viewBox="0 0 1024 1024" width="100%" height="100%"><path d="M742.4 160H0v704h1024V160H742.4z" fill="#FFFFFF"></path><path d="M633.904 160H945.6L633.904 370.272zM1024 224.784v164.624H779.936zM390.096 864H76.32l313.776-211.648zM0 797.84V633.216h244.064zM390.096 160v210.272L78.4 160zM0 224.784l244.064 164.624H0z m1024 573.056L779.936 633.216H1024zM633.904 864V652.352L947.68 864z" fill="#0A17A7"></path><path d="M990.656 160H1024v7.248L689.408 387.36a12.192 12.192 0 1 1-13.392-20.368zM1024 853.168L725.424 656.752a12.192 12.192 0 0 1 13.392-20.368L1024 824zM0 193.776v-29.408l299.584 201.904a12.192 12.192 0 1 1-13.632 20.224zM33.856 864H0v-6.592l332.8-224.32a12.192 12.192 0 0 1 13.632 20.224zM0 584.464v-146.288h438.864V160h146.288v278.176H1024v146.288H585.136V864h-146.272V584.464z" fill="#DB1F35"></path></svg>