<?xml version="1.0" encoding="utf-8"?>
<!-- Generator: Adobe Illustrator 22.0.0, SVG Export Plug-In . SVG Version: 6.00 Build 0)  -->
<svg version="1.1" id="图层_1" xmlns="http://www.w3.org/2000/svg" xmlns:xlink="http://www.w3.org/1999/xlink" x="0px" y="0px"
	 viewBox="0 0 100 100" style="enable-background:new 0 0 100 100;" xml:space="preserve">
<style type="text/css">
	.st0{fill:#C9A96E;}
</style>
<g>
	<path class="st0" d="M87.5,72.5c0.9,0,1.8,0.2,2.7,0.7c-3.1-2-5.2-5.5-5.2-9.5V41.5c0-16.3-11.8-29.9-27.5-33.2V7.5
		C57.5,3.3,54.1,0,50,0s-7.5,3.4-7.5,7.5v0.8C26.8,11.6,15,25.2,15,41.5v22.2c0,4-2.1,7.5-5.2,9.5c0.9-0.6,1.8-0.8,2.7-0.7
		c-2.8,0-5,2.2-5,5c0,2.8,2.2,5,5,5h75c2.8,0,5-2.2,5-5C92.5,74.7,90.3,72.5,87.5,72.5z M50,100c6.9,0,12.5-5.6,12.5-12.5h-25
		C37.5,94.4,43.1,100,50,100z"/>
</g>
</svg>
