<?xml version="1.0" standalone="no"?><!DOCTYPE svg PUBLIC "-//W3C//DTD SVG 1.1//EN" "http://www.w3.org/Graphics/SVG/1.1/DTD/svg11.dtd"><svg t="1544161143095" class="icon" style="" viewBox="0 0 1024 1024" version="1.1" xmlns="http://www.w3.org/2000/svg" p-id="1588" xmlns:xlink="http://www.w3.org/1999/xlink" width="100" height="100"><defs><style type="text/css"></style></defs><path d="M512 224a508.48 508.48 0 0 1 444.16 272.64 32 32 0 0 1 0 32A508.48 508.48 0 0 1 512 800a508.48 508.48 0 0 1-444.16-272.64 32 32 0 0 1 0-32A508.48 508.48 0 0 1 512 224z m0 64a442.24 442.24 0 0 0-379.2 224A442.24 442.24 0 0 0 512 736a442.24 442.24 0 0 0 379.2-224A442.24 442.24 0 0 0 512 288z" p-id="1589"></path><path d="M640 512a128 128 0 1 1-128-128 128 128 0 0 1 128 128" p-id="1590"></path></svg>