<svg xmlns="http://www.w3.org/2000/svg" viewBox="0 0 80.4 100"><defs><style>.cls-1{fill:#d7d7d7;}</style></defs><title>jsq</title><g id="图层_2" data-name="图层 2"><g id="图层_1-2" data-name="图层 1"><path class="cls-1" d="M76.4,0H4A4.3,4.3,0,0,0,0,4.5v91A4.3,4.3,0,0,0,4,100H76.4a4.3,4.3,0,0,0,4-4.5V4.5a4.3,4.3,0,0,0-4-4.5ZM23.9,88a3.2,3.2,0,0,1-3,3.3H11.7a3.2,3.2,0,0,1-3-3.3V81.5a3.2,3.2,0,0,1,3-3.3h9.2a3.2,3.2,0,0,1,3,3.3V88Zm0-19.5a3.2,3.2,0,0,1-3,3.2H11.7a3.2,3.2,0,0,1-3-3.2V62a3.2,3.2,0,0,1,3-3.3h9.2a3.2,3.2,0,0,1,3,3.3v6.5Zm0-19.6a3.2,3.2,0,0,1-3,3.3H11.7a3.2,3.2,0,0,1-3-3.3V42.4a3.2,3.2,0,0,1,3-3.3h9.2a3.2,3.2,0,0,1,3,3.3v6.5ZM47.8,88a3.1,3.1,0,0,1-3,3.3H35.7A3.2,3.2,0,0,1,32.6,88V81.5a3.2,3.2,0,0,1,3.1-3.3h9.1a3.1,3.1,0,0,1,3,3.3V88Zm0-19.5a3.1,3.1,0,0,1-3,3.2H35.7a3.2,3.2,0,0,1-3.1-3.2V62a3.2,3.2,0,0,1,3.1-3.3h9.1a3.1,3.1,0,0,1,3,3.3v6.5Zm0-19.6a3.1,3.1,0,0,1-3,3.3H35.7a3.2,3.2,0,0,1-3.1-3.3V42.4a3.2,3.2,0,0,1,3.1-3.3h9.1a3.1,3.1,0,0,1,3,3.3v6.5ZM71.7,88a3.1,3.1,0,0,1-3,3.3H59.6A3.2,3.2,0,0,1,56.5,88V81.5a3.2,3.2,0,0,1,3.1-3.3h9.1a3.1,3.1,0,0,1,3,3.3V88Zm0-19.5a3.1,3.1,0,0,1-3,3.2H59.6a3.2,3.2,0,0,1-3.1-3.2V62a3.2,3.2,0,0,1,3.1-3.3h9.1a3.1,3.1,0,0,1,3,3.3v6.5Zm0-19.6a3.1,3.1,0,0,1-3,3.3H59.6a3.2,3.2,0,0,1-3.1-3.3V42.4a3.2,3.2,0,0,1,3.1-3.3h9.1a3.1,3.1,0,0,1,3,3.3v6.5Zm0-20.6a4.3,4.3,0,0,1-4.3,4.3H13a4.3,4.3,0,0,1-4.3-4.3V10.9A4.4,4.4,0,0,1,13,6.5H67.4a4.4,4.4,0,0,1,4.3,4.4V28.3Z"/></g></g></svg>