<?xml version="1.0" encoding="utf-8"?>
<!-- Generator: Adobe Illustrator 22.1.0, SVG Export Plug-In . SVG Version: 6.00 Build 0)  -->
<svg version="1.1" id="图层_1" xmlns="http://www.w3.org/2000/svg" xmlns:xlink="http://www.w3.org/1999/xlink" x="0px" y="0px"
	 viewBox="0 0 100 100" style="enable-background:new 0 0 100 100;" xml:space="preserve">
<style type="text/css">
	.st0{fill:#DB4749;}
</style>
<path class="st0" d="M50,0C22.4,0,0,22.4,0,50c0,27.6,22.4,50,50,50s50-22.4,50-50C100,22.4,77.6,0,50,0L50,0z M72.9,64.1
	c0.8,0.8,0.8,2,0,2.8l-6.1,6.1c-0.8,0.8-2,0.8-2.8,0L50,58.8L35.9,72.9c-0.8,0.8-2,0.8-2.8,0l-6.1-6.1c-0.8-0.8-0.8-2,0-2.8L41.2,50
	L27.1,35.9c-0.8-0.8-0.8-2,0-2.8l6.1-6.1c0.8-0.8,2-0.8,2.8,0L50,41.2l14.1-14.1c0.8-0.8,2-0.8,2.8,0l6.1,6.1c0.8,0.8,0.8,2,0,2.8
	L58.8,50L72.9,64.1L72.9,64.1z"/>
</svg>
