<?xml version="1.0" standalone="no"?><!DOCTYPE svg PUBLIC "-//W3C//DTD SVG 1.1//EN" "http://www.w3.org/Graphics/SVG/1.1/DTD/svg11.dtd"><svg t="1536248128741" class="icon" style="" viewBox="0 0 1024 1024" version="1.1" xmlns="http://www.w3.org/2000/svg" p-id="4425" xmlns:xlink="http://www.w3.org/1999/xlink" width="200" height="200"><defs><style type="text/css"></style></defs><path d="M512 1024c-145.408-3.072-266.24-53.248-362.496-149.504S3.072 657.408 0 512c3.072-145.408 53.248-266.24 149.504-362.496S366.592 3.072 512 0c145.408 3.072 266.24 53.248 362.496 149.504S1020.928 366.592 1024 512c-3.072 145.408-53.248 266.24-149.504 362.496S657.408 1020.928 512 1024z m312.32-805.888C727.04 282.624 644.096 348.16 575.488 415.744S456.704 536.576 424.96 577.536c-51.2-41.984-116.736-95.232-154.624-126.976-17.408 14.336-52.224 43.008-68.608 58.368 66.56 71.68 200.704 214.016 268.288 284.672 24.576-65.536 70.656-148.48 136.192-249.856s144.384-196.608 235.52-286.72c-6.144-13.312-13.312-29.696-17.408-38.912z" p-id="4426"></path></svg>