<?xml version="1.0" encoding="utf-8"?>
<!-- Generator: Adobe Illustrator 22.1.0, SVG Export Plug-In . SVG Version: 6.00 Build 0)  -->
<svg version="1.1" id="图层_1" xmlns="http://www.w3.org/2000/svg" xmlns:xlink="http://www.w3.org/1999/xlink" x="0px" y="0px"
	 viewBox="0 0 100 100" style="enable-background:new 0 0 100 100;" xml:space="preserve">
<style type="text/css">
	.st0{fill:#FFCA05;}
</style>
<g>
	<path class="st0" d="M46.1,24.2c-0.1,2.3,1.4,3.8,4.8,4.6v-9.1C47.8,20,46.3,21.6,46.1,24.2z"/>
	<path class="st0" d="M53.5,33.1V43c3.3-0.2,5.1-2,5.2-5.1C58.8,35.6,57.1,34,53.5,33.1z"/>
	<path class="st0" d="M99.4,8.5c-0.6-4-2.5-6.4-6.4-6.8c-3.6-0.4-12.5,0.9-12.5,0.9l-0.6-2.3l-56-0.2l-1.1,1.9c0,0-7.2-0.9-11.4-0.4
		c-3,0.4-5.1,1.5-6.2,4.7c-4.9,13.6,5.3,39.9,18.7,44.9c8.7,3.2,13.4,10.2,19.5,15.7c4.5,4,5.3,10.2,4.2,16.7
		C46.2,91.8,40,95.1,33,99.8h39.9c-15.1-9.5-19.1-18.6-14-29.3c3.8-7.2,9.8-13.3,16.8-17C93,44.1,102.4,27.3,99.4,8.5z M25.2,45.6
		c-1.9,0.8-3.6-0.6-4.9-1.9c-8-7.4-10-17-11.2-26.7c0.4-5.7,0.4-11,7.6-11c8-0.4,6.8,5.5,6.8,10.4c0,8.1,0.8,16.3,2.5,24.2
		C26.3,42.4,27.5,44.5,25.2,45.6z M62.8,37.9c-0.2,5.3-3.4,8-9.5,8.4V50h-2.5v-3.7C45.2,45.9,42,42.8,41,37l3.9-1.1
		c0.5,4.3,2.3,6.7,6,7V32.5c-6.3-1.1-9.2-3.9-9-8.4c0.4-4.9,3.2-7.5,9-7.9v-3.3h2.5v3.3c4.8,0.5,7.6,3.1,8.6,7.8l-3.7,1.1
		c-0.6-3.1-2.3-4.8-4.9-5.3v9.6C60,31.1,63.1,34,62.8,37.9z M77.6,45.8c3.4-11.7,3.6-23.3,3.6-34.8c0-2.7,1.3-4.7,4.4-5.1
		c3.2-0.4,6.2-0.4,8.3,2.8C100.2,18.2,90.7,41.9,77.6,45.8z"/>
</g>
</svg>
