<?xml version="1.0" standalone="no"?><!DOCTYPE svg PUBLIC "-//W3C//DTD SVG 1.1//EN" "http://www.w3.org/Graphics/SVG/1.1/DTD/svg11.dtd">
<svg t="1559022720728" class="icon" style="" viewBox="0 0 1024 1024" version="1.1" xmlns="http://www.w3.org/2000/svg" p-id="1216" xmlns:xlink="http://www.w3.org/1999/xlink" width="200" height="200">
<defs>
<style type="text/css">
</style>
</defs>
<path fill="#ffa500"  d="M614.26346667 629.39932445h45.69770666v45.40757333H614.26346667v-45.40757333zM727.19928889 629.39932445h45.69884444v45.40757333H727.19928889v-45.40757333z"  p-id="1217">
</path>
<path fill="#ffa500"  d="M512 1.87278222c-281.03111111 0-508.84949333 227.81724445-508.84949333 508.84835556 0 281.02997333 227.81952 508.85063111 508.84835555 508.85063111 281.03111111 0 508.84835555-227.82065778 508.84835556-508.85063111 0-281.03111111-227.81724445-508.84835555-508.84835556-508.84835556zM827.32828445 706.24142222s-2.13447111 41.33319111-43.07968 47.15406223H243.82236445s-32.40504889-1.94104889-38.8096-43.85564445l-1.20149334-248.96398222h623.51815111V706.24142222z m0-401.97233777v76.26069333l-623.51815112-0.3072 1.20149334-78.28252445c6.69468445-33.47342222 39.00416-34.34609778 39.00416-34.34609778h538.48746666c45.40643555 4.65692445 44.82503111 36.67512889 44.82503112 36.6751289z"  p-id="1218"></path>
<path  fill="#ffa500" d="M670.44010667 629.39932445h45.69884444v45.40757333h-45.69884444v-45.40757333z"  p-id="1219"></path></svg>