<?xml version="1.0" encoding="UTF-8"?>
<svg width="105px" height="97px" viewBox="0 0 105 97" version="1.1" xmlns="http://www.w3.org/2000/svg" xmlns:xlink="http://www.w3.org/1999/xlink">
    <!-- Generator: Sketch 53.2 (72643) - https://sketchapp.com -->
    <title>分组 3</title>
    <desc>Created with Sketch.</desc>
    <g id="星球公约" stroke="none" stroke-width="1" fill="none" fill-rule="evenodd">
        <g id="分组-3">
            <g id="编组-copy" transform="translate(0.000000, 0.000000)">
                <path d="M80.2550093,52.7239454 C77.6114789,53.1600883 74.8017224,53.537002 71.8561253,53.8457122 C65.9988913,54.4613378 59.6197432,54.8131238 52.9474653,54.8400462 L52.9474653,54.8472256 L51.2423078,54.8472256 L51.2423078,54.8400462 C44.5718173,54.8131238 38.1908818,54.4613378 32.3336478,53.847507 C29.4523962,53.5441813 26.6998358,53.1762418 24.1081394,52.7526626 C24.1474616,52.7939436 24.1939334,52.8334298 24.24398,52.8693264 C26.6980485,54.594155 30.0082704,56.0371957 33.876154,57.1266556 C34.6143407,57.3330607 35.3829127,57.5322865 36.1782954,57.7171537 C40.9881266,58.8425101 46.5146959,59.465315 52.2521757,59.465315 L52.2521757,59.4689047 L52.2557505,59.4689047 C60.3561425,59.4689047 68.0543747,58.2268845 73.9169709,56.065913 C75.0662542,55.6441287 76.1494046,55.184653 77.1503356,54.6910756 C78.1476919,54.1992931 79.0699784,53.6734088 79.9046834,53.1152176 C79.9154077,53.1080383 79.9261319,53.100859 79.9386436,53.0918849 L79.9404309,53.0900901 C80.0798463,52.9931694 80.187089,52.8657367 80.2550093,52.7239454 L80.2550093,52.7239454 Z M31.8885909,8.17095859 C26.705198,13.2126272 23.4879196,20.1711709 23.4879196,27.829697 L23.4825574,27.829697 L23.4825574,27.829697 L23.4825574,32.9395691 C23.4825574,32.9718759 23.4861322,33.0059777 23.489707,33.0382845 L23.4879196,33.1118724 L23.4825574,33.1118724 L23.4825574,33.1136673 L23.4825574,33.1136673 L23.4879196,33.1136673 C23.489707,35.3572008 26.8678493,37.252538 32.330073,38.5017375 C35.697491,39.2717182 40.4787242,39.8819593 45.1991865,40.1799006 L45.1991865,38.2971272 C40.6467376,38.0027756 36.0192189,37.4104827 32.7679803,36.6674244 C28.2280431,35.6282197 25.420074,34.3628668 25.4182866,33.1136673 L25.4236487,33.1136673 C25.4236487,27.1548421 78.764337,25.6759048 78.7696991,33.1118724 L78.7661243,33.1136673 C78.7661243,34.9731079 72.7122788,36.371278 71.418218,36.6674244 C66.4779083,37.7981653 59.6483412,38.4981478 52.102036,38.4981478 L52.102036,38.4945582 L52.0948865,38.4945582 L52.0895244,38.4945582 L52.0895244,38.4981478 C49.7087384,38.4981478 47.4012349,38.4281496 45.1991865,38.2971272 L45.1991865,40.1799006 C47.4048096,40.3091281 49.7123132,40.3773315 52.0895244,40.3773315 L52.0895244,40.3809212 L52.0948865,40.3809212 L52.102036,40.3809212 L52.102036,40.3773315 C59.8109925,40.3773315 66.7978487,39.6594008 71.8579127,38.5017375 C77.3183491,37.252538 80.7000661,35.3572008 80.7000661,33.1136673 L80.7036409,33.1136673 L80.7036409,33.1136673 L80.7036409,33.1118724 L80.7000661,33.1118724 C80.7000661,32.878545 80.7036409,32.6541916 80.7036409,32.4280434 L80.7036409,27.829697 L80.7036409,27.8279022 L80.7000661,27.8279022 C80.7000661,20.1711709 77.4827877,13.2126272 72.3011822,8.17095859 C61.0782427,-2.74697312 43.0632712,-2.70030762 31.8885909,8.17095859 L31.8885909,8.17095859 Z M65.7987051,10.6226921 C65.3840336,10.3085974 65.3036017,9.72886829 65.6199674,9.31785294 C65.9542069,8.88350485 66.5297422,8.83504452 66.9730117,9.13119095 C67.0999154,9.22631677 67.2268192,9.3214426 67.3501482,9.4219529 C67.4270054,9.48118218 67.5467597,9.57810283 67.7058362,9.70733037 C68.3224812,10.2134715 68.9051661,10.7393558 69.4521034,11.2831883 C69.8238778,11.6547175 69.8149409,12.2506 69.4324423,12.613155 C69.0499436,12.9757101 68.4368733,12.9667359 68.065099,12.5952068 C67.5467597,12.0782966 67.0105466,11.5954882 66.4636093,11.1449867 C66.3939016,11.089347 66.2848716,11.0031954 66.1311572,10.8811471 C66.0042534,10.7806368 65.893436,10.6944851 65.7987051,10.6226921 L65.7987051,10.6226921 Z M64.152531,7.28431413 C64.6154616,7.54276919 64.7745381,8.11890861 64.5100063,8.56761532 C64.2436872,9.01811686 63.6538528,9.17247197 63.1909222,8.9140169 C55.891275,4.82540135 46.752417,5.13411156 39.7119395,9.71271485 C39.0148625,10.1686009 38.3499583,10.6532041 37.722589,11.1683194 C37.105944,11.6708709 36.5125349,12.2129086 35.9423617,12.7944325 L35.9316374,12.8052015 L35.92985,12.8069963 C35.574162,13.1928841 34.9610918,13.225191 34.5642941,12.8769946 C34.1657091,12.5287982 34.1335363,11.9329157 34.4910116,11.5470279 L34.492799,11.5452331 C34.5088854,11.5272848 34.5267592,11.5093365 34.544633,11.4931831 C35.1487663,10.8811471 35.7940094,10.2924439 36.4785747,9.73066312 C37.1738643,9.16170301 37.8941772,8.63402391 38.637726,8.15121549 C46.3002107,3.16877617 56.2130029,2.84032285 64.152531,7.28431413 L64.152531,7.28431413 Z M23.0267763,44.4605626 C17.0194026,43.4375113 11.9128669,42.0985705 8.17188709,40.5083539 C7.68214583,40.3019488 7.1119726,40.5191228 6.89927476,40.994752 C6.68478953,41.4721759 6.90999902,42.0267774 7.39795291,42.2331825 C11.2908597,43.8880128 16.5475352,45.2718243 22.6925369,46.3182084 C42.2786127,49.6512018 68.6942556,49.3083899 86.7288883,45.2951571 C88.5430759,44.891321 90.2589577,44.4497936 91.8622347,43.9741645 C93.4744487,43.4949457 94.9436725,42.9870098 96.2520324,42.455741 L96.2520324,42.4539462 L96.2681187,42.4485617 L96.2716935,42.4485617 C96.7596474,42.2403618 96.9830695,41.6857603 96.7703716,41.2101312 C96.5594612,40.7362969 95.9982248,40.5191228 95.5120583,40.7183486 L95.5102709,40.7165538 C94.2305091,41.2352587 92.8220561,41.7234517 91.3009984,42.175748 C89.7710038,42.631634 88.0962316,43.0588028 86.2963431,43.460844 C66.2080144,47.9317577 39.4545572,47.2586976 23.0267763,44.4605626 L23.0267763,44.4605626 Z M45.1991865,41.0306485 C47.1492147,41.1437226 49.170738,41.211926 51.2423078,41.2244898 L51.2423078,41.2316691 L52.9492527,41.2316691 L52.9492527,41.2244898 C56.4310628,41.201157 59.775245,41.0288537 62.8620449,40.7362969 C66.3206191,40.4078436 69.4342296,39.92683 72.0420125,39.3309475 C74.9107524,38.6740408 77.2397045,37.8340619 78.850131,36.8540864 C80.229986,36.0123126 81.282751,35.2584854 81.4900867,33.9644152 L81.5526449,28.5404485 C82.9646726,28.7917242 84.3248664,29.0591534 85.6314389,29.3445309 C87.4920983,29.7501618 89.2151296,30.182715 90.7933834,30.638601 C99.3155963,33.1011035 104.187986,36.4466607 104.187986,40.0901592 L104.187986,40.091954 L104.184411,40.091954 C104.184411,44.1536472 98.1823994,47.7056095 88.4858798,50.1645223 C79.162922,52.5283093 66.2973832,53.9910931 52.1002487,53.9910931 L52.1002487,53.9946828 L52.0948865,53.9946828 L52.0913118,53.9946828 L52.0913118,53.9910931 C37.8923899,53.9910931 25.0250637,52.5283093 15.7021059,50.1645223 C6.00558632,47.7056095 0.00536213064,44.1536472 0.00357475376,40.091954 L0,40.091954 L0,40.0901592 L0,40.0901592 L0.00357475376,40.0901592 C0.00357475376,39.3004354 0.22342211,38.5286599 0.650605184,37.7784222 C1.04561547,37.0892087 1.61221395,36.4215331 2.34325109,35.7825748 C5.68922061,32.857007 12.7868942,30.286815 22.6353408,28.5404485 L22.7622446,33.9644152 C23.067886,35.0431061 23.9579997,36.0123126 25.3378546,36.8540864 C26.9482812,37.8340619 29.2754459,38.6740408 32.1441858,39.3309475 C34.753756,39.92683 37.869154,40.4078436 41.3277282,40.7362969 C42.4019417,40.838602 43.508328,40.9247537 44.6379502,40.9965468 L45.1991865,41.0306485 Z" id="Fill-1" fill="#91C438"></path>
                <path d="M80.2550093,52.7239454 C77.6114789,53.1600883 74.8017224,53.537002 71.8561253,53.8457122 C65.9988913,54.4613378 59.6197432,54.8131238 52.9474653,54.8400462 L52.9474653,54.8472256 L51.2423078,54.8472256 L51.2423078,54.8400462 C44.5718173,54.8131238 38.1908818,54.4613378 32.3336478,53.847507 C29.4523962,53.5441813 26.6998358,53.1762418 24.1081394,52.7526626 C24.1474616,52.7939436 24.1939334,52.8334298 24.24398,52.8693264 C26.6980485,54.594155 30.0082704,56.0371957 33.876154,57.1266556 C34.6143407,57.3330607 35.3829127,57.5322865 36.1782954,57.7171537 C40.9881266,58.8425101 46.5146959,59.465315 52.2521757,59.465315 L52.2521757,59.4689047 L52.2557505,59.4689047 C60.3561425,59.4689047 68.0543747,58.2268845 73.9169709,56.065913 C75.0662542,55.6441287 76.1494046,55.184653 77.1503356,54.6910756 C78.1476919,54.1992931 79.0699784,53.6734088 79.9046834,53.1152176 C79.9154077,53.1080383 79.9261319,53.100859 79.9386436,53.0918849 L79.9404309,53.0900901 C80.0798463,52.9931694 80.187089,52.8657367 80.2550093,52.7239454 L80.2550093,52.7239454 Z M31.8885909,8.17095859 C26.705198,13.2126272 23.4879196,20.1711709 23.4879196,27.829697 L23.4825574,27.829697 L23.4825574,27.829697 L23.4825574,32.9395691 C23.4825574,32.9718759 23.4861322,33.0059777 23.489707,33.0382845 L23.4879196,33.1118724 L23.4825574,33.1118724 L23.4825574,33.1136673 L23.4825574,33.1136673 L23.4879196,33.1136673 C23.489707,35.3572008 26.8678493,37.252538 32.330073,38.5017375 C35.697491,39.2717182 40.4787242,39.8819593 45.1991865,40.1799006 L45.1991865,38.2971272 C40.6467376,38.0027756 36.0192189,37.4104827 32.7679803,36.6674244 C28.2280431,35.6282197 25.420074,34.3628668 25.4182866,33.1136673 L25.4236487,33.1136673 C25.4236487,27.1548421 78.764337,25.6759048 78.7696991,33.1118724 L78.7661243,33.1136673 C78.7661243,34.9731079 72.7122788,36.371278 71.418218,36.6674244 C66.4779083,37.7981653 59.6483412,38.4981478 52.102036,38.4981478 L52.102036,38.4945582 L52.0948865,38.4945582 L52.0895244,38.4945582 L52.0895244,38.4981478 C49.7087384,38.4981478 47.4012349,38.4281496 45.1991865,38.2971272 L45.1991865,40.1799006 C47.4048096,40.3091281 49.7123132,40.3773315 52.0895244,40.3773315 L52.0895244,40.3809212 L52.0948865,40.3809212 L52.102036,40.3809212 L52.102036,40.3773315 C59.8109925,40.3773315 66.7978487,39.6594008 71.8579127,38.5017375 C77.3183491,37.252538 80.7000661,35.3572008 80.7000661,33.1136673 L80.7036409,33.1136673 L80.7036409,33.1136673 L80.7036409,33.1118724 L80.7000661,33.1118724 C80.7000661,32.878545 80.7036409,32.6541916 80.7036409,32.4280434 L80.7036409,27.829697 L80.7036409,27.8279022 L80.7000661,27.8279022 C80.7000661,20.1711709 77.4827877,13.2126272 72.3011822,8.17095859 C61.0782427,-2.74697312 43.0632712,-2.70030762 31.8885909,8.17095859 L31.8885909,8.17095859 Z M65.7987051,10.6226921 C65.3840336,10.3085974 65.3036017,9.72886829 65.6199674,9.31785294 C65.9542069,8.88350485 66.5297422,8.83504452 66.9730117,9.13119095 C67.0999154,9.22631677 67.2268192,9.3214426 67.3501482,9.4219529 C67.4270054,9.48118218 67.5467597,9.57810283 67.7058362,9.70733037 C68.3224812,10.2134715 68.9051661,10.7393558 69.4521034,11.2831883 C69.8238778,11.6547175 69.8149409,12.2506 69.4324423,12.613155 C69.0499436,12.9757101 68.4368733,12.9667359 68.065099,12.5952068 C67.5467597,12.0782966 67.0105466,11.5954882 66.4636093,11.1449867 C66.3939016,11.089347 66.2848716,11.0031954 66.1311572,10.8811471 C66.0042534,10.7806368 65.893436,10.6944851 65.7987051,10.6226921 L65.7987051,10.6226921 Z M64.152531,7.28431413 C64.6154616,7.54276919 64.7745381,8.11890861 64.5100063,8.56761532 C64.2436872,9.01811686 63.6538528,9.17247197 63.1909222,8.9140169 C55.891275,4.82540135 46.752417,5.13411156 39.7119395,9.71271485 C39.0148625,10.1686009 38.3499583,10.6532041 37.722589,11.1683194 C37.105944,11.6708709 36.5125349,12.2129086 35.9423617,12.7944325 L35.9316374,12.8052015 L35.92985,12.8069963 C35.574162,13.1928841 34.9610918,13.225191 34.5642941,12.8769946 C34.1657091,12.5287982 34.1335363,11.9329157 34.4910116,11.5470279 L34.492799,11.5452331 C34.5088854,11.5272848 34.5267592,11.5093365 34.544633,11.4931831 C35.1487663,10.8811471 35.7940094,10.2924439 36.4785747,9.73066312 C37.1738643,9.16170301 37.8941772,8.63402391 38.637726,8.15121549 C46.3002107,3.16877617 56.2130029,2.84032285 64.152531,7.28431413 L64.152531,7.28431413 Z M23.0267763,44.4605626 C17.0194026,43.4375113 11.9128669,42.0985705 8.17188709,40.5083539 C7.68214583,40.3019488 7.1119726,40.5191228 6.89927476,40.994752 C6.68478953,41.4721759 6.90999902,42.0267774 7.39795291,42.2331825 C11.2908597,43.8880128 16.5475352,45.2718243 22.6925369,46.3182084 C42.2786127,49.6512018 68.6942556,49.3083899 86.7288883,45.2951571 C88.5430759,44.891321 90.2589577,44.4497936 91.8622347,43.9741645 C93.4744487,43.4949457 94.9436725,42.9870098 96.2520324,42.455741 L96.2520324,42.4539462 L96.2681187,42.4485617 L96.2716935,42.4485617 C96.7596474,42.2403618 96.9830695,41.6857603 96.7703716,41.2101312 C96.5594612,40.7362969 95.9982248,40.5191228 95.5120583,40.7183486 L95.5102709,40.7165538 C94.2305091,41.2352587 92.8220561,41.7234517 91.3009984,42.175748 C89.7710038,42.631634 88.0962316,43.0588028 86.2963431,43.460844 C66.2080144,47.9317577 39.4545572,47.2586976 23.0267763,44.4605626 L23.0267763,44.4605626 Z M45.1991865,41.0306485 C47.1492147,41.1437226 49.170738,41.211926 51.2423078,41.2244898 L51.2423078,41.2316691 L52.9492527,41.2316691 L52.9492527,41.2244898 C56.4310628,41.201157 59.775245,41.0288537 62.8620449,40.7362969 C66.3206191,40.4078436 69.4342296,39.92683 72.0420125,39.3309475 C74.9107524,38.6740408 77.2397045,37.8340619 78.850131,36.8540864 C80.229986,36.0123126 81.282751,35.2584854 81.4900867,33.9644152 L81.5526449,28.5404485 C82.9646726,28.7917242 84.3248664,29.0591534 85.6314389,29.3445309 C87.4920983,29.7501618 89.2151296,30.182715 90.7933834,30.638601 C99.3155963,33.1011035 104.187986,36.4466607 104.187986,40.0901592 L104.187986,40.091954 L104.184411,40.091954 C104.184411,44.1536472 98.1823994,47.7056095 88.4858798,50.1645223 C79.162922,52.5283093 66.2973832,53.9910931 52.1002487,53.9910931 L52.1002487,53.9946828 L52.0948865,53.9946828 L52.0913118,53.9946828 L52.0913118,53.9910931 C37.8923899,53.9910931 25.0250637,52.5283093 15.7021059,50.1645223 C6.00558632,47.7056095 0.00536213064,44.1536472 0.00357475376,40.091954 L0,40.091954 L0,40.0901592 L0,40.0901592 L0.00357475376,40.0901592 C0.00357475376,39.3004354 0.22342211,38.5286599 0.650605184,37.7784222 C1.04561547,37.0892087 1.61221395,36.4215331 2.34325109,35.7825748 C5.68922061,32.857007 12.7868942,30.286815 22.6353408,28.5404485 L22.7622446,33.9644152 C23.067886,35.0431061 23.9579997,36.0123126 25.3378546,36.8540864 C26.9482812,37.8340619 29.2754459,38.6740408 32.1441858,39.3309475 C34.753756,39.92683 37.869154,40.4078436 41.3277282,40.7362969 C42.4019417,40.838602 43.508328,40.9247537 44.6379502,40.9965468 L45.1991865,41.0306485 Z" id="Fill-1" fill="#168100"></path>
            </g>
            <path d="M45,65 C46.1045695,65 47,65.8954305 47,67 L47,86 C47,87.1045695 46.1045695,88 45,88 C43.8954305,88 43,87.1045695 43,86 L43,67 C43,65.8954305 43.8954305,65 45,65 Z M62,65 C63.1045695,65 64,65.8954305 64,67 L64,86 C64,87.1045695 63.1045695,88 62,88 C60.8954305,88 60,87.1045695 60,86 L60,67 C60,65.8954305 60.8954305,65 62,65 Z M54,65 C55.1045695,65 56,65.8954305 56,67 L56,95 C56,96.1045695 55.1045695,97 54,97 C52.8954305,97 52,96.1045695 52,95 L52,67 C52,65.8954305 52.8954305,65 54,65 Z" id="合并形状" fill="#168100"></path>
        </g>
    </g>
</svg>