<?xml version="1.0" standalone="no"?><!DOCTYPE svg PUBLIC "-//W3C//DTD SVG 1.1//EN" "http://www.w3.org/Graphics/SVG/1.1/DTD/svg11.dtd"><svg t="1536248186071" class="icon" style="" viewBox="0 0 1024 1024" version="1.1" xmlns="http://www.w3.org/2000/svg" p-id="5912" xmlns:xlink="http://www.w3.org/1999/xlink" width="200" height="200"><defs><style type="text/css"></style></defs><path d="M512 1024c-144.384-4.096-265.216-54.272-361.472-150.528S4.096 656.384 0 512c4.096-144.384 54.272-265.216 150.528-361.472S367.616 4.096 512 0c144.384 4.096 265.216 54.272 361.472 150.528S1019.904 367.616 1024 512c-4.096 144.384-54.272 265.216-150.528 361.472S656.384 1019.904 512 1024z m-51.2-200.704c15.36 15.36 33.792 22.528 56.32 22.528s40.96-7.168 54.272-21.504 21.504-32.768 21.504-54.272-7.168-38.912-22.528-54.272c-14.336-15.36-32.768-22.528-54.272-22.528-19.456 0-37.888 8.192-57.344 25.6-14.336 13.312-21.504 29.696-21.504 50.176s8.192 38.912 23.552 54.272z m116.736-609.28c-16.384-12.288-36.864-19.456-61.44-19.456-4.096 0-12.288 1.024-23.552 3.072-21.504 1.024-37.888 6.144-49.152 15.36s-18.432 22.528-20.48 40.96c-1.024 6.144-2.048 11.264-2.048 17.408 0 9.216 1.024 23.552 3.072 41.984 5.12 30.72 13.312 79.872 26.624 147.456 12.288 57.344 28.672 128 37.888 171.008h50.176c9.216-28.672 17.408-64.512 24.576-108.544 9.216-50.176 21.504-111.616 28.672-149.504 7.168-50.176 10.24-86.016 10.24-107.52s-7.168-39.936-24.576-52.224z" p-id="5913"></path></svg>