<?xml version="1.0" standalone="no"?><!DOCTYPE svg PUBLIC "-//W3C//DTD SVG 1.1//EN" "http://www.w3.org/Graphics/SVG/1.1/DTD/svg11.dtd"><svg t="1592963118281" class="icon" viewBox="0 0 1040 1024" version="1.1" xmlns="http://www.w3.org/2000/svg" p-id="2542" xmlns:xlink="http://www.w3.org/1999/xlink" width="203.125" height="200"><defs><style type="text/css"></style></defs><path d="M723.006061 248.226909l94.642424-79.127273c12.412121-10.860606 32.581818-9.309091 43.442424 3.103031 12.412121 13.963636 10.860606 34.133333-3.10303 44.993939l-94.642424 79.127273c-12.412121 10.860606-32.581818 9.309091-43.442425-3.103031-10.860606-13.963636-9.309091-32.581818 3.103031-44.993939zM816.09697 615.936l117.915151 38.787879c17.066667 4.654545 34.133333-3.10303 38.787879-20.169697 4.654545-17.066667-3.10303-34.133333-20.169697-38.787879l-117.915151-38.787879c-17.066667-4.654545-34.133333 3.10303-38.787879 20.169697-4.654545 15.515152 3.10303 32.581818 20.169697 38.787879zM830.060606 462.336l121.018182-26.375758c17.066667-3.10303 27.927273-20.169697 23.272727-37.236363-3.10303-17.066667-20.169697-27.927273-37.236363-23.272727l-121.018182 26.375757c-17.066667 3.10303-27.927273 20.169697-23.272728 37.236364 4.654545 15.515152 20.169697 26.375758 37.236364 23.272727zM685.769697 712.129939h-4.654545c-6.206061 0-12.412121-3.10303-15.515152-10.860606l-121.018182-449.939394c-1.551515-7.757576 3.10303-15.515152 12.412121-18.618181h3.103031c6.206061 0 12.412121 3.10303 15.515151 10.860606l121.018182 449.939394c3.10303 9.309091-1.551515 17.066667-10.860606 18.618181z m-490.278788-72.921212l-26.375757-99.296969 322.715151-248.242425 110.157576 406.49697-406.49697-58.957576z m-63.612121 23.272728c-1.551515 3.10303-4.654545 6.206061-9.309091 7.757575h-4.654545c-6.206061 0-12.412121-3.10303-15.515152-10.860606l-24.824242-89.987879c-1.551515-7.757576 3.10303-17.066667 10.860606-18.618181H93.090909c6.206061 0 12.412121 3.10303 15.515152 10.860606l24.824242 89.987878c1.551515 4.654545 0 9.309091-1.551515 10.860607z m625.260606 15.515151l-121.018182-449.939394c-9.309091-34.133333-40.339394-57.406061-76.024242-57.40606-6.206061 0-13.963636 1.551515-20.169697 3.10303-23.272727 6.206061-40.339394 21.721212-49.648485 40.339394l-363.054546 280.824242c-10.860606-4.654545-21.721212-7.757576-32.581818-7.757576-6.206061 0-13.963636 1.551515-20.169697 3.103031-43.442424 10.860606-66.715152 52.751515-55.854545 94.642424l24.824242 89.987879c9.309091 34.133333 40.339394 57.406061 76.024243 57.40606 6.206061 0 13.963636-1.551515 20.169697-3.10303 18.618182-4.654545 32.581818-15.515152 43.442424-29.478788l318.060606 46.545455c-6.206061 13.963636-13.963636 26.375758-23.272727 35.684848-18.618182 18.618182-43.442424 29.478788-72.921212 29.478788-24.824242 0-48.09697-9.309091-65.163637-23.272727-10.860606-9.309091-20.169697-18.618182-26.375757-31.030303-6.206061-10.860606-15.515152-17.066667-27.927273-17.066667-23.272727 0-38.787879 24.824242-27.927273 44.99394 27.927273 52.751515 83.781818 88.436364 147.39394 88.436363 76.024242 0 138.084848-49.648485 159.80606-117.915151l89.987879 13.963636c9.309091 3.10303 18.618182 6.206061 29.478788 6.206061 6.206061 0 13.963636-1.551515 20.169697-3.103031 40.339394-10.860606 63.612121-52.751515 52.751515-94.642424z" fill="#999999" p-id="2543"></path></svg>