<svg t="1572422304655" class="icon" viewBox="0 0 1024 1024" version="1.1" xmlns="http://www.w3.org/2000/svg" p-id="2098" width="200" height="200" >
  <path d="M512 0C229.70368 0 0 229.7344 0 512.07168 0 794.25536 229.70368 1024 512 1024c282.28608 0 512-229.60128 512-511.92832C1024 229.7344 794.29632 0 512 0z m0 959.52896c-246.784 0-447.5392-200.64256-447.5392-447.45728C64.4608 265.24672 265.216 64.47104 512 64.47104c246.77376 0 447.52896 200.91904 447.52896 447.60064C959.5392 758.74304 758.784 959.52896 512 959.52896z"  p-id="2099"></path>
  <path d="M654.35648 242.3808c-34.01728-31.35488-78.41792-46.12096-134.144-46.12096-62.72 0-111.5136 19.13856-146.23744 57.41568-34.8672 36.51584-51.41504 85.248-51.41504 146.1248h68.80256c0-42.58816 9.54368-75.64288 28.71296-100.00384 20.93056-28.672 53.10464-42.58816 96.6656-42.58816 36.5568 0 65.34144 9.53344 85.3504 30.44352 19.16928 19.13856 29.63456 46.04928 29.63456 80.86528 0 24.36096-8.69376 46.96064-26.10176 68.72064-5.23264 6.92224-15.69792 17.37728-29.62432 31.2832-47.02208 41.80992-75.80672 74.86464-87.97184 100.92544-10.46528 21.68832-15.69792 46.97088-15.69792 75.64288v19.98848h69.65248v-19.98848c0-23.4496 5.23264-44.34944 16.54784-63.49824 8.69376-15.60576 21.78048-31.29344 40.93952-47.81056 38.32832-33.8944 61.87008-56.50432 70.57408-66.95936 21.78048-28.672 33.09568-62.64832 33.09568-101.77536 0.01024-52.1728-16.5376-93.06112-48.78336-122.66496zM507.12576 725.97504c-14.78656 0-27.01312 4.38272-37.55008 14.75584-10.3936 9.53344-14.77632 21.68832-14.77632 36.51584s4.31104 26.9824 14.77632 37.43744c10.46528 9.53344 22.6304 14.75584 37.4784 14.75584 14.848 0 27.01312-5.2224 37.4784-14.75584 10.46528-9.60512 15.69792-21.74976 15.69792-37.43744 0-14.75584-5.23264-26.9824-14.77632-36.51584-10.46528-10.38336-23.552-14.75584-38.32832-14.75584z" p-id="2100"></path>
</svg>  