<?xml version="1.0" standalone="no"?><!DOCTYPE svg PUBLIC "-//W3C//DTD SVG 1.1//EN" "http://www.w3.org/Graphics/SVG/1.1/DTD/svg11.dtd"><svg t="1572427877623" class="icon" viewBox="0 0 1024 1024" version="1.1" xmlns="http://www.w3.org/2000/svg" p-id="2117" xmlns:xlink="http://www.w3.org/1999/xlink" width="200" height="200"><defs><style type="text/css"></style></defs><path d="M0 512a512 512 0 1 0 1024 0A512 512 0 1 0 0 512z" fill="#F0F0F0" p-id="2118"></path><path d="M105.84 200.284C65.622 252.61 35.296 312.92 17.638 378.438h266.356L105.84 200.284z m900.522 178.154c-17.658-65.516-47.986-125.826-88.202-178.152L740.01 378.438h266.352zM17.638 645.568c17.66 65.516 47.986 125.826 88.202 178.15l178.148-178.15H17.638z m806.078-539.726C771.39 65.624 711.082 35.298 645.564 17.638v266.354l178.152-178.15zM200.284 918.158c52.326 40.218 112.636 70.544 178.152 88.204V740.01L200.284 918.158z m178.15-900.52c-65.516 17.66-125.826 47.986-178.15 88.202l178.15 178.15V17.638z m267.132 988.724c65.516-17.66 125.826-47.986 178.15-88.202l-178.15-178.15v266.352z m94.444-360.794L918.16 823.72c40.216-52.324 70.544-112.636 88.202-178.152H740.01z" fill="#0052B4" p-id="2119"></path><path d="M1019.666 445.218H578.784V4.334A517.112 517.112 0 0 0 512 0a517.011 517.011 0 0 0-66.782 4.334v440.882H4.334A517.112 517.112 0 0 0 0 512c0 22.638 1.488 44.922 4.334 66.782h440.882v440.884a516.7 516.7 0 0 0 133.566 0V578.784h440.884A517.066 517.066 0 0 0 1024 512c0-22.634-1.488-44.922-4.334-66.782z" fill="#D80027" p-id="2120"></path><path d="M645.566 645.568L874.038 874.04a513.272 513.272 0 0 0 30.096-32.87L708.53 645.566h-62.964v0.002z m-267.132 0h-0.004l-228.47 228.47a513.272 513.272 0 0 0 32.87 30.096l195.604-195.608v-62.958z m0-267.13v-0.004L149.962 149.96a513.272 513.272 0 0 0-30.096 32.87l195.606 195.606h62.962z m267.132 0L874.04 149.962a512.656 512.656 0 0 0-32.87-30.094L645.566 315.474v62.964z" fill="#D80027" p-id="2121"></path></svg>