<?xml version="1.0" standalone="no"?><!DOCTYPE svg PUBLIC "-//W3C//DTD SVG 1.1//EN" "http://www.w3.org/Graphics/SVG/1.1/DTD/svg11.dtd"><svg t="1637726004648" class="icon" viewBox="0 0 1024 1024" version="1.1" xmlns="http://www.w3.org/2000/svg" p-id="5612" xmlns:xlink="http://www.w3.org/1999/xlink" width="200" height="200"><defs><style type="text/css"></style></defs><path d="M877.714286 366.518857c-7.558095 4.754286-14.677333 10.410667-21.260191 16.993524l-321.828571 321.80419-28.720762 201.142858L707.047619 877.714286l170.666667-170.666667v170.666667a73.142857 73.142857 0 0 1-73.142857 73.142857H170.666667a73.142857 73.142857 0 0 1-73.142857-73.142857V170.666667a73.142857 73.142857 0 0 1 73.142857-73.142857h113.785904l26.940953 80.847238a24.380952 24.380952 0 0 0 23.137524 16.676571h306.176a24.380952 24.380952 0 0 0 23.137523-16.676571L690.785524 97.52381H804.571429a73.142857 73.142857 0 0 1 73.142857 73.142857v195.85219zM243.809524 341.333333a24.380952 24.380952 0 0 0 0 48.761905h487.619047a24.380952 24.380952 0 0 0 0-48.761905H243.809524z m0 170.666667a24.380952 24.380952 0 0 0 0 48.761905h243.809524a24.380952 24.380952 0 0 0 0-48.761905H243.809524z m0 170.666667a24.380952 24.380952 0 0 0 0 48.761904h97.523809a24.380952 24.380952 0 0 0 0-48.761904h-97.523809z m121.904762-633.904762h243.809524a24.380952 24.380952 0 0 1 24.380952 24.380952v48.761905a24.380952 24.380952 0 0 1-24.380952 24.380952H365.714286a24.380952 24.380952 0 0 1-24.380953-24.380952V73.142857a24.380952 24.380952 0 0 1 24.380953-24.380952z m525.555809 368.664381a73.142857 73.142857 0 0 1 103.448381 103.448381L684.397714 831.195429l-120.685714 17.237333 17.237333-120.685714 310.320762-310.320762z" p-id="5613"></path></svg>