<?xml version="1.0" encoding="utf-8"?>
<!-- Generator: Adobe Illustrator 22.0.0, SVG Export Plug-In . SVG Version: 6.00 Build 0)  -->
<svg version="1.1" id="图层_1" xmlns="http://www.w3.org/2000/svg" xmlns:xlink="http://www.w3.org/1999/xlink" x="0px" y="0px"
	 width="100px" height="100px" viewBox="0 0 100 100" style="enable-background:new 0 0 100 100;" xml:space="preserve">
<style type="text/css">
	.st0{fill:url(#XMLID_3_);}
	.st1{fill:url(#XMLID_6_);}
</style>
<g id="XMLID_1_">
	
		<linearGradient id="XMLID_3_" gradientUnits="userSpaceOnUse" x1="-436.8636" y1="80.1231" x2="-436.8636" y2="19.9302" gradientTransform="matrix(-1 0 0 -1 -394.1191 99.9897)">
		<stop  offset="0" style="stop-color:#42B7EA"/>
		<stop  offset="0.3061" style="stop-color:#2553A4"/>
		<stop  offset="0.6996" style="stop-color:#2B386E"/>
		<stop  offset="1" style="stop-color:#29284E"/>
	</linearGradient>
	<path id="XMLID_5_" class="st0" d="M17.3,76.6c0,0-12.9-13.1-15.1-15.4c-2.2-2.3-2.5-5.4-2-8c0.4-2.6,2.6-6.1,3.9-7.9
		c1.3-2,14.7-16.3,17.9-20c4.1-4.7,13.5-6.8,17.7-4.2s6.7,5.3,9.6,7.9c2.9,2.6,17,16.8,20.3,20s9.4,9,10.9,10.4c1.6,1.4,4,3.1,4,3.1
		s1.4,3.6,0.8,8.1c-0.3,2.5-1.5,5.2-3.5,7.1c-3.1,2.8-8,3.8-12.3,0.3c-4.6-3.7-9.2-9-11.8-11.7C55,63.3,37.4,46,36.8,45.4
		S34.2,43,32,44S18.6,57.3,17,59.3C15.3,61.4,12.3,70.4,17.3,76.6z"/>
	
		<linearGradient id="XMLID_6_" gradientUnits="userSpaceOnUse" x1="28.426" y1="60.146" x2="89.9008" y2="24.6535" gradientTransform="matrix(1 0 0 -1 0 99.9897)">
		<stop  offset="0" style="stop-color:#8AC564"/>
		<stop  offset="0.2514" style="stop-color:#88C467"/>
		<stop  offset="0.4424" style="stop-color:#80C06F"/>
		<stop  offset="0.6135" style="stop-color:#73B97C"/>
		<stop  offset="0.7729" style="stop-color:#60B08B"/>
		<stop  offset="0.9228" style="stop-color:#41A49D"/>
		<stop  offset="1" style="stop-color:#249DA6"/>
	</linearGradient>
	<path id="XMLID_4_" class="st1" d="M82.7,76.6c0,0,12.9-13.1,15.1-15.4c2.2-2.3,2.5-5.4,2-8c-0.4-2.6-2.6-6.1-3.9-7.9
		c-1.3-2-14.7-16.3-17.9-20c-4.1-4.7-13.5-6.8-17.7-4.2s-6.7,5.3-9.6,7.9c-2.9,2.6-17,16.8-20.3,20s-9.4,9-10.9,10.4
		c-1.6,1.4-4,3.1-4,3.1s-1.5,2.9-0.9,8c0.3,2.5,1.3,5.1,3.2,6.9c3.1,3.1,8.3,4.2,12.8,0.5c4.6-3.7,9.2-9,11.8-11.7
		C45,63.3,62.6,46,63.2,45.4S65.8,43,68,44c2.2,1,13.4,13.3,15,15.3C84.7,61.4,87.7,70.4,82.7,76.6z"/>
</g>
</svg>
