<?xml version="1.0" encoding="utf-8"?>
<!-- Generator: Adobe Illustrator 22.0.0, SVG Export Plug-In . SVG Version: 6.00 Build 0)  -->
<svg version="1.1" id="图层_1" xmlns="http://www.w3.org/2000/svg" xmlns:xlink="http://www.w3.org/1999/xlink" x="0px" y="0px"
	 viewBox="0 0 100 100" style="enable-background:new 0 0 100 100;" xml:space="preserve">
<style type="text/css">
	.st0{fill:url(#SVGID_1_);}
	.st1{fill:url(#SVGID_2_);}
</style>
<g>
	<linearGradient id="SVGID_1_" gradientUnits="userSpaceOnUse" x1="48.2914" y1="78" x2="48.2914" y2="19.2">
		<stop  offset="0" style="stop-color:#CD7D29"/>
		<stop  offset="1" style="stop-color:#FAAC49"/>
	</linearGradient>
	<path class="st0" d="M66,69.1c2.1-3.9,1.8-8-1-12.3c3.9,0.1,6.8-1.4,8.7-4.7c3.1-6.3,0.6-12.1-7.7-17.5l-0.4-0.2l3.3-5.7l-4.8-2.8
		l-3.3,5.6L56,28.7l4-6.7l-4.8-2.8l-3.9,6.7l-0.4-0.2l-1.8-1.1l0,0l-6.3-3.7l-3.3,5.7l6.3,3.7L31.1,54.8l-6.2-3.7l-3.3,5.7l11,6.5
		l-4.5,7.6l4.8,2.8l4.5-7.6l4.1,2.5l-3.9,6.6l4.8,2.8l3.9-6.6C55.4,76.7,62,75.9,66,69.1z M61.5,39.7c4.2,2.6,5.7,5.3,4.4,8
		c-1.9,2.9-5.1,3.1-9.6,0.6l-8.1-4.8l5.2-8.7C53.4,34.8,61.5,39.7,61.5,39.7z M47.9,65.1l-9.2-5.5l6.1-10.2l8.6,5.1
		c5.2,3.3,6.9,6.6,5,10C56.3,67.7,52.8,67.9,47.9,65.1z"/>
	<linearGradient id="SVGID_2_" gradientUnits="userSpaceOnUse" x1="50" y1="100.1" x2="50" y2="0.1">
		<stop  offset="0" style="stop-color:#CD7D29"/>
		<stop  offset="1" style="stop-color:#FAAC49"/>
	</linearGradient>
	<path class="st1" d="M50,100.1c-6.7,0-13.3-1.3-19.5-3.9c-6-2.5-11.3-6.1-15.9-10.7S6.4,75.6,3.9,69.6C1.3,63.4,0,56.8,0,50.1
		s1.3-13.3,3.9-19.5c2.5-6,6.1-11.3,10.7-15.9S24.6,6.5,30.5,4C36.7,1.4,43.3,0.1,50,0.1S63.3,1.4,69.5,4c6,2.5,11.3,6.1,15.9,10.7
		s8.2,9.9,10.7,15.9c2.6,6.2,3.9,12.7,3.9,19.5s-1.3,13.3-3.9,19.5c-2.5,6-6.1,11.3-10.7,15.9s-9.9,8.2-15.9,10.7
		C63.3,98.8,56.7,100.1,50,100.1z M50,4C24.6,4,3.9,24.7,3.9,50.1S24.6,96.2,50,96.2s46.1-20.7,46.1-46.1S75.4,4,50,4z"/>
</g>
</svg>
