<?xml version="1.0" standalone="no"?><!DOCTYPE svg PUBLIC "-//W3C//DTD SVG 1.1//EN" "http://www.w3.org/Graphics/SVG/1.1/DTD/svg11.dtd"><svg t="1559022766647" class="icon" style="" viewBox="0 0 1024 1024" version="1.1" xmlns="http://www.w3.org/2000/svg" p-id="1564" xmlns:xlink="http://www.w3.org/1999/xlink" width="200" height="200"><defs><style type="text/css"></style></defs><path d="M417.4848 663.6032c-57.344 34.56-65.792-19.456-65.792-19.456L279.8592 462.6432C252.2624 376.3712 303.8208 423.68 303.8208 423.68s44.2368 36.2496 77.7728 58.368c33.536 22.1184 71.8336 6.5024 71.8336 6.5024l469.4528-234.752c-86.5792-116.736-229.6832-193.0752-391.68-193.0752-264.3968 0-478.6688 203.1616-478.6688 453.7856 0 144.128 70.9632 272.4352 181.504 355.6352l-19.968 124.1088c0 0-9.728 36.1472 23.9616 19.4048 22.9376-11.52 81.408-52.5312 116.2752-77.5168 54.7328 20.5824 114.3808 32.1024 176.9472 32.1024 264.2944 0 478.72-203.1616 478.72-453.7344 0-72.6016-18.1248-141.2096-50.1248-201.984C810.24 409.9584 462.336 636.5184 417.4848 663.6032" p-id="1565" ></path></svg>