<?xml version="1.0" standalone="no"?>
<!DOCTYPE svg PUBLIC "-//W3C//DTD SVG 1.1//EN" "http://www.w3.org/Graphics/SVG/1.1/DTD/svg11.dtd">
<svg t="1559022753498" class="icon" style="" viewBox="0 0 1024 1024" version="1.1" xmlns="http://www.w3.org/2000/svg" p-id="1406" xmlns:xlink="http://www.w3.org/1999/xlink" width="200" height="200">
<defs>
<style type="text/css"></style>
</defs>
<path fill="#0096EF" d="M230.404452 576.536487C218.3168 586.264487 205.360974 600.466922 201.598887 618.520487 196.478887 643.18553 200.530365 674.061357 224.327235 698.281183 253.155061 727.64327 296.964452 735.679443 315.886191 737.059617 367.286539 740.777183 422.070539 715.288487 463.364452 686.215791 479.548104 674.795965 507.262887 651.86727 533.753322 616.494748 474.383583 585.84153 400.277148 551.938226 321.050713 555.255096 280.580452 556.946922 251.5968 565.33927 230.404452 576.536487ZM983.262609 712.080696C1009.463652 650.573913 1024 582.967652 1024 512 1024 229.687652 794.334609 0 512 0 229.665391 0 0 229.687652 0 512 0 794.334609 229.665391 1024 512 1024 682.384696 1024 833.491478 940.27687 926.630957 811.876174 838.633739 768.133565 693.604174 696.141913 604.271304 652.577391 561.641739 701.17287 498.621217 749.879652 427.430957 771.072 382.70887 784.361739 342.394435 789.437217 300.232348 780.822261 258.493217 772.274087 227.750957 752.729043 209.830957 733.139478 200.704 723.144348 190.21913 710.433391 182.628174 695.318261 183.340522 697.232696 183.830261 698.368 183.830261 698.368 183.830261 698.368 179.46713 690.843826 176.128 678.867478 174.413913 673.079652 173.256348 667.046957 172.78887 660.72487 172.432696 656.584348 172.343652 652.221217 172.588522 647.68 172.210087 639.977739 172.521739 631.897043 174.258087 623.616 178.44313 603.38087 187.080348 579.806609 209.430261 557.924174 258.493217 509.885217 324.207304 507.302957 358.244174 507.503304 408.665043 507.792696 496.283826 529.853217 570.056348 555.942957 590.491826 512.422957 603.603478 465.875478 612.062609 434.843826L305.307826 434.843826 305.307826 401.67513 462.825739 401.67513 462.825739 335.337739 272.13913 335.337739 272.13913 302.169043 462.825739 302.169043 462.825739 235.853913C462.825739 226.749217 464.62887 219.269565 479.410087 219.269565L554.028522 219.269565 554.028522 302.169043 761.321739 302.169043 761.321739 335.337739 554.028522 335.337739 554.028522 401.67513 719.849739 401.67513C719.849739 401.67513 703.198609 494.502957 651.130435 585.99513 766.686609 627.266783 929.257739 690.843826 983.262609 712.080696Z" p-id="1407" ></path></svg>