<svg xmlns="http://www.w3.org/2000/svg" xmlns:xlink="http://www.w3.org/1999/xlink" viewBox="0 0 100 100"><defs><style>.cls-1{fill:none;}.cls-2{fill:url(#radial-gradient);}.cls-3{fill:url(#radial-gradient-2);}.cls-4{fill:url(#radial-gradient-3);}.cls-5{clip-path:url(#clip-path);}.cls-6{fill:url(#radial-gradient-4);}.cls-7{fill:url(#radial-gradient-5);}.cls-8{clip-path:url(#clip-path-2);}.cls-9{fill:url(#radial-gradient-6);}.cls-10{fill:#a9743c;}</style><radialGradient id="radial-gradient" cx="27.95" cy="30.07" fx="39.953492785690216" fy="40.03701696158365" r="27.44" gradientUnits="userSpaceOnUse"><stop offset="0.11" stop-color="#fff3d0"/><stop offset="0.16" stop-color="#ffe7a7"/><stop offset="0.26" stop-color="#ffd460"/><stop offset="0.34" stop-color="#ffc52c"/><stop offset="0.41" stop-color="#ffbc0c"/><stop offset="0.44" stop-color="#ffb900"/><stop offset="0.59" stop-color="#d69916"/><stop offset="0.69" stop-color="#c08722"/><stop offset="0.76" stop-color="#ad7923"/><stop offset="0.89" stop-color="#8f6325"/><stop offset="0.97" stop-color="#845b26"/></radialGradient><radialGradient id="radial-gradient-2" cx="50.99" cy="71.43" fy="46.01202261031537" r="41.37" gradientUnits="userSpaceOnUse"><stop offset="0.11" stop-color="#fff3d0"/><stop offset="0.37" stop-color="#ffb900"/><stop offset="0.44" stop-color="#eaa80b"/><stop offset="0.53" stop-color="#d39618"/><stop offset="0.62" stop-color="#c58b1f"/><stop offset="0.69" stop-color="#c08722"/><stop offset="1" stop-color="#845b26"/></radialGradient><radialGradient id="radial-gradient-3" cx="236.8" cy="10311.8" fy="10311.80157001714" r="49.76" gradientTransform="translate(10365.88 -178.74) rotate(90)" xlink:href="#radial-gradient-2"/><clipPath id="clip-path"><path class="cls-1" d="M45.31,66.69a9.91,9.91,0,0,1,5.28-2.4c2.58,0,4.6,1.58,6.08,3,2.54,2.14,23.65,23.75,23.86,24a7,7,0,0,0,12-5,6.91,6.91,0,0,0-2.06-5c-.21-.22-21.35-21.12-23.89-23.74-4.67-4.85-11.05-8-16.27-8C43,49.59,39,53.15,33,59L11.53,80.46a7,7,0,0,0,9.84,9.83C29.17,82.46,44.21,67.46,45.31,66.69Z"/></clipPath><radialGradient id="radial-gradient-4" cx="227.4" cy="10314.71" fx="227.39734735775164" fy="10314.705129387099" r="36.81" gradientTransform="translate(10365.88 -178.74) rotate(90)" xlink:href="#radial-gradient"/><radialGradient id="radial-gradient-5" cx="58.15" cy="48.57" fy="48.5654523406929" r="49.76" xlink:href="#radial-gradient-2"/><clipPath id="clip-path-2"><path class="cls-1" d="M66.79,57.33a9.84,9.84,0,0,1-2.4-5.28c0-2.58,1.58-4.6,3-6.08,2.14-2.54,23.74-23.64,24-23.86a7,7,0,0,0-9.9-9.9c-.21.21-21.11,21.35-23.74,23.9-4.85,4.66-8,11-8,16.26,0,7.25,3.56,11.27,9.36,17.24l21.5,21.5a7,7,0,0,0,9.84-9.83C82.56,73.48,67.55,58.44,66.79,57.33Z"/></clipPath><radialGradient id="radial-gradient-6" cx="48.74" cy="51.66" fx="48.73552270875007" fy="51.66406187466964" r="36.68" xlink:href="#radial-gradient"/></defs><title>资源 1</title><g id="图层_2" data-name="图层 2"><g id="隔离模式"><path class="cls-2" d="M39.87,31,20.39,11.45a6.8,6.8,0,0,0-9.62,9.62l19.48,19.5a6.8,6.8,0,0,0,11.61-4.81A6.68,6.68,0,0,0,39.87,31Z"/><path class="cls-3" d="M90.43,81.32c-.21-.22-21.35-21.12-23.89-23.74-4.67-4.85-11.05-8-16.27-8C43,49.59,39,53.15,33,59L11.53,80.46a7,7,0,1,0,9.84,9.83c7.8-7.83,22.83-22.83,23.94-23.6a10,10,0,0,1,5.28-2.4c2.58,0,4.6,1.58,6.08,3,2.54,2.14,23.65,23.75,23.86,24a7,7,0,1,0,9.9-9.9Z"/><path class="cls-4" d="M45.31,66.69a9.91,9.91,0,0,1,5.28-2.4c2.58,0,4.6,1.58,6.08,3,2.54,2.14,23.65,23.75,23.86,24a7,7,0,0,0,12-5,6.91,6.91,0,0,0-2.06-5c-.21-.22-21.35-21.12-23.89-23.74-4.67-4.85-11.05-8-16.27-8C43,49.59,39,53.15,33,59L11.53,80.46a7,7,0,0,0,9.84,9.83C29.17,82.46,44.21,67.46,45.31,66.69Z"/><g class="cls-5"><path class="cls-6" d="M86.55,77.47s-37-29.9-72.31.28l-1.8-14.16,36.87-27.5L86.18,52.88Z"/></g><path class="cls-7" d="M66.79,57.33a9.84,9.84,0,0,1-2.4-5.28c0-2.58,1.58-4.6,3-6.08,2.14-2.54,23.74-23.64,24-23.86a7,7,0,0,0-9.9-9.9c-.21.21-21.11,21.35-23.74,23.9-4.85,4.66-8,11-8,16.26,0,7.25,3.56,11.27,9.36,17.24l21.5,21.5a7,7,0,0,0,9.84-9.83C82.56,73.48,67.55,58.44,66.79,57.33Z"/><g class="cls-8"><path class="cls-9" d="M76.34,17.69S47.62,52.24,77.8,87.53L63.68,90.21,36.18,53.34,53,16.47Z"/></g><path class="cls-10" d="M94.16,26.59l0-.07-.31.29,0,.05a49.45,49.45,0,0,1-.71,47.58l0,0,.32.27,0-.07a49.84,49.84,0,0,0,.7-48.09Z"/><path class="cls-10" d="M77,7.93a49.79,49.79,0,0,0-52.28-1L24.6,7l.33.27,0,0a49.42,49.42,0,0,1,51.68,1l0,0L77,8Z"/><path class="cls-10" d="M7.68,75.79a49.38,49.38,0,0,1-.63-50.52l0,0-.29-.32,0,.08a49.78,49.78,0,0,0,.62,51.06l0,.06.3-.27Z"/><path class="cls-10" d="M73.15,93.82l-.05,0A49.51,49.51,0,0,1,50,99.59,48.85,48.85,0,0,1,27.16,94l-.05,0-.24.34.07,0A49.28,49.28,0,0,0,50,100a49.9,49.9,0,0,0,23.29-5.79l.06,0Z"/><path class="cls-10" d="M94.16,26.59l0-.07-.31.29,0,.05a49.45,49.45,0,0,1-.71,47.58l0,0,.32.27,0-.07a49.84,49.84,0,0,0,.7-48.09Z"/><path class="cls-10" d="M77,7.93a49.79,49.79,0,0,0-52.28-1L24.6,7l.33.27,0,0a49.42,49.42,0,0,1,51.68,1l0,0L77,8Z"/><path class="cls-10" d="M7.68,75.79a49.38,49.38,0,0,1-.63-50.52l0,0-.29-.32,0,.08a49.78,49.78,0,0,0,.62,51.06l0,.06.3-.27Z"/><path class="cls-10" d="M73.15,93.82l-.05,0A49.51,49.51,0,0,1,50,99.59,48.85,48.85,0,0,1,27.16,94l-.05,0-.24.34.07,0A49.28,49.28,0,0,0,50,100a49.9,49.9,0,0,0,23.29-5.79l.06,0Z"/></g></g></svg>