<?xml version="1.0" encoding="utf-8"?>
<!-- Generator: Adobe Illustrator 22.1.0, SVG Export Plug-In . SVG Version: 6.00 Build 0)  -->
<svg version="1.1" id="图层_1" xmlns="http://www.w3.org/2000/svg" xmlns:xlink="http://www.w3.org/1999/xlink" x="0px" y="0px"
	 viewBox="0 0 100 100" style="enable-background:new 0 0 100 100;" xml:space="preserve">
<style type="text/css">
	.st0{fill:#FDA22D;}
</style>
<path class="st0" d="M100,34l-74.7,0.2L17.7,8.9H2.5C2.2,9.1,0,10.9,0,14c0,0.3,0.1,3.2,2.5,5.1h10.1L27.7,80h12.6
	c2.6-8,10.1-13.8,19-13.8s16.4,5.8,19,13.9h8.9c6-18.4,10.2-32.1,11.3-35.7c0.9-3.1,1-6.1,1-6.1C99.8,36.9,99.9,35.5,100,34L100,34z
	"/>
<path class="st0" d="M45.5,86.1c0,7.7,6.2,13.9,13.9,13.9s13.9-6.2,13.9-13.9l0,0c0-7.7-6.2-13.9-13.9-13.9S45.5,78.5,45.5,86.1
	L45.5,86.1z"/>
<path class="st0" d="M98.6,29.2L80.9,9c-0.1-0.1-0.9-1.4-2.5-1.4c-1.6,0-2.5,1.3-2.5,1.4l-5.1,7.6c-0.5,1-1.6,1.6-2.7,1.5
	c-1.6-0.1-2.4-1.5-2.4-1.5L53.1,1.4c-0.1-0.2-0.8-1.1-2-1.3c-1.1-0.2-2.3,0.3-3,1.3C46.2,3.4,37,12.9,32,19.9
	c-1,1.4-2.6,3.8-1.9,6.1c0.5,1.7,2.1,2.8,3,3.3C33.1,29.2,98.6,29.2,98.6,29.2z"/>
</svg>
