<?xml version="1.0" standalone="no"?><!DOCTYPE svg PUBLIC "-//W3C//DTD SVG 1.1//EN" "http://www.w3.org/Graphics/SVG/1.1/DTD/svg11.dtd"><svg t="1637726025384" class="icon" viewBox="0 0 1331 1024" version="1.1" xmlns="http://www.w3.org/2000/svg" p-id="5739" xmlns:xlink="http://www.w3.org/1999/xlink" width="259.9609375" height="200"><defs><style type="text/css"></style></defs><path d="M1177.8048 0H153.3952C68.7616 0 0 70.656 0 157.696v708.608C0 953.344 68.7616 1024 153.3952 1024h1024.4096C1262.4384 1024 1331.2 953.344 1331.2 866.304V157.696C1331.2 70.656 1262.4384 0 1177.8048 0zM852.48 312.6272h212.48c16.7424 0 32.6144 23.552 32.6144 40.8064 0 17.2032-15.872 40.7552-32.6144 40.7552h-212.48c-16.7424 0-32.6144-23.552-32.6144-40.7552 0-17.2544 15.872-40.8064 32.6144-40.8064z m0 174.8992h212.48c16.7424 0 32.6144 23.552 32.6144 40.8064 0 17.2032-15.872 40.7552-32.6144 40.7552h-212.48c-16.7424 0-32.6144-23.552-32.6144-40.7552 0-17.2544 15.872-40.8064 32.6144-40.8064zM157.7984 792.9344a32.4608 32.4608 0 0 1-24.6784-37.1712 278.528 278.528 0 0 1 193.9456-216.576 165.632 165.632 0 0 1-85.504-144.9984c0-90.624 72.2944-164.9152 160.4608-164.9152s161.28 74.2912 161.28 164.9152a166.7584 166.7584 0 0 1-85.504 144.9984 276.992 276.992 0 0 1 193.9968 217.4976 31.744 31.744 0 0 1-24.7296 37.12c-1.7408 0-3.4816 0.9216-5.2736 0.9216l-483.9936-1.792z m1009.408-48.0256H852.48c-16.7424 0-32.6144-23.552-32.6144-40.8064 0-17.2032 15.872-40.7552 32.6144-40.7552h314.7264c16.7936 0 32.6144 23.552 32.6144 40.7552s-14.9504 40.8064-32.6144 40.8064z" p-id="5740"></path></svg>