<?xml version="1.0" standalone="no"?><!DOCTYPE svg PUBLIC "-//W3C//DTD SVG 1.1//EN" "http://www.w3.org/Graphics/SVG/1.1/DTD/svg11.dtd"><svg t="1559807219478" class="icon" style="" viewBox="0 0 1024 1024" version="1.1" xmlns="http://www.w3.org/2000/svg" p-id="1479" xmlns:xlink="http://www.w3.org/1999/xlink" width="200" height="200"><defs><style type="text/css"></style></defs><path d="M512 1024C229.7 1024 0 794.34 0 512 0 229.703 229.7 0 512 0c282.338 0 512 229.662 512 512 0 282.34-229.662 512-512 512z m0-950.532c-241.819 0-438.533 196.713-438.533 438.533 0 241.785 196.714 438.532 438.532 438.532 241.786 0 438.534-196.714 438.534-438.532 0-241.82-196.748-438.533-438.534-438.533zM456.9 273.23c0-14.427 5.937-28.764 16.138-38.961 10.202-10.2 24.534-16.143 38.961-16.143 14.429 0 28.76 5.942 38.963 16.143 10.2 10.197 16.137 24.534 16.137 38.961 0 14.423-5.936 28.76-16.137 38.963-10.202 10.2-24.534 16.137-38.963 16.137-14.427 0-28.759-5.936-38.96-16.137-10.202-10.203-16.138-24.54-16.138-38.963zM512 805.875c-20.28 0-36.736-16.424-36.736-36.737V438.534c0-20.28 16.457-36.737 36.735-36.737 20.28 0 36.737 16.457 36.737 36.737v330.604c0 20.313-16.457 36.737-36.737 36.737z" p-id="1480"></path></svg>