<?xml version="1.0" standalone="no"?><!DOCTYPE svg PUBLIC "-//W3C//DTD SVG 1.1//EN" "http://www.w3.org/Graphics/SVG/1.1/DTD/svg11.dtd"><svg t="1572427895631" class="icon" viewBox="0 0 1024 1024" version="1.1" xmlns="http://www.w3.org/2000/svg" p-id="2346" xmlns:xlink="http://www.w3.org/1999/xlink" width="200" height="200"><defs><style type="text/css"></style></defs><path d="M512 512m-512 0a512 512 0 1 0 1024 0 512 512 0 1 0-1024 0Z" fill="#DE2910" p-id="2347"></path><path d="M486.4 515.291429a114.834286 114.834286 0 0 1-26.331429-159.268572 2.56 2.56 0 0 1 4.205715 2.925714 109.714286 109.714286 0 0 0 22.857143 150.857143 61.257143 61.257143 0 0 1-16.274286-41.691428 57.965714 57.965714 0 0 1 32.182857-54.857143 87.954286 87.954286 0 0 0 53.76-73.142857 76.8 76.8 0 0 0-10.788571-38.948572q-1.828571-3.108571-4.022858-6.034285a54.857143 54.857143 0 0 1 26.514286-76.434286h-5.851428c-101.485714 0-170.422857 73.142857-170.422858 157.988571a149.028571 149.028571 0 0 0 94.171429 138.605715z m-18.285714-182.857143v-18.285715l14.262857 11.154286 17.188571-5.485714-6.217143 17.005714 10.605715 14.628572h-18.285715l-10.788571 14.628571-5.12-18.285714-17.188571-5.668572z" fill="#FFFFFF" p-id="2348"></path><path d="M327.862857 572.16a149.028571 149.028571 0 0 0 162.011429-47.36 114.834286 114.834286 0 0 1-160.182857-21.211429 2.56 2.56 0 0 1 4.022857-3.108571 109.714286 109.714286 0 0 0 148.297143 23.588571 61.257143 61.257143 0 0 1-43.154286 2.011429 57.965714 57.965714 0 0 1-41.691429-47.36 87.954286 87.954286 0 0 0-53.211428-73.142857 76.8 76.8 0 0 0-40.045715-2.011429l-6.948571 1.828572a54.857143 54.857143 0 0 1-64.548571-48.822857l-2.011429 5.485714c-31.817143 95.634286 16.091429 183.588571 97.462857 210.102857z m-21.028571-101.12v-18.285714l14.262857 11.154285 17.188571-5.485714-6.217143 17.005714 10.605715 14.628572h-18.285715l-10.788571 14.628571-5.12-18.285714-17.188571-5.668571z" fill="#FFFFFF" p-id="2349"></path><path d="M484.754286 628.297143a113.554286 113.554286 0 0 1-54.857143 42.971428 2.56 2.56 0 0 1 0-4.937142 109.714286 109.714286 0 0 0 68.571428-132.571429 61.257143 61.257143 0 0 1-11.52 40.594286 57.965714 57.965714 0 0 1-57.965714 24.868571 87.954286 87.954286 0 0 0-86.674286 27.794286 76.8 76.8 0 0 0-14.262857 36.571428v7.314286a54.857143 54.857143 0 0 1-66.377143 46.262857l4.571429 3.474286c82.102857 59.611429 180.48 41.508571 230.765714-27.611429a149.028571 149.028571 0 0 0 4.571429-169.325714 114.468571 114.468571 0 0 1-16.822857 104.594286z m-77.714286 56.868571l-10.788571 14.628572-5.12-18.285715-17.188572-5.668571 14.994286-10.24v-18.285714l14.262857 11.154285 17.188571-5.485714-6.217142 17.005714 10.605714 14.628572z" fill="#FFFFFF" p-id="2350"></path><path d="M502.308571 517.302857a114.834286 114.834286 0 0 1 117.028572 111.36 2.56 2.56 0 0 1-2.56 2.56 2.56 2.56 0 0 1-2.56-2.56 109.714286 109.714286 0 0 0-104.777143-106.24 61.257143 61.257143 0 0 1 36.571429 23.588572 57.965714 57.965714 0 0 1 5.851428 62.902857 87.954286 87.954286 0 0 0 0 91.428571 76.8 76.8 0 0 0 31.268572 25.234286l6.765714 2.56a54.857143 54.857143 0 0 1 23.588571 77.531428l4.754286-3.291428c82.102857-59.611429 95.268571-158.902857 45.165714-228.022857a149.028571 149.028571 0 0 0-161.097143-57.051429z m116.662858 151.04l-10.788572 14.628572-5.12-18.285715-17.188571-5.668571 14.994285-10.24v-18.285714l14.262858 11.154285 17.188571-5.485714-6.217143 17.005714 10.605714 14.628572z" fill="#FFFFFF" p-id="2351"></path><path d="M802.011429 490.971429c-31.451429-96.548571-121.6-139.702857-202.971429-113.371429a149.028571 149.028571 0 0 0-103.131429 132.937143 114.834286 114.834286 0 0 1 141.714286-76.068572 2.56 2.56 0 1 1-1.462857 4.937143 109.714286 109.714286 0 0 0-134.217143 68.937143 61.257143 61.257143 0 0 1 34.377143-27.977143 57.965714 57.965714 0 0 1 61.622857 13.897143 87.954286 87.954286 0 0 0 86.491429 28.525714 76.8 76.8 0 0 0 33.645714-21.942857l4.571429-5.668571a54.857143 54.857143 0 0 1 81.005714 1.645714c-1.645714-2.194286-1.645714-4.022857-1.645714-5.851428z m-134.034286-29.622858l-10.788572 14.628572-5.12-18.285714-17.188571-5.668572 14.994286-10.24v-18.285714l14.262857 11.154286 17.188571-5.485715-6.217143 17.005715 10.605715 14.628571z" fill="#FFFFFF" p-id="2352"></path></svg>