<?xml version="1.0" standalone="no"?><!DOCTYPE svg PUBLIC "-//W3C//DTD SVG 1.1//EN" "http://www.w3.org/Graphics/SVG/1.1/DTD/svg11.dtd"><svg t="1559786909926" class="icon" style="" viewBox="0 0 1024 1024" version="1.1" xmlns="http://www.w3.org/2000/svg" p-id="5464" xmlns:xlink="http://www.w3.org/1999/xlink" width="200" height="200"><defs><style type="text/css"></style></defs><path d="M512 884.363636c-50.059636 0-98.722909-9.890909-144.64-29.393454A372.922182 372.922182 0 0 1 249.018182 774.981818a372.922182 372.922182 0 0 1-79.965091-118.365091A367.872 367.872 0 0 1 139.636364 512c0-50.059636 9.890909-98.722909 29.393454-144.64a372.945455 372.945455 0 0 1 79.965091-118.365091 372.945455 372.945455 0 0 1 118.365091-79.965091A367.872 367.872 0 0 1 512 139.636364c50.059636 0 98.722909 9.890909 144.64 29.393454a372.945455 372.945455 0 0 1 118.365091 79.965091 372.945455 372.945455 0 0 1 79.965091 118.365091A367.872 367.872 0 0 1 884.363636 512c0 50.059636-9.890909 98.722909-29.393454 144.64A372.922182 372.922182 0 0 1 774.981818 774.981818a372.922182 372.922182 0 0 1-118.365091 79.965091A367.872 367.872 0 0 1 512 884.363636z m0-698.181818c-43.776 0-86.341818 8.634182-126.464 25.693091a326.516364 326.516364 0 0 0-103.633455 70.050909 326.539636 326.539636 0 0 0-70.027636 103.610182A321.629091 321.629091 0 0 0 186.181818 512c0 43.776 8.634182 86.341818 25.693091 126.464a326.516364 326.516364 0 0 0 70.050909 103.633455 326.516364 326.516364 0 0 0 103.610182 70.027636A321.629091 321.629091 0 0 0 512 837.818182c43.776 0 86.341818-8.657455 126.464-25.693091a326.516364 326.516364 0 0 0 103.633455-70.050909 326.516364 326.516364 0 0 0 70.027636-103.610182A321.629091 321.629091 0 0 0 837.818182 512c0-43.776-8.634182-86.341818-25.693091-126.464a326.516364 326.516364 0 0 0-70.050909-103.633455 326.516364 326.516364 0 0 0-103.610182-70.027636A321.652364 321.652364 0 0 0 512 186.181818z m-43.682909 455.168a18.618182 18.618182 0 0 1-12.660364-4.957091l-132.119272-122.042182a18.664727 18.664727 0 0 1 25.320727-27.415272l118.946909 109.847272 211.269818-211.246545a18.664727 18.664727 0 0 1 26.391273 26.391273l-223.930182 223.953454a18.618182 18.618182 0 0 1-13.218909 5.469091z" fill="#1afa29" p-id="5465"></path></svg>