<?xml version="1.0" encoding="utf-8"?>
<!-- Generator: Adobe Illustrator 22.1.0, SVG Export Plug-In . SVG Version: 6.00 Build 0)  -->
<svg version="1.1" id="图层_1" xmlns="http://www.w3.org/2000/svg" xmlns:xlink="http://www.w3.org/1999/xlink" x="0px" y="0px"
	 viewBox="0 0 100 100" style="enable-background:new 0 0 100 100;" xml:space="preserve">
<style type="text/css">
	.st0{fill:#999899;}
	.st1{fill:#F2F2F2;}
</style>
<title>money</title>
<g id="图层_2_1_">
	<g id="图层_1-2">
		<path class="st0" d="M98.2,61.8c-3.8-13.5-11.8-23.9-24.4-31c-1.5-0.8-3-1.5-4.5-2.2c0,0,0-0.1,0-0.1l0.8-0.7
			c2.6-2.4,4.9-5.1,6.1-8.4c0.4-1.2,0.8-2.5,1.2-3.7c0.8-4.6-0.1-7.4-3-9.8c-3.9-3.1-8.2-3.5-12.9-1.7c-0.4,0.1-0.5,0.2-0.8-0.1
			c-6-5.4-15.5-5.5-21.5-0.1c-0.2,0.3-0.6,0.3-0.8,0.2c-2.4-1-5-1.3-7.6-0.8c-4.9,1-9,5-8.3,10.5c0.6,4.7,2.6,9.1,5.9,12.5
			c0.7,0.7,1.4,1.4,2.1,2.2c-0.2,0.1-0.4,0.2-0.6,0.3C13,36.3,1.5,52.5,0.2,71c-0.4,5.1,0,10.2,1.3,15.2c2.2,8.1,9.6,13.8,18,13.8
			c20.5-0.1,40.9,0,61.3,0c6.6,0,11.6-2.8,15.3-8c1.9-2.6,2.7-5.6,3.2-8.7C100.5,76.1,100.2,68.7,98.2,61.8L98.2,61.8z"/>
		<path class="st1" d="M67.1,78.2c-0.7,0.5-1.6,0.8-2.5,0.7H54.1v3.2c0,1-0.4,2-1.1,2.8c-0.7,0.9-1.8,1.3-2.9,1.2
			c-1.1,0-2.1-0.3-3-0.9c-0.8-0.6-1.3-1.6-1.3-3.1V79H35.3c-0.9,0-1.8-0.3-2.5-0.9c-0.6-0.5-0.9-1.4-0.8-2.2c0-0.9,0.3-1.7,1-2.3
			c0.6-0.6,1.5-0.9,2.3-0.9h10.3v-5.6H35.3c-1.8,0.1-3.3-1.4-3.3-3.1c0,0,0-0.1,0-0.1c0-0.9,0.4-1.8,1-2.4c0.6-0.7,1.4-1.1,2.3-1.1
			h10.3l0.2-3.4c-1.8-1.9-3.5-3.8-5-5.5c-1.3-1.5-2.5-2.9-3.6-4.2L34.9,45c-0.6-0.8-1-1.7-1.4-2.7c-0.4-1.1-0.2-2.3,0.6-3.5
			c0.9-1.1,2-1.4,3.3-0.9c1.2,0.4,2.2,1,3.2,1.8c0.7,0.8,1.4,1.7,2.1,2.4l7.2,7.7c1.7-1.7,3.3-3.3,4.7-4.6c1.2-1.2,2.4-2.3,3.6-3.5
			c1.2-1.1,2-1.9,2.6-2.3c0.8-0.8,1.9-1.3,3-1.3c1.1,0,2.1,0.5,2.7,1.4c1.3,1.6,0.8,3.5-1.5,5.6c-0.6,0.6-1.5,1.5-2.7,2.8
			c-1.2,1.4-2.4,2.7-3.6,3.9c-1.4,1.6-3,3.3-4.7,5v3.1h9.8c1.4,0,2.4,0.4,3.1,1.1c0.6,0.6,1,1.4,1,2.3c0,0.9-0.3,1.8-0.9,2.5
			c-0.6,0.7-1.6,1-3,0.9L54.2,67l-0.2,5.5h9.7c2.8,0,4.2,1.1,4.2,3.4C68.1,76.9,67.8,77.7,67.1,78.2L67.1,78.2z"/>
	</g>
</g>
</svg>
