<svg t="1636624019327" class="icon" viewBox="0 0 1024 1024" version="1.1" xmlns="http://www.w3.org/2000/svg" p-id="3494" width="200" height="200"><path d="M640.062532 1024H39.74057v-29.667344a482.140841 482.140841 0 0 1 829.709122-334.455129 29.671994 29.671994 0 0 1-42.745621 41.164603c-80.480808-83.584719-188.687563-129.620253-304.694783-129.620253-223.202588 0-406.61234 173.853891-421.899393 393.25506H640.062532a29.667344 29.667344 0 0 1 0 59.288188z" p-id="3495"></path><path d="M958.893479 892.670852H745.53738a25.366044 25.366044 0 1 1 0-50.732088h213.356099a25.366044 25.366044 0 1 1 0 50.732088z" p-id="3496"></path><path d="M852.221242 999.354714a25.366044 25.366044 0 0 1-25.377669-25.366044V760.620946a25.377669 25.377669 0 0 1 50.743713 0v213.367724a25.366044 25.366044 0 0 1-25.366044 25.366044zM547.375332 555.111812A277.550094 277.550094 0 0 1 351.119806 81.294568a277.550094 277.550094 0 1 1 196.255526 473.817244z m0-495.765499c-120.320145 0-218.215406 97.883635-218.215406 218.215406s97.89526 218.215406 218.215406 218.215405 218.215406-97.89526 218.215405-218.215405S667.695477 59.334688 547.375332 59.334688z" p-id="3497"></path></svg>