<svg xmlns="http://www.w3.org/2000/svg" viewBox="0 0 100 100"><defs><style>.cls-1{fill:#c9a96c;}</style></defs><title>资源 2</title><g id="图层_2" data-name="图层 2"><g id="图层_1-2" data-name="图层 1"><path class="cls-1" d="M63.3,4a4.54,4.54,0,0,1,3.24,1.33l28.14,28a4.55,4.55,0,0,1,0,6.41,4.62,4.62,0,0,1-6.49,0l-6.88-6.86-2.83-2.81-2.82,2.81L64.27,44.24l-2.84,2.83,2.83,2.83c5.27,5.26,8.85,9.75,9.21,14.59.41,5.33-3.21,11.74-11.06,19.58C55.27,91.21,43.06,96,32,96c-5.82,0-14.1-1.34-20.48-7.71-8.26-8.25-8-19.9-7.11-26.12,1.33-9.32,5.79-18.93,11.35-24.49,7.56-7.55,13.71-11.22,18.82-11.22S44.14,30,49.83,35.67l2.82,2.82,2.83-2.82L66.94,24.26l2.85-2.84-2.85-2.83-6.89-6.86a4.54,4.54,0,0,1,0-6.4A4.55,4.55,0,0,1,63.3,4h0m0-4a8.53,8.53,0,0,0-6.07,14.57l6.89,6.85L52.66,32.84c-5.93-5.93-11.37-10.38-18-10.38-5.87,0-12.7,3.45-21.65,12.39C1,46.82-6.93,75.48,8.72,91.12,15,97.41,23.42,100,32,100c12.59,0,25.63-5.53,33.21-13.1C84,68.12,78.42,58.4,67.09,47.07L78.48,35.73l6.89,6.86A8.56,8.56,0,1,0,97.5,30.51l-28.14-28A8.58,8.58,0,0,0,63.3,0Z"/><path class="cls-1" d="M25.34,75l-.21-.2a5,5,0,0,1,0-7L39.77,53.18a5,5,0,0,1,7,0l.21.21a5,5,0,0,1,0,7L32.37,75A5,5,0,0,1,25.34,75Z"/></g></g></svg>