<?xml version="1.0" encoding="utf-8"?>
<!-- Generator: Adobe Illustrator 22.0.0, SVG Export Plug-In . SVG Version: 6.00 Build 0)  -->
<svg version="1.1" id="图层_1" xmlns="http://www.w3.org/2000/svg" xmlns:xlink="http://www.w3.org/1999/xlink" x="0px" y="0px"
	 viewBox="0 0 100 100" style="enable-background:new 0 0 100 100;" xml:space="preserve">
<style type="text/css">
	.st0{fill:url(#SVGID_1_);}
</style>
<title>资源 1</title>
<g id="图层_2_1_">
	<g id="图层_1-2">
		
			<linearGradient id="SVGID_1_" gradientUnits="userSpaceOnUse" x1="49.995" y1="6.88" x2="49.995" y2="95.63" gradientTransform="matrix(1 0 0 -1 0 101.26)">
			<stop  offset="0" style="stop-color:#CD7D29"/>
			<stop  offset="1" style="stop-color:#FAAC49"/>
		</linearGradient>
		<path class="st0" d="M81.2,19c0-7.4-5.6-13.3-12.5-13.3H31.3c-6.9,0-12.5,5.9-12.5,13.3C-2.6,19,0.1,19,0.1,32.3
			c0,11.1,8.4,20,18.7,20c0.7,0,1.5-0.1,2.2-0.2c4.2,13,14,24.9,25.9,26.7v9h-9.3c-1.8,0.1-3.3,1.7-3.2,3.5c0.1,1.7,1.5,3.1,3.2,3.2
			h24.9c1.8-0.1,3.3-1.7,3.2-3.5c-0.1-1.7-1.5-3.1-3.2-3.2h-9.3v-9.1C65,76.9,74.8,65.1,79,52c0.7,0.1,1.4,0.2,2.2,0.2
			c10.3,0,18.7-8.9,18.7-20C99.9,18.9,102.5,19,81.2,19L81.2,19z M18.9,45.6c-6.9,0-12.5-6-12.5-13.4s0.1-6.6,12.5-6.6V45.6z
			 M81.2,45.6v-20c12.3,0,12.5-0.7,12.5,6.7S88.1,45.6,81.2,45.6z"/>
	</g>
</g>
</svg>
