<?xml version="1.0" standalone="no"?><!DOCTYPE svg PUBLIC "-//W3C//DTD SVG 1.1//EN" "http://www.w3.org/Graphics/SVG/1.1/DTD/svg11.dtd"><svg t="1559786932980" class="icon" style="" viewBox="0 0 1024 1024" version="1.1" xmlns="http://www.w3.org/2000/svg" p-id="5678" xmlns:xlink="http://www.w3.org/1999/xlink" width="200" height="200"><defs><style type="text/css"></style></defs><path d="M854.970182 367.36A372.945455 372.945455 0 0 0 774.981818 249.018182a372.945455 372.945455 0 0 0-118.365091-79.965091A367.872 367.872 0 0 0 512 139.636364c-50.036364 0-98.722909 9.890909-144.64 29.393454a372.945455 372.945455 0 0 0-118.365091 79.965091 372.945455 372.945455 0 0 0-79.965091 118.365091A367.872 367.872 0 0 0 139.636364 512c0 50.059636 9.890909 98.722909 29.393454 144.64a372.922182 372.922182 0 0 0 79.965091 118.365091 372.898909 372.898909 0 0 0 118.365091 79.965091A367.872 367.872 0 0 0 512 884.363636c50.059636 0 98.722909-9.890909 144.64-29.393454A372.898909 372.898909 0 0 0 774.981818 774.981818a372.898909 372.898909 0 0 0 79.965091-118.365091A367.872 367.872 0 0 0 884.363636 512c0-50.036364-9.890909-98.722909-29.393454-144.64z m-42.845091 271.104a326.516364 326.516364 0 0 1-70.050909 103.633455 326.516364 326.516364 0 0 1-103.610182 70.027636A321.629091 321.629091 0 0 1 512 837.818182a321.629091 321.629091 0 0 1-126.464-25.693091 326.516364 326.516364 0 0 1-103.633455-70.050909 326.516364 326.516364 0 0 1-70.027636-103.610182A321.629091 321.629091 0 0 1 186.181818 512c0-43.776 8.634182-86.341818 25.693091-126.464a326.516364 326.516364 0 0 1 70.050909-103.633455 326.539636 326.539636 0 0 1 103.610182-70.027636A321.629091 321.629091 0 0 1 512 186.181818c43.776 0 86.341818 8.634182 126.464 25.693091a326.516364 326.516364 0 0 1 103.633455 70.050909 326.516364 326.516364 0 0 1 70.027636 103.610182A321.652364 321.652364 0 0 1 837.818182 512c0 43.776-8.657455 86.341818-25.693091 126.464z m-159.883636-266.705455a18.664727 18.664727 0 0 0-26.391273 0l-113.757091 113.803637-113.780364-113.803637a18.664727 18.664727 0 1 0-26.391272 26.414546l113.780363 113.803636-113.780363 113.803637a18.664727 18.664727 0 0 0 26.391272 26.414545l113.780364-113.803636 113.757091 113.803636a18.618182 18.618182 0 0 0 26.391273 0 18.664727 18.664727 0 0 0 0-26.391273L538.484364 512l113.757091-113.826909a18.664727 18.664727 0 0 0 0-26.414546z" fill="#d81e06" p-id="5679"></path></svg>