<?xml version="1.0" standalone="no"?>
<!DOCTYPE svg PUBLIC "-//W3C//DTD SVG 1.1//EN" 
"http://www.w3.org/Graphics/SVG/1.1/DTD/svg11.dtd">

<svg width="100%" height="100%" version="1.1"
xmlns="http://www.w3.org/2000/svg">

<path d="M991.9709375 512.0909375c0-264.616875-214.6734375-479.131875-479.4871875-479.131875C247.6653125 32.9590625 32.9871875 247.475 32.9871875 512.0909375c0 244.441875 183.1790625 446.113125 419.8471875 475.45875 13.3425 2.8125 29.5921875 4.4503125 48.946875 4.4503125 5.43375 0 10.6734375-0.2859375 15.733125-0.8034375 262.49625-2.698125 474.4565625-216.1575 474.4565625-479.105625z m-68.5621875 6.7790625c-1.3790625-23.90625-4.5375-47.30625-9.346875-70.048125 0.4275-8.120625 0.54375-15.81375 0.32625-22.9659375 5.9465625 27.80625 9.0825 56.655 9.0825 86.235a408.703125 408.703125 0 0 1-0.061875 6.7790625z m-821.9203125-6.778125c0-29.041875 3.0234375-57.3759375 8.7609375-84.714375 17.74875 18.9825 59.581875 18.534375 69.78375-9.8278125 18.2540625 10.8796875 42.7846875 12.860625 42.7846875 34.6059375 0 71.765625 2.555625 148.704375 67.7625 149.893125 1.835625 0.024375 36.36375 13.085625 52.79625 55.7025 5.68125 14.73 28.1559375 0 52.801875 0 12.30375 0 0 20.728125 0 65.551875 0 44.649375 96.2625 113.4 96.2625 113.4-0.4453125 29.5546875 0.76875 53.4534375 3.2278125 72.5465625-21.7284375-0.4003125-40.040625 2.4796875-54.4265625 7.37625C248.2128125 882.9171875 101.4875 714.6340625 101.4875 512.0909375z m512.175 398.143125c-2.1309375-10.4315625-11.4515625-16.14375-28.45875-11.67375 13.569375-57.7875 20.1665625-90.159375 48.495-114.7378125 40.9875-35.5303125 4.880625-75.04125-26.3090625-70.3846875-24.583125 3.7115625-9.0478125-30.4378125-30.99-32.326875-21.94125-1.835625-50.596875-45.48-82.1746875-60.496875-16.7390625-7.95-33.1903125-29.25375-59.00625-30.208125-22.8815625-0.886875-56.32125 19.348125-56.32125 3.75 0-50.2415625-5.0878125-86.0925-6.133125-100.41-0.84375-11.503125-7.51875-3.8746875 23.413125-3.13125 16.8346875 0.4509375 8.611875-33.81375 25.275-35.1515625 16.365-1.295625 55.36125 15.31875 65.296875 8.6971875 9.230625-6.1659375 67.8478125 153.8690625 67.8478125 26.4534375 0-15.118125-7.8290625-41.40375 0-55.7221875 30.965625-56.58 59.955-102.6928125 57.3515625-109.438125-1.4765625-3.7978125-31.68-6.93375-55.846875 1.1746875-8.1553125 2.7234375 2.595 15.496875-9.1190625 18.225-43.888125 10.1325-82.6640625-11.833125-69.0853125-32.4796875 13.9040625-21.159375 64.284375-9.230625 68.701875-51.6796875 2.540625-24.315 4.64625-52.475625 6.05625-73.4053125 59.06625 9.2371875 52.56375-76.6565625-35.263125-85.850625 177.680625 2.0784375 328.2459375 116.8275 383.4965625 276.0815625-2.79375-2.5490625-6.0459375-4.0978125-9.800625-4.4765625-26.55375-66.328125-91.006875-18.32625-69.1425 40.1765625-117.15 90.054375-87.1621875 152.8621875-48.673125 188.8284375 20.2528125 18.9065625 39.5625 47.3409375 52.134375 67.7625-13.68375 39.9 50.420625 23.923125 82.035-43.790625-40.2140625 139.4653125-152.3971875 248.4478125-293.7796875 284.214375z" fill=""></path>
</svg>