<?xml version="1.0" encoding="utf-8"?>
<!-- Generator: Adobe Illustrator 22.1.0, SVG Export Plug-In . SVG Version: 6.00 Build 0)  -->
<svg version="1.1" id="图层_1" xmlns="http://www.w3.org/2000/svg" xmlns:xlink="http://www.w3.org/1999/xlink" x="0px" y="0px"
	 viewBox="0 0 100 100" style="enable-background:new 0 0 100 100;" xml:space="preserve">
<path d="M50,0C22.3,0,0,22.3,0,50s22.3,50,50,50s50-22.3,50-50S77.7,0,50,0z M74.8,37.2c0,0.6,0,1.1,0,1.7c0,16.9-13,36.4-36.4,36.4
	c-7.2,0-13.9-2.2-19.7-5.8c0.9,0.2,2,0.2,3.1,0.2c5.9,0,11.6-2,15.9-5.5c-5.6-0.2-10.3-3.8-12-8.9c0.8,0.2,1.6,0.2,2.3,0.2
	c1.1,0,2.3-0.2,3.4-0.5c-5.9-1.2-10.3-6.4-10.3-12.5v-0.2c1.7,0.9,3.8,1.6,5.8,1.6c-3.4-2.3-5.8-6.2-5.8-10.6c0-2.3,0.6-4.5,1.7-6.4
	c6.2,7.8,15.8,12.8,26.4,13.4c-0.2-0.9-0.3-1.9-0.3-3c0-7,5.8-12.8,12.8-12.8c3.8,0,7,1.6,9.4,4.1c3-0.6,5.6-1.7,8.1-3.1
	c-0.9,3-3,5.5-5.6,7c2.7-0.3,5-0.9,7.3-2C79.5,33.1,77.3,35.5,74.8,37.2L74.8,37.2z"/>
</svg>
