<svg t="1636624059473" class="icon" viewBox="0 0 1024 1024" version="1.1" xmlns="http://www.w3.org/2000/svg" p-id="3789" width="200" height="200"><path d="M486.4 98.2C367.6 98.2 271 194.7 271 313.5s96.6 215.4 215.4 215.4 215.4-96.6 215.4-215.4S605.9 98.2 486.4 98.2z m0 371.7c-86.2 0-155.6-70.2-155.6-155.6 0-86.2 70.2-155.6 155.6-155.6 86.2 0 155.6 70.2 155.6 155.6 0.7 85.4-69.4 155.6-155.6 155.6zM535.5 788.8l39.3-39.3 136.1 136.1-39.3 39.3-136.1-136.1z" p-id="3790"></path><path d="M880.3 637.7l39.3 39.3-248.1 248.1-39.3-39.3 248.1-248.1zM740.7 625.5c-67.4-59.8-156.3-96.6-254.3-96.6-211.2 0-382.1 170.9-382.1 382.1h55.6c0-180.7 145.9-326.6 326.6-326.6 82 0 157 30.6 214.7 80.6l39.5-39.5z" p-id="3791"></path><path d="M694.2 646.4c0 15.3 12.4 27.8 27.8 27.8s27.8-12.4 27.8-27.8-12.4-27.8-27.8-27.8-27.8 12.4-27.8 27.8z" p-id="3792"></path></svg>