<?xml version="1.0" standalone="no"?><!DOCTYPE svg PUBLIC "-//W3C//DTD SVG 1.1//EN" "http://www.w3.org/Graphics/SVG/1.1/DTD/svg11.dtd"><svg t="1585795042877" class="icon" viewBox="0 0 1024 1024" version="1.1" xmlns="http://www.w3.org/2000/svg" p-id="1983" xmlns:xlink="http://www.w3.org/1999/xlink" width="200" height="200"><defs><style type="text/css"></style></defs><path d="M572.6 476.4v-1.9c36.8-8.4 56.2-31.6 57.1-68.7-2.8-35.3-23-57.6-59.9-66v-43.7c0-10.7-8.7-19.5-19.3-19.5-10.6 0-19.3 8.8-19.3 19.5V336H499v-39.9c0-10.7-8.7-19.5-19.3-19.5-10.6 0-19.3 8.8-19.3 19.5V336h-78.3c-12.2 0-22.1 10-22.1 22.3s9.9 22.3 22.1 22.3H416V586h-34.1c-12.2 0-22.1 10-22.1 22.3s9.9 22.3 22.1 22.3h77.3v40.9c0 10.7 8.7 19.5 19.3 19.5 10.6 0 19.3-8.8 19.3-19.5v-40.9H530v40.9c0 10.7 8.7 19.5 19.3 19.5 10.6 0 19.3-8.8 19.3-19.5v-42.7c47.9-6.5 72.7-34.4 72.7-81.8-3.4-39-26.4-62.2-68.7-70.6zM458.4 370.5h69.1c36.8 0 56.2 13.9 57.1 42.7-0.9 30.7-20.3 46.5-57.1 47.4h-69.1v-90.1z m80.1 226.7h-80.1V496.8H533c39.6 0.9 60.8 16.7 62.6 47.4 0 34.4-19.4 52-57.1 53z m-37.8 295.2C291 892.4 120.4 721.7 120.4 512S291 131.6 500.7 131.6 881.1 302.3 881.1 512c0 15.6 12.6 28.2 28.2 28.2s28.2-12.6 28.2-28.2c0-240.8-195.9-436.7-436.7-436.7S64 271.2 64 512c0 240.8 195.9 436.7 436.7 436.7 15.6 0 28.2-12.6 28.2-28.2s-12.6-28.1-28.2-28.1z m459.3-85c0-1.5-0.2-2.9-0.4-4.4-0.1-0.7-0.4-1.3-0.6-2-0.2-0.8-0.4-1.5-0.7-2.2-0.3-0.8-0.8-1.5-1.2-2.3-0.3-0.5-0.5-1.1-0.9-1.6-0.8-1.3-1.8-2.4-2.9-3.5l-75.9-75.9c-8.8-8.8-23.1-8.8-31.9 0-8.8 8.8-8.8 23.1 0 31.9l37.5 37.5H655.7c-12.5 0-22.5 10.1-22.5 22.5 0 12.5 10.1 22.5 22.5 22.5h281.8c1.5 0 3-0.2 4.4-0.4 0.7-0.1 1.3-0.4 2-0.6 0.7-0.2 1.5-0.4 2.2-0.7 0.7-0.3 1.4-0.7 2.1-1.1 0.6-0.3 1.2-0.6 1.8-1 1-0.7 1.9-1.4 2.7-2.2 0.2-0.2 0.5-0.4 0.7-0.6 0.2-0.2 0.3-0.4 0.5-0.6 0.8-0.9 1.6-1.8 2.3-2.8 0.4-0.6 0.7-1.2 1-1.9 0.4-0.7 0.8-1.3 1.1-2 0.3-0.8 0.5-1.6 0.7-2.4 0.2-0.6 0.4-1.2 0.5-1.8 0.3-1.4 0.5-2.9 0.5-4.4z" p-id="1984"></path></svg>