<?xml version="1.0" encoding="utf-8"?>
<!-- Generator: Adobe Illustrator 22.1.0, SVG Export Plug-In . SVG Version: 6.00 Build 0)  -->
<svg version="1.1" id="图层_1" xmlns="http://www.w3.org/2000/svg" xmlns:xlink="http://www.w3.org/1999/xlink" x="0px" y="0px"
	 viewBox="0 0 612 792" style="enable-background:new 0 0 612 792;" xml:space="preserve">
<style type="text/css">
	.st0{fill:#FFFFFF;}
	.st1{fill:none;}
	.st2{fill:#1A1A1A;}
</style>
<path class="st0" d="M556,779.1c355.9-184.7,85.2-564.8,33.6-600.5c18,38.5,20.5,102.4-15.6,133.1C515,86.5,369.2,43,369.2,43
	c18,115.1-61.4,240.8-138,335.5c-2.5-45.9-4.9-77-30.7-122.9c-4.9,84-68.8,150.7-86.8,235.1c-22.9,115.1,46.7,227.3,174.1,282.6
	C287.7,773.4,436.8,824.6,556,779.1L556,779.1z M556,779.1"/>
<rect x="109.4" y="43.1" class="st1" width="627.8" height="755.8"/>
<path class="st2" d="M360.2,602.2h-31.5v-60.6h-62.3v60.6h-31.1v-147h31.1v59.4h62.7v-59.4h31.5v147H360.2z M385.6,530.5
	c0-22.9,6.6-41.8,20.1-56.1c13.5-14.3,31.1-21.7,53.2-21.7c20.9,0,38.1,7,50.8,20.9c12.7,13.9,19.2,31.9,19.2,54.1
	c0,22.9-6.6,41.4-20.1,55.7c-13.5,14.3-30.7,21.3-52.4,21.3c-20.9,0-38.1-7-51.2-20.9C392.2,569.8,385.6,552.2,385.6,530.5
	L385.6,530.5z M418.4,528.8c0,14.3,3.3,25.8,10.2,35.2c7,9,16.4,13.5,28.3,13.5c12.3,0,21.7-4.5,28.7-13.1
	c7-8.6,10.2-20.5,10.2-35.2c0-15.2-3.3-27.4-9.8-36.5c-6.6-9-16-13.5-28.3-13.5c-12.3,0-22.1,4.5-29.1,13.5
	C422.1,502.2,418.4,514.1,418.4,528.8L418.4,528.8z M646.9,480.5h-41.8v121.2h-31.5V480.5h-41.8v-25.8h115.1V480.5z M646.9,480.5"/>
</svg>
