<svg xmlns="http://www.w3.org/2000/svg" viewBox="0 0 28 28" width="28" height="28"><path d="M12.5 17.207L18.707 11h2l3.647-3.646-.708-.708L20.293 10h-2L12.5 15.793l-3-3-4.854 4.853.708.708L9.5 14.207z"></path><path d="M9 16h1v1H9zm1 1h1v1h-1zm-1 1h1v1H9zm2 0h1v1h-1zm-1 1h1v1h-1zm-1 1h1v1H9zm2 0h1v1h-1zm-3-3h1v1H8zm-1 1h1v1H7zm-1 1h1v1H6zm2 0h1v1H8zm-1 1h1v1H7zm-2 0h1v1H5zm17-9h1v1h-1zm1-1h1v1h-1zm0 2h1v1h-1zm-1 1h1v1h-1zm-1 1h1v1h-1zm2 0h1v1h-1zm-1 1h1v1h-1zm-1 1h1v1h-1zm2 0h1v1h-1zm-1 1h1v1h-1zm-1 1h1v1h-1zm2 0h1v1h-1zm-1 1h1v1h-1zm-1 1h1v1h-1zm2 0h1v1h-1zm-5-7h1v1h-1zm2 0h1v1h-1zm1-1h1v1h-1zm-2 2h1v1h-1zm-1 1h1v1h-1zm2 0h1v1h-1zm-1 1h1v1h-1zm-1 1h1v1h-1zm2 0h1v1h-1zm-1 1h1v1h-1zm-1 1h1v1h-1zm2 0h1v1h-1zm-1 1h1v1h-1zm-2-6h1v1h-1zm-1 1h1v1h-1zm-1 1h1v1h-1zm2 0h1v1h-1zm-1 1h1v1h-1zm-1 1h1v1h-1zm2 0h1v1h-1zm-1 1h1v1h-1zm-1 1h1v1h-1zm2 0h1v1h-1zm-3-3h1v1h-1zm-1 1h1v1h-1zm-1 1h1v1h-1zm2 0h1v1h-1zm-1 1h1v1h-1z"></path></svg>