<?xml version="1.0" standalone="no"?><!DOCTYPE svg PUBLIC "-//W3C//DTD SVG 1.1//EN" "http://www.w3.org/Graphics/SVG/1.1/DTD/svg11.dtd"><svg t="1568603858634" class="icon" viewBox="0 0 1024 1024" version="1.1" xmlns="http://www.w3.org/2000/svg" p-id="2894" xmlns:xlink="http://www.w3.org/1999/xlink" width="200" height="200"><defs><style type="text/css"></style></defs><path d="M1000.6528 316.6208c-2.4576-50.3808-10.6496-84.7872-22.9376-115.0976-12.6976-31.1296-29.4912-57.7536-56.5248-83.968a241.50016 241.50016 0 0 0-87.2448-54.4768c-31.1296-11.8784-67.1744-19.6608-119.1936-22.1184C662.3232 38.5024 645.5296 38.0928 512 38.0928 378.4704 38.0928 361.6768 38.5024 309.248 40.96c-52.0192 2.4576-88.064 10.6496-119.1936 22.528-32.3584 12.288-59.8016 28.2624-87.2448 54.4768-27.0336 26.2144-43.8272 52.8384-56.5248 83.968-12.288 30.3104-20.48 64.7168-22.9376 115.0976C20.8896 367.4112 20.48 383.3856 20.48 512c0 128.6144 0.4096 144.5888 2.8672 195.3792 2.4576 50.3808 10.6496 84.7872 22.9376 115.0976 12.6976 31.1296 29.4912 57.7536 56.5248 83.968 27.4432 26.2144 54.8864 42.5984 87.2448 54.4768 31.1296 11.8784 67.1744 19.6608 119.1936 22.1184 52.4288 2.4576 69.2224 2.8672 202.752 2.8672 133.5296 0 150.3232-0.4096 202.752-2.8672 52.4288-2.4576 88.064-10.24 119.1936-22.1184 32.3584-12.288 59.8016-28.2624 87.2448-54.4768 27.4432-26.2144 44.2368-52.8384 56.5248-83.968 12.288-30.3104 20.48-64.7168 22.9376-115.0976 2.4576-50.3808 2.8672-66.7648 2.8672-195.3792 0-128.6144-0.4096-144.5888-2.8672-195.3792z m-88.4736 386.6624c-2.048 46.2848-10.24 71.2704-16.7936 88.064-9.0112 22.1184-19.6608 37.6832-36.864 54.4768-17.2032 16.384-33.5872 27.0336-56.5248 35.6352-17.2032 6.5536-43.4176 14.336-91.3408 16.384-52.0192 2.4576-67.1744 2.8672-198.656 2.8672-131.072 0-146.6368-0.4096-198.656-2.8672-47.9232-2.048-74.1376-9.8304-91.3408-16.384-22.9376-8.6016-39.3216-18.8416-56.5248-35.6352-17.2032-16.384-27.8528-32.3584-36.864-54.4768-6.5536-16.7936-14.7456-41.7792-16.7936-88.064-2.4576-49.9712-2.8672-64.7168-2.8672-191.2832s0.4096-141.312 2.8672-191.2832c2.4576-46.2848 10.24-71.2704 17.2032-88.064 9.0112-22.1184 19.6608-37.6832 36.864-54.4768 17.2032-16.384 33.5872-26.624 56.5248-35.2256 17.2032-6.5536 43.4176-14.336 91.3408-16.384 51.6096-2.4576 67.1744-2.8672 198.2464-2.8672s146.6368 0.4096 198.656 2.8672c47.9232 2.048 73.728 9.8304 91.3408 16.384 22.9376 8.6016 39.3216 18.8416 56.5248 35.2256 17.2032 16.384 27.8528 32.3584 36.864 54.4768 6.5536 16.7936 14.7456 41.7792 16.7936 88.064 2.4576 49.9712 2.8672 64.7168 2.8672 191.2832s-0.4096 141.312-2.8672 191.2832zM512 268.6976c-139.264 0-252.3136 108.9536-252.3136 243.3024 0 134.3488 113.0496 243.3024 252.3136 243.3024 139.264 0 252.3136-108.9536 252.3136-243.3024 0-134.3488-113.0496-243.3024-252.3136-243.3024z m0 400.9984c-90.5216 0-163.84-70.8608-163.84-157.696 0-87.2448 73.3184-157.696 163.84-157.696s163.84 70.8608 163.84 157.696c0 87.2448-73.3184 157.696-163.84 157.696z m262.5536-467.3536c-32.768 0-58.9824 25.3952-58.9824 56.9344 0 31.5392 26.2144 56.9344 58.9824 56.9344 32.768 0 58.9824-25.3952 58.9824-56.9344 0-31.5392-26.624-56.9344-58.9824-56.9344z" fill="" p-id="2895"></path></svg>