<?xml version="1.0" encoding="utf-8"?>
<!-- Generator: Adobe Illustrator 22.1.0, SVG Export Plug-In . SVG Version: 6.00 Build 0)  -->
<svg version="1.1" id="图层_1" xmlns="http://www.w3.org/2000/svg" xmlns:xlink="http://www.w3.org/1999/xlink" x="0px" y="0px"
	 viewBox="0 0 100 100" style="enable-background:new 0 0 100 100;" xml:space="preserve">
<style type="text/css">
	.st0{fill:url(#SVGID_1_);}
	.st1{fill:url(#SVGID_2_);}
</style>
<linearGradient id="SVGID_1_" gradientUnits="userSpaceOnUse" x1="6" y1="53.145" x2="94" y2="53.145">
	<stop  offset="0" style="stop-color:#EBEBEB"/>
	<stop  offset="0" style="stop-color:#CD7D29"/>
	<stop  offset="0.9966" style="stop-color:#FAAC49"/>
	<stop  offset="1" style="stop-color:#000000"/>
</linearGradient>
<path class="st0" d="M84.6,6.5H73.2c-2.2,0.1-4,2-4,4.2c0,0.2,0,0.3,0,0.5v6.6H30.8v-6.6c0.1-1.2-0.2-2.4-1-3.3
	C29,7,27.8,6.5,26.7,6.5h-0.2v0h-11c-5.2,0-9.4,4.3-9.4,9.6v74.1c0,5.3,4.2,9.6,9.4,9.6h69.2c5.2,0,9.4-4.3,9.4-9.6V16.1
	C94,10.9,89.8,6.5,84.6,6.5z M23.7,74.4c-1.1,0-2.1-0.7-2.5-1.7c-0.4-1.1-0.2-2.3,0.6-3.1c0.8-0.8,2-1,3-0.6s1.7,1.5,1.7,2.6
	c0,0.7-0.3,1.5-0.8,2C25.1,74.1,24.4,74.4,23.7,74.4z M23.7,57.4c-1.1,0-2.1-0.7-2.5-1.7c-0.4-1.1-0.2-2.3,0.6-3.1
	c0.8-0.8,2-1,3-0.6c1,0.4,1.7,1.5,1.7,2.6c0,0.7-0.3,1.5-0.8,2C25.1,57.1,24.4,57.4,23.7,57.4L23.7,57.4z M23.7,40.4
	c-1.5,0-2.8-1.3-2.8-2.8c0-1.6,1.2-2.8,2.8-2.8c1.5,0,2.8,1.3,2.8,2.8c0,0,0,0,0,0c0,0.7-0.3,1.5-0.8,2
	C25.1,40.1,24.4,40.4,23.7,40.4z M75.9,74.4H37.4c-1,0-1.9-0.5-2.4-1.4c-0.5-0.9-0.5-2,0-2.9c0.5-0.9,1.4-1.4,2.4-1.4h38.5
	c1,0,1.9,0.5,2.4,1.4c0.5,0.9,0.5,2,0,2.9C77.9,73.8,76.9,74.4,75.9,74.4z M75.9,57.4H37.4c-1,0-1.9-0.5-2.4-1.4
	c-0.5-0.9-0.5-2,0-2.9c0.5-0.9,1.4-1.4,2.4-1.4h38.5c1,0,1.9,0.5,2.4,1.4c0.5,0.9,0.5,2,0,2.9C77.9,56.9,76.9,57.4,75.9,57.4z
	 M75.9,40.4H37.4c-1,0-1.9-0.5-2.4-1.4c-0.5-0.9-0.5-2,0-2.9c0.5-0.9,1.4-1.4,2.4-1.4h38.5c1.5,0,2.8,1.3,2.8,2.8
	C78.7,39.2,77.5,40.4,75.9,40.4z"/>
<linearGradient id="SVGID_2_" gradientUnits="userSpaceOnUse" x1="34.5042" y1="7.3378" x2="65.1247" y2="7.3378">
	<stop  offset="0" style="stop-color:#EBEBEB"/>
	<stop  offset="0" style="stop-color:#CD7D29"/>
	<stop  offset="0.9966" style="stop-color:#FAAC49"/>
	<stop  offset="1" style="stop-color:#000000"/>
</linearGradient>
<path class="st1" d="M39.3,14.5h21.1c2.6,0,4.8-2.1,4.8-4.8c0,0,0,0,0-0.1V5c0-2.6-2.1-4.8-4.8-4.8H39.3c-2.6,0-4.8,2.1-4.8,4.8
	c0,0,0,0,0,0.1v4.6C34.5,12.3,36.6,14.5,39.3,14.5z"/>
</svg>
