<?xml version="1.0" standalone="no"?><!DOCTYPE svg PUBLIC "-//W3C//DTD SVG 1.1//EN" "http://www.w3.org/Graphics/SVG/1.1/DTD/svg11.dtd"><svg t="1585795032451" class="icon" viewBox="0 0 1038 1024" version="1.1" xmlns="http://www.w3.org/2000/svg" p-id="1864" xmlns:xlink="http://www.w3.org/1999/xlink" width="202.734375" height="200"><defs><style type="text/css"></style></defs><path d="M408.388712 698.694493c-15.063188-7.464812-9.676058-29.903768 7.18284-29.903768l392.147479 0.237449c10.625855 0 18.283594 10.047072 15.37484 20.138667l-4.778666 16.473043a15.938783 15.938783 0 0 1-15.389682 11.427246L594.96448 716.503188c-7.331246 0-13.727536 4.912232-15.523246 11.946667l-7.583537 29.770203a16.027826 16.027826 0 0 1-22.661565 10.24l-140.79258-69.750725z m471.782029-219.165681l140.79258 69.750724c15.063188 7.479652 9.690899 29.918609-7.168 29.918609l-392.17716-0.237449c-10.611014 0-18.253913-10.047072-15.36-20.138667l4.778667-16.473043a15.938783 15.938783 0 0 1 15.37484-11.427247l207.990725 0.563942c7.346087 0 13.727536-4.912232 15.523246-11.931826l7.583537-29.785043a16.027826 16.027826 0 0 1 22.676405-10.24z m-581.038377-127.896116c2.448696-5.951072 8.310725-9.839304 14.796058-9.839305h316.416c11.160116 0 18.877217 10.982029 14.988986 21.296232l-6.841508 18.16487a15.953623 15.953623 0 0 1-14.988985 10.269681H306.433929c-11.338203 0-19.070145-11.353043-14.796058-21.741449l7.494493-18.150029z m705.728928-148.108986c25.021217 35.053449 28.983652 80.792116 13.905623 121.039768l-22.824812 60.757334a15.953623 15.953623 0 0 1-14.988985 10.284521h-17.036986c-11.130435 0-18.847536-10.952348-14.988985-21.26655l25.407072-67.628522c9.052754-24.115942 7.42029-51.496812-6.722782-73.075015-15.345159-23.418435-40.678029-36.923362-68.949334-36.923362h-596.73971c-34.133333 0-65.001739 21.029101-76.770319 52.298203L52.214799 709.721043a77.06713 77.06713 0 0 0 9.661217 72.94145c15.493565 21.741449 39.921159 34.192696 67.06458 34.192695h254.634667a15.87942 15.87942 0 0 1 15.968463 15.790377v15.790377a15.87942 15.87942 0 0 1-15.968463 15.790377H128.940596c-42.918957 0-81.608348-19.752812-106.184348-54.168116-25.036058-35.06829-29.013333-80.806957-13.905623-121.054609L180.214799 232.551884c18.69913-49.745623 67.613681-83.181449 121.692753-83.181449h596.739711c42.933797 0 81.623188 19.737971 106.214029 54.168116z" p-id="1865"></path></svg>