<?xml version="1.0" standalone="no"?><!DOCTYPE svg PUBLIC "-//W3C//DTD SVG 1.1//EN" "http://www.w3.org/Graphics/SVG/1.1/DTD/svg11.dtd"><svg t="1606272624349" class="icon" viewBox="0 0 1693 1024" version="1.1" xmlns="http://www.w3.org/2000/svg" p-id="3558" xmlns:xlink="http://www.w3.org/1999/xlink" width="330.6640625" height="200"><defs><style type="text/css"></style></defs><path d="M838.444829 891.49386a510.789048 510.789048 0 1 0-168.834713-379.028109 508.413718 508.413718 0 0 0 168.834713 379.028109z" fill="#FAB31E" p-id="3559"></path><path d="M1021.484945 457.22769a480.748112 480.748112 0 0 0-8.942418-54.399709h-312.705176a542.786137 542.786137 0 0 1 13.972528-53.514782h283.828618a630.952788 630.952788 0 0 0-21.424543-54.399709h-240.653506c8.988993-18.257437 18.350587-36.934049 29.109433-54.399709h181.642863a475.485127 475.485127 0 0 0-38.936777-53.514782h-103.443283a449.3565 449.3565 0 0 1 52.11753-54.399709 510.789048 510.789048 0 1 0 51.232602 705.379788h-103.396707a626.76103 626.76103 0 0 1-38.843627-54.399709h181.177112a396.633494 396.633494 0 0 0 29.947785-54.399709h-240.606931q-12.43555-26.221777-22.262895-53.514782h284.108069c5.961612-17.46566 10.665696-36.142272 14.99718-54.399709 3.399982-17.46566 7.219139-36.142272 8.942418-54.399709 1.723278-17.46566 2.515055-35.257346 2.515055-53.514782 0.139725-20.446466-0.652051-38.564177-2.37533-56.122988z" fill="#E40520" p-id="3560"></path><path d="M1621.977622 608.922769a16.068407 16.068407 0 0 1 15.695807-16.906759 16.254708 16.254708 0 0 1 16.580733 16.906759 16.813609 16.813609 0 0 1-16.580733 16.953334 16.114982 16.114982 0 0 1-15.695807-16.953334z m15.695807 12.62185a12.62185 12.62185 0 1 0-12.295825-12.5287 12.43555 12.43555 0 0 0 12.249249 12.482125z m-1.676704-5.21641h-3.399982v-14.298554h9.78077c1.676703 0.838352 1.676703 2.56163 1.676703 4.331484a4.657509 4.657509 0 0 1-2.515055 3.446557l3.399982 6.054762h-4.238333l-1.863004-5.169835h-2.515055l-0.512326 5.635586v-8.243792h1.723278c0.838352 0 1.723278 0 1.723279-0.838351 0.838352 0 0.838352-0.838352 0.838351-1.723279 0 0 0-0.931502-0.838351-0.931502 0-0.838352-0.838352 0-1.723279 0h-1.676703z m-459.230419-248.804148l-9.78077 57.33394A102.930956 102.930956 0 0 0 1117.802238 410.559447c-41.172382 0-70.468116 41.218958-70.468116 99.810425 0 40.380606 19.514964 64.692805 51.744928 64.692804a105.911762 105.911762 0 0 0 46.575094-13.460202l-9.78077 60.547622a189.281179 189.281179 0 0 1-48.391522 8.243791c-59.848995 0-96.736469-43.873738-96.736469-115.04048 0-94.221414 50.906577-160.637497 123.889748-160.637497a110.708997 110.708997 0 0 1 25.430001 2.56163l22.076595 5.216411a133.297917 133.297917 0 0 1 14.624579 5.03011z m-177.40453 39.495679h-5.076685c-18.257437 0-28.829983 9.315019-45.829892 35.164195l5.076685-33.394342h-50.1148l-34.372419 215.735832h55.14491c20.399891-131.993814 25.523151-154.582734 51.791504-154.582734h3.399982a220.486491 220.486491 0 0 1 21.238242-62.084599z m-317.828437 214.245429a115.878832 115.878832 0 0 1-39.449104 7.40544c-27.945056 0-43.734013-16.068407-43.734012-47.786046a160.451196 160.451196 0 0 1 1.676703-18.630037l3.446557-21.703994 2.515055-16.953334 23.799873-147.177294h54.259983l-6.380787 32.136814h27.945056l-7.21914 52.955881h-27.572455l-14.81088 89.843355a34.605294 34.605294 0 0 0-0.838351 9.315018c0 10.898572 5.076685 15.230055 18.210861 15.230056a37.260075 37.260075 0 0 0 14.857455-1.723279z m-211.776949-144.382789a63.062676 63.062676 0 0 0 41.172383 60.314745c22.914946 10.898572 26.314928 14.298554 26.314928 23.287547 0 13.460202-9.78077 19.93414-31.391613 19.93414a155.514236 155.514236 0 0 1-49.276449-8.243792l-8.057491 49.5559 2.515055 0.838351 9.78077 1.723279a58.684617 58.684617 0 0 0 14.857454 1.723278 201.157828 201.157828 0 0 0 29.71491 1.769854c58.172291 0 85.325571-22.542345 85.325571-72.098245a60.17502 60.17502 0 0 0-38.610753-60.314745c-23.799873-10.898572-26.314928-13.460202-26.314927-23.287547 0-11.736923 9.78077-16.953334 27.106704-16.953334a347.543346 347.543346 0 0 1 39.449104 2.65478l8.104066-49.462749a322.25307 322.25307 0 0 0-48.391522-4.331483c-61.059947 0-83.136541 33.394342-82.251614 72.936596z m1127.629583 147.177294h-51.698354l2.515055-20.865641a65.205131 65.205131 0 0 1-50.906576 23.287546c-40.334031 0-66.648958-35.164195-66.648959-89.051578 0-72.051669 41.172382-132.832166 89.563904-132.832166a62.690076 62.690076 0 0 1 52.629856 29.528609l12.295824-75.591376h54.353134z m-81.040662-50.394251c25.430001 0 42.849086-30.366961 42.849085-72.936596 0-27.945056-9.78077-41.917584-28.829982-41.917583-24.638224 0-42.895661 29.528609-42.895661 72.098244 0 28.643682 9.78077 42.988811 28.829983 42.988811z m-666.349859 46.062768a172.607296 172.607296 0 0 1-57.24079 9.315018 84.533794 84.533794 0 0 1-93.150186-96.829619c0-73.774948 40.287456-128.500682 95.898117-128.500682a71.306468 71.306468 0 0 1 74.520149 78.153007 212.382425 212.382425 0 0 1-7.172565 53.840807h-108.939143a17.046484 17.046484 0 0 0-0.838351 6.054763c0 25.197125 16.580733 37.818976 48.438097 37.818975a118.487037 118.487037 0 0 0 57.287364-13.460202l-8.895843 53.840808z m-30.506686-128.500683v-10.898571a24.638224 24.638224 0 0 0-26.314928-27.945056c-17.419085 0-29.714909 13.460202-35.210771 38.657327zM260.215046 624.152825H205.768762l31.438188-204.092059-71.353043 204.092059h-37.725825L123.889748 421.784044l-33.487492 202.368781H39.402529l42.849086-264.872556h79.177658l2.515055 164.549805 52.629856-164.549805H302.738106z m135.812972-95.991268c-5.076685 0-8.104066-0.838352-12.295825-0.838351-30.553261 0-46.575093 11.736923-46.575093 33.394342a19.049213 19.049213 0 0 0 19.514964 21.750568c22.68207-0.465751 38.377877-22.169744 39.216229-54.306559z m40.334031 95.991268h-45.736742l0.838352-22.635496a68.465387 68.465387 0 0 1-58.125717 26.035477 51.977804 51.977804 0 0 1-50.068225-58.591467c0-52.955881 35.21077-83.369417 96.783044-83.369417 5.915037 0 13.972528 0.838352 22.914946 1.723279a49.462749 49.462749 0 0 0 1.676703-13.460202c0-14.298554-9.78077-19.93414-35.21077-19.93414a184.530519 184.530519 0 0 0-45.829892 5.21641l-8.104066 2.56163-5.076686 0.838352 8.104067-48.577822a210.426271 210.426271 0 0 1 65.764031-10.898572c47.506595 0 72.936596 21.703993 72.936596 62.922951a286.855999 286.855999 0 0 1-4.238333 42.988811l-12.295825 76.383153-1.676703 13.460202-0.838352 10.805421-0.838351 8.243792c0 0.931502-1.257528 6.054762-1.257528 6.054762z m829.269535-95.991268c-5.961612 0-8.942418-0.838352-12.3424-0.838351-31.391613 0-47.55317 11.736923-47.55317 33.394342a19.654689 19.654689 0 0 0 20.399891 21.750568c21.657418-0.465751 38.657327-22.169744 39.449104-54.306559z m40.287455 95.991268h-45.829891l0.838351-22.635496a68.465387 68.465387 0 0 1-58.125716 26.035477 51.977804 51.977804 0 0 1-50.068225-58.591467c0-52.955881 35.21077-83.369417 96.783043-83.369417 5.915037 0 13.972528 0.838352 22.076595 1.723279a63.947603 63.947603 0 0 0 2.515055-13.460202c0-14.298554-9.78077-19.93414-35.210771-19.93414a191.703084 191.703084 0 0 0-46.575093 5.21641l-7.172564 2.56163-5.076686 0.838352 8.010916-48.577822a210.892022 210.892022 0 0 1 65.764032-10.898572c47.55317 0 72.191395 21.703993 72.191395 62.922951a202.555081 202.555081 0 0 1-4.238334 42.988811l-11.504048 76.383153-1.676703 13.460202-1.723279 10.805421-0.838351 8.243792v6.054762zM1453.142909 407.066315h-5.262985c-18.210861 0-28.829983 9.315019-45.829892 35.164195l5.12326-33.394342h-50.02165l-33.487492 215.735832h54.353134c20.399891-131.993814 25.430001-154.582734 51.791503-154.582734h3.399982a222.163195 222.163195 0 0 1 21.191668-62.084599L1453.142909 407.066315z" fill="#FFFFFF" p-id="3561"></path></svg>