<svg id="图层_1" data-name="图层 1" xmlns="http://www.w3.org/2000/svg" viewBox="0 0 819.08 819.2">
<defs>
  <style></style>
</defs><title></title><path class="cls-1" d="M911.43-291.62C688.5-291.62,507.18-113.53,502,108.14v19.69C507.18,349.5,688.5,527.58,911.43,527.58,1137.65,527.58,1321,344.2,1321,118S1137.65-291.62,911.43-291.62ZM797.37,339.9H694.09V29.59H797.37ZM745.72-12.77h-.67C710.4-12.77,688-36.6,688-66.39,688-96.83,711.06-120,746.4-120s57.1,23.17,57.76,53.61C804.16-36.6,781.74-12.77,745.72-12.77ZM1169.81,339.9H1066.55v-166c0-41.7-15-70.16-52.34-70.16-28.54,0-45.53,19.18-53,37.71-2.73,6.65-3.39,15.9-3.39,25.16V339.9H854.52s1.37-281.18,0-310.31h103.3v44c13.71-21.13,38.24-51.25,93.08-51.25,68,0,118.91,44.36,118.91,139.68Z" transform="translate(-501.95 291.62)"/></svg>