<?xml version="1.0" standalone="no"?><!DOCTYPE svg PUBLIC "-//W3C//DTD SVG 1.1//EN" "http://www.w3.org/Graphics/SVG/1.1/DTD/svg11.dtd"><svg t="1536248153779" class="icon" style="" viewBox="0 0 1024 1024" version="1.1" xmlns="http://www.w3.org/2000/svg" p-id="5118" xmlns:xlink="http://www.w3.org/1999/xlink" width="200" height="200"><defs><style type="text/css"></style></defs><path d="M512 63.488c126.976 3.072 232.448 47.104 316.416 131.072s128 190.464 132.096 317.44c-3.072 126.976-47.104 232.448-131.072 316.416S638.976 956.416 512 960.512c-126.976-3.072-232.448-47.104-316.416-131.072S67.584 638.976 63.488 512c3.072-126.976 47.104-232.448 131.072-316.416S385.024 67.584 512 63.488z m66.56 275.456c17.408 0 31.744-5.12 43.008-15.36s17.408-24.576 17.408-41.984-6.144-30.72-17.408-41.984-25.6-14.336-43.008-14.336c-16.384 0-30.72 5.12-41.984 15.36s-17.408 24.576-17.408 41.984 6.144 30.72 17.408 41.984c11.264 9.216 25.6 14.336 41.984 14.336z m12.288 360.448c0-4.096 0-9.216 1.024-16.384s1.024-13.312 0-19.456c-17.408 20.48-39.936 46.08-53.248 61.44-5.12 6.144-11.264 10.24-16.384 14.336s-10.24 4.096-14.336 3.072c-6.144-3.072-8.192-7.168-8.192-14.336 29.696-92.16 65.536-207.872 88.064-277.504 3.072-18.432 0-34.816-9.216-48.128s-24.576-21.504-45.056-23.552c-23.552 1.024-49.152 10.24-76.8 29.696s-52.224 43.008-72.704 72.704v15.36c-1.024 7.168-1.024 13.312 0 19.456 17.408-20.48 39.936-46.08 53.248-61.44 5.12-6.144 11.264-10.24 16.384-14.336s10.24-4.096 13.312-3.072c7.168 3.072 9.216 8.192 7.168 16.384-28.672 92.16-65.536 206.848-87.04 276.48-5.12 16.384-2.048 31.744 7.168 44.032s25.6 21.504 49.152 26.624c33.792-1.024 61.44-10.24 83.968-28.672s44.032-44.032 63.488-72.704z" p-id="5119"></path></svg>