<?xml version="1.0" encoding="utf-8"?>
<!-- Generator: Adobe Illustrator 22.1.0, SVG Export Plug-In . SVG Version: 6.00 Build 0)  -->
<svg version="1.1" id="图层_1" xmlns="http://www.w3.org/2000/svg" xmlns:xlink="http://www.w3.org/1999/xlink" x="0px" y="0px"
	 viewBox="0 0 100 100" style="enable-background:new 0 0 100 100;" xml:space="preserve">
<title>biyong</title>
<g id="图层_2_1_">
	<g id="图层_1-2">
		<path d="M58.7,33.6H42.3c-3.9-0.2-7,2.8-7.3,6.6c0,0.2,0,0.5,0,0.6v13c0,4.5,0,8.9,0,13.4c-0.2,0.8,0.3,1.4,0.9,1.7
			c0.6,0.3,1.6,0.2,2-0.5c1.2-1.2,2.5-2.5,3.8-3.6c0.3-0.3,0.8-0.5,1.1-0.5c5.3,0,10.6,0,15.9,0c3.9,0.2,7-2.8,7.2-6.7
			c0-0.2,0-0.3,0-0.5V40.8c0.2-3.9-2.8-7-6.6-7.2C59.2,33.6,59.1,33.6,58.7,33.6z M45,51.4c-1.4,0-2.5-1.1-2.5-2.5
			c0-1.4,1.1-2.5,2.5-2.5c1.4,0,2.5,1.1,2.5,2.5l0,0C47.5,50.3,46.4,51.4,45,51.4L45,51.4z M56.4,51.4c-1.4-0.2-2.3-1.2-2.3-2.7
			c0.2-1.2,1.1-2.2,2.3-2.3c1.4,0,2.5,1.1,2.5,2.5l0,0C59.1,50.3,57.8,51.6,56.4,51.4L56.4,51.4z"/>
		<path d="M50,0C22.3,0,0,22.3,0,50s22.3,50,50,50s50-22.3,50-50S77.7,0,50,0z M75.9,51.1c6.6,6.1,6.9,16.4,0.8,23
			c-3,3.3-7.2,5.2-11.6,5.2c-1.4,0-2.8,0-4.4,0c0,0.3,0,0.5,0,0.8c0,1.9,0,3.8,0,5.6c0.2,0.8-0.5,1.7-1.2,1.7c-0.2,0-0.3,0-0.5,0
			c-0.5,0-0.9,0-1.4,0c-1.2,0-1.9-0.5-1.9-1.9v-6.4H45.3v6.4c0,1.3-0.6,1.9-1.9,1.9c-0.5,0-1.1,0-1.6,0c-0.9,0-1.6-0.6-1.7-1.4v-0.2
			c0-1.9,0-3.8,0-5.6v-0.9h-0.9c-4.8,0-9.7,0-14.5,0c-3.3,0-5.8-2.7-5.8-5.8c0-0.9,0.2-1.7,0.6-2.5c0.5-1.1,1.4-2,2.3-2.5
			c0.3-0.2,0.6-0.5,0.5-0.9V32.2c0-0.3-0.2-0.8-0.5-0.8c-2.8-1.6-3.8-5.2-2.2-8c1.1-1.9,3-3,5.2-3c4.8,0,9.7,0,14.5,0h0.9v-0.9
			c0-1.7,0-3.6,0-5.3c-0.2-0.8,0.5-1.6,1.4-1.7h0.2h1.6c1.2,0,1.9,0.6,1.9,1.9v5.9h10.3v-1.2c0-1.6,0-3.1,0-4.7
			c-0.2-0.8,0.5-1.7,1.2-1.9c0.2,0,0.3,0,0.5,0h1.4c0.8-0.2,1.7,0.5,1.7,1.2c0,0.2,0,0.3,0,0.5c0,1.9,0,3.7,0,5.5v0.6h0.8
			c1.6,0,3,0,4.5,0.2c6.6,0.3,12,4.7,14.1,10.8c2.3,6.4,0.6,12.2-4.1,17l-0.2,0.2c-0.6,0.5-0.9,1.2-0.5,2
			C75.5,50.8,75.6,50.9,75.9,51.1z"/>
	</g>
</g>
</svg>
