<?xml version="1.0" standalone="no"?><!DOCTYPE svg PUBLIC "-//W3C//DTD SVG 1.1//EN" "http://www.w3.org/Graphics/SVG/1.1/DTD/svg11.dtd"><svg t="1559439023718" class="icon" style="" viewBox="0 0 1024 1024" version="1.1" xmlns="http://www.w3.org/2000/svg" p-id="1162" xmlns:xlink="http://www.w3.org/1999/xlink" width="200" height="200"><defs><style type="text/css"></style></defs><path d="M907.6 173.7L844.2 203c-9.9-10.6-20.3-20.8-31.2-30.3C724 94.5 610.1 56.4 493.3 65.2c-117.2 8.8-224 63.5-300.8 154.1C115.9 309.8 78.4 425.4 87 544.8c8.7 119.3 62.5 228.1 151.5 306.3 82.9 72.8 185.2 108.4 286.9 108.4 123.6 0.1 246.6-52.5 333.5-155 19.3-22.8 16.9-57.3-5.5-77-22.4-19.7-56.2-17.2-75.6 5.6C658 874.6 447.4 890.3 308.5 768.4c-67.3-59.2-108-141.5-114.5-231.6-6.5-90.3 21.8-177.7 79.7-246.1 58.1-68.5 138.9-109.9 227.5-116.6 86.6-6.4 170.7 21.2 237.4 77.8l-53.8 24.9c-15.4 7.1-17.4 28.5-3.7 38.5l189.8 138.4c17.8 13 42.7 1.4 44.8-20.8l22.7-236.7c1.7-17.1-15.5-29.6-30.8-22.5zM498.9 287.2c-22 0-39.9 18.2-39.9 40.6V580c0 11.6 9.5 23.2 28.3 34.3 3.3 4.4 9.4 7.8 14.4 10.6l148.2 91.4c6.1 3.6 12.6 5.4 19.1 5.4 3.2 0 6.5-0.5 9.6-1.4 9.1-2.8 17.1-9.5 22.4-18.9 10.5-18.6 2.4-43.5-17.9-55.5l-144.4-85.1v-233c0.1-22.4-17.8-40.6-39.8-40.6z" p-id="1163"></path></svg>