<?xml version="1.0" encoding="utf-8"?>
<!-- Generator: Adobe Illustrator 22.1.0, SVG Export Plug-In . SVG Version: 6.00 Build 0)  -->
<svg version="1.0" id="图层_1" xmlns="http://www.w3.org/2000/svg" xmlns:xlink="http://www.w3.org/1999/xlink" x="0px" y="0px"
	 viewBox="0 0 100 100" style="enable-background:new 0 0 100 100;" xml:space="preserve">
<path d="M12.5,43.7c0-17.3,14-31.2,31.3-31.2C61,12,75.4,25.6,75.9,42.9S62.8,74.5,45.5,75c-0.6,0-1.2,0-1.8,0
	C26.5,75,12.5,61,12.5,43.7z M97.7,86.4l-17-17c13.9-20.1,8.8-47.7-11.4-61.6C61.9,2.7,53.2,0,44.2,0C19.8,0,0,19.9,0,44.3
	c0,24.4,19.8,44.3,44.2,44.3c0,0,0,0,0,0c9,0,17.8-2.8,25.2-7.9l17,17c3.1,3.1,8.1,3.1,11.3,0c0,0,0,0,0,0
	C100.8,94.5,100.8,89.5,97.7,86.4C97.7,86.4,97.7,86.4,97.7,86.4z"/>
</svg>
