<?xml version="1.0" encoding="utf-8"?>
<!-- Generator: Adobe Illustrator 22.1.0, SVG Export Plug-In . SVG Version: 6.00 Build 0)  -->
<svg version="1.1" id="图层_1" xmlns="http://www.w3.org/2000/svg" xmlns:xlink="http://www.w3.org/1999/xlink" x="0px" y="0px"
	 viewBox="0 0 100 100" style="enable-background:new 0 0 100 100;" xml:space="preserve">
<path d="M56.6,50c-1.1,0-2.3,1.1-2.3,2.3c0,1.1,1.1,2.2,2.3,2.2c1.7,0,3-1.1,3-2.2C59.5,51.1,58.3,50,56.6,50L56.6,50z M49.1,39.1
	c1.7,0,3-1.1,3-2.8c0-1.7-1.1-2.8-3-2.8c-1.7,0-3.3,1.1-3.3,2.8C45.8,37.8,47.5,39.1,49.1,39.1L49.1,39.1z M50,0C22.3,0,0,22.3,0,50
	s22.3,50,50,50s50-22.3,50-50C100,22.5,77.7,0,50,0L50,0z M40.6,62.7c-3,0-5.2-0.5-8.1-1.2l-8.3,4.2l2.3-7
	c-5.8-4.1-9.2-9.2-9.2-15.5c0-11.1,10.5-19.5,23.1-19.5c11.2,0,21.2,6.7,23.3,16.1c-0.8-0.2-1.6-0.3-2.2-0.3
	c-11.1,0-19.7,8.3-19.7,18.3c0,1.7,0.3,3.3,0.6,4.8C42,62.7,41.3,62.7,40.6,62.7L40.6,62.7L40.6,62.7z M74.5,70.6l1.6,5.9l-6.2-3.4
	c-2.3,0.5-4.7,1.2-7,1.2c-10.9,0-19.5-7.5-19.5-16.7s8.6-16.7,19.5-16.7c10.3,0,19.7,7.5,19.7,16.7C82.7,62.7,79.1,67.3,74.5,70.6
	L74.5,70.6L74.5,70.6z M33,33.3c-1.7,0-3.4,1.1-3.4,2.8c0,1.7,1.7,2.8,3.4,2.8c1.6,0,3-1.1,3-2.8C35.9,34.4,34.7,33.3,33,33.3
	L33,33.3z M69.4,50c-1.2,0-2.3,1.1-2.3,2.3c0,1.1,1.1,2.2,2.3,2.2c1.6,0,2.8-1.1,2.8-2.2C72.2,51.1,71.1,50,69.4,50z"/>
</svg>
