<?xml version="1.0" standalone="no"?><!DOCTYPE svg PUBLIC "-//W3C//DTD SVG 1.1//EN" "http://www.w3.org/Graphics/SVG/1.1/DTD/svg11.dtd"><svg t="1560753209476" class="icon" style="" viewBox="0 0 1024 1024" version="1.1" xmlns="http://www.w3.org/2000/svg" p-id="3134" xmlns:xlink="http://www.w3.org/1999/xlink" width="200" height="200"><defs><style type="text/css"></style></defs><path d="M192 384l128 0L320 256 192 256 192 384zM64 960l384 0L448 576 64 576 64 960zM128 640l256 0 0 256L128 896 128 640zM192 832l128 0 0-128L192 704 192 832zM512 128l0 384 384 0L896 128 512 128zM832 448 576 448 576 192l256 0L832 448zM832 704l-128 0L704 576 576 576 512 576l0 128 0 256 64 0 0-256 64 0 0 64 192 0 64 0L896 576l-64 0L832 704zM64 512l384 0L448 128 64 128 64 512zM128 192l256 0 0 256L128 448 128 192zM768 256l-128 0 0 128 128 0L768 256zM832 960l64 0 0-128-64 0L832 960zM704 960l64 0 0-128-64 0L704 960z" p-id="3135" fill="#ea9518"></path></svg>