<?xml version="1.0" standalone="no"?><!DOCTYPE svg PUBLIC "-//W3C//DTD SVG 1.1//EN" "http://www.w3.org/Graphics/SVG/1.1/DTD/svg11.dtd"><svg t="1589015332335" class="icon" viewBox="0 0 1024 1024" version="1.1" xmlns="http://www.w3.org/2000/svg" p-id="5245" xmlns:xlink="http://www.w3.org/1999/xlink" width="200" height="200"><defs><style type="text/css"></style></defs><path d="M512.007483 0a511.992575 511.992575 0 1 0 511.992575 511.764109A511.992575 511.992575 0 0 0 512.007483 0z m54.374937 746.170348v73.56609h-102.809754v-74.251489C397.774423 731.091584 342.942554 689.282284 337.9163 614.573863h75.393819c3.655458 40.438503 31.528325 71.966828 101.89589 71.966828 75.39382 0 91.386448-37.69691 91.386448-61.228921 0-31.756791-16.906493-61.914319-102.809754-82.247803-95.270372-22.846612-159.926284-62.371251-159.926284-141.192062 0-66.255175 53.689538-109.435271 119.716247-123.600171V204.020245h102.809754v75.165354a135.708875 135.708875 0 0 1 109.663737 130.225688h-75.393819c-2.056195-42.494698-24.674341-71.738362-85.446329-71.738362s-91.386448 26.045138-91.386448 63.056649c0 32.213723 24.902807 53.461072 102.581288 73.337625s159.926284 53.689538 159.926284 150.559173c-0.685398 70.367565-53.00414 108.978339-119.944713 121.543976z" p-id="5246"></path></svg>