<?xml version="1.0" standalone="no"?><!DOCTYPE svg PUBLIC "-//W3C//DTD SVG 1.1//EN" "http://www.w3.org/Graphics/SVG/1.1/DTD/svg11.dtd"><svg t="1560844748736" class="icon" style="" viewBox="0 0 1024 1024" version="1.1" xmlns="http://www.w3.org/2000/svg" p-id="3971" xmlns:xlink="http://www.w3.org/1999/xlink" width="400" height="400"><defs><style type="text/css"></style></defs><path d="M870.5 827.4L682.8 639.7c45-55.4 69.5-124 69.5-196.4 0-83.5-32.5-161.9-91.5-220.9s-137.5-91.5-221-91.5-161.9 32.5-220.9 91.5-91.5 137.4-91.5 220.9 32.5 161.9 91.5 220.9 137.4 91.5 220.9 91.5c73.6 0 143.3-25.3 199.2-71.8l187.5 187.5c12.1 12.1 31.9 12.1 44 0 12.1-12 12.1-31.8 0-44zM439.8 693.6c-137.9 0-250.1-112.2-250.1-250.1s112.2-250.2 250.1-250.2 250.1 112.2 250.1 250.1-112 250.2-250.1 250.2z" p-id="3972" fill="#ffffff"></path></svg>