<?xml version="1.0" encoding="utf-8"?>
<!-- Generator: Adobe Illustrator 22.0.0, SVG Export Plug-In . SVG Version: 6.00 Build 0)  -->
<svg version="1.1" id="图层_1" xmlns="http://www.w3.org/2000/svg" xmlns:xlink="http://www.w3.org/1999/xlink" x="0px" y="0px"
	 width="100px" height="100px" viewBox="0 0 100 100" style="enable-background:new 0 0 100 100;" xml:space="preserve">
<style type="text/css">
	.st0{fill:#FFFFFF;}
</style>
<path class="st0" d="M63.5,15.8c5.6-7.2,4.3-15,3.9-15.6c-0.7-0.7-9.1,0.7-15,8.5c-5.2,7.2-5.2,15-4.6,15.6
	C48.5,24.9,56.9,24.2,63.5,15.8L63.5,15.8z"/>
<path class="st0" d="M77.6,52.2C76.9,41.8,86.7,35.3,88.6,34v-0.7c0,0-8.5-10.4-20.8-9.8c-7.8,0.7-11.7,4.6-16.9,4.6
	c-6.5,0-12.4-4.6-19.5-4.6c-5.9,0-22.8,5.2-24.1,27.3C6.2,73.1,21.8,93.7,27.6,97.6c5.9,3.9,9.8,2.6,16.3-0.7
	c3.3-2,13.7-2.6,19.5,1.3c7.2,2.6,17.6,0.7,29.3-25.4C91.2,73.1,78.2,69.8,77.6,52.2L77.6,52.2z"/>
</svg>
