<?xml version="1.0" standalone="no"?><!DOCTYPE svg PUBLIC "-//W3C//DTD SVG 1.1//EN" "http://www.w3.org/Graphics/SVG/1.1/DTD/svg11.dtd"><svg t="1559287752680" class="icon" style="" viewBox="0 0 1024 1024" version="1.1" xmlns="http://www.w3.org/2000/svg" p-id="1763" xmlns:xlink="http://www.w3.org/1999/xlink" width="400" height="400"><defs><style type="text/css"></style></defs><path d="M512 0C230.4 0 0 230.4 0 512s230.4 512 512 512 512-230.4 512-512S793.6 0 512 0z m0 938.642c-234.642 0-426.642-192-426.642-426.642S277.358 85.358 512 85.358s426.642 192 426.642 426.642-192 426.642-426.642 426.642zM512 704a65.61 65.61 0 0 0-64 64c0 34.158 29.842 64 64 64a65.61 65.61 0 0 0 64-64 65.61 65.61 0 0 0-64-64z m0-535.99a66.56 66.56 0 0 0-66.56 66.56l25.161 344.21c0 36.717 4.608 66.56 41.399 66.56 36.718 0 41.399-29.77 41.399-66.56l25.234-344.138A66.633 66.633 0 0 0 512 168.082z" p-id="1764" fill="#5D82E1"></path></svg>