<?xml version="1.0" encoding="utf-8"?>
<!-- Generator: Adobe Illustrator 22.0.0, SVG Export Plug-In . SVG Version: 6.00 Build 0)  -->
<svg version="1.1" id="Layer_1" xmlns="http://www.w3.org/2000/svg" xmlns:xlink="http://www.w3.org/1999/xlink" x="0px" y="0px"
	 viewBox="0 0 100 100" style="enable-background:new 0 0 100 100;" xml:space="preserve">
<style type="text/css">
	.st0{fill:#1EB478;}
</style>
<g>
	<path class="st0" d="M56.1,44.2v7.5c-2,0.1-4,0.2-6.1,0.2c-2.3,0-4.5-0.1-6.7-0.2v-6l0,0v-1.5c-11.8,0.6-20.5,2.6-20.5,5
		c0,2.9,12.1,5.2,27.1,5.2S77,52.1,77,49.2C77.1,46.8,68.2,44.8,56.1,44.2z"/>
	<path class="st0" d="M50,0C22.4,0,0,22.4,0,50s22.4,50,50,50s50-22.4,50-50S77.6,0,50,0z M56.1,58.5v22.1H43.3V58.5
		c-13.7-0.8-24-4-24-7.8s10.3-7,24-7.8v-6.2H25.9V23.9h47.7v12.8H56.1v6.2c14,0.7,24.5,4,24.5,7.8S70.1,57.7,56.1,58.5z"/>
</g>
</svg>
