<?xml version="1.0" standalone="no"?><!DOCTYPE svg PUBLIC "-//W3C//DTD SVG 1.1//EN" "http://www.w3.org/Graphics/SVG/1.1/DTD/svg11.dtd"><svg t="1594453037099" class="icon" viewBox="0 0 1024 1024" version="1.1" xmlns="http://www.w3.org/2000/svg" p-id="1815" xmlns:xlink="http://www.w3.org/1999/xlink" width="200" height="200"><defs><style type="text/css"></style></defs><path d="M642.656 940.667l-252.714 0c-22.298 0-44.597-8.67899999-44.59699999-34.716l-1e-8-347.155c0-26.037-7.433-34.716-29.731-34.716l-148.656 0c-35.678 0-38.651-53.81000001-13.378-83.317l331.503-387.077c14.866-17.358 40.137-17.358 56.489 0l331.502 387.07800001c25.271 29.509 14.866 83.317-20.812 83.31699999l-136.76300001-5.209c-22.298 0-41.623 13.886-41.62299998 39.923l-1e-8 347.155c-1.486 24.301-8.91900001 34.716-31.218 34.715v0z" p-id="1816"></path></svg>