<?xml version="1.0" standalone="no"?>
<!DOCTYPE svg PUBLIC "-//W3C//DTD SVG 1.1//EN" "http://www.w3.org/Graphics/SVG/1.1/DTD/svg11.dtd">
<svg t="1571886491831" class="icon" viewBox="0 0 1024 1024" version="1.1" xmlns="http://www.w3.org/2000/svg" p-id="2427" xmlns:xlink="http://www.w3.org/1999/xlink" width="200" height="200"><defs><style type="text/css"></style></defs><path d="M922.048 910.72a34.496 34.496 0 0 1-29.376 15.808H130.24a34.496 34.496 0 0 1-29.376-15.808 29.824 29.824 0 0 1 0-31.68 34.432 34.432 0 0 1 29.376-16.064h762.368a34.432 34.432 0 0 1 29.376 15.808 29.696 29.696 0 0 1 0.064 31.936z m-388.672-247.104a234.624 234.624 0 0 1-128 59.328l-82.688 6.912c-40.064 3.264-62.08 5.12-66.24 5.12a32.384 32.384 0 0 1-22.72-9.344c-10.816-10.752-10.816-10.752-4.352-88.768l6.912-82.56a234.688 234.688 0 0 1 59.392-128l304.128-303.808a97.984 97.984 0 0 1 134.848 0l102.848 102.784a95.168 95.168 0 0 1 0 134.4z m259.136-393.6l-102.912-102.784a32 32 0 0 0-44.8 0l-304 303.744a169.28 169.28 0 0 0-40.96 88.384l-6.976 82.496-2.176 26.752 26.752-2.176 82.688-6.912a169.728 169.728 0 0 0 88.384-40.96l304.064-303.744a32 32 0 0 0-0.128-44.8z"  p-id="2428"></path></svg>