<svg xmlns="http://www.w3.org/2000/svg" viewBox="0 0 222.66 283.46"><defs><style>.cls-1{fill:#d32f2f;}.cls-2{fill:#f44336;}.cls-3{fill:#ffca28;}.cls-4{fill:#ffa000;}.cls-5{fill:#ffb300;}.cls-6{fill:#ff8f00;}</style></defs><title>资源 1</title><g id="图层_2" data-name="图层 2"><g id="图层_1-2" data-name="图层 1"><path class="cls-1" d="M53.4,111.6l57.87,57.87L219.19,61.55a11.84,11.84,0,0,0,3.47-8.7l-1-41.25A11.91,11.91,0,0,0,209.71,0L169.83.06a11.92,11.92,0,0,0-8.4,3.5Z"/><path class="cls-2" d="M169.27,111.63,111.39,169.5,3.47,61.58A11.84,11.84,0,0,1,0,52.88L1.05,11.63A11.91,11.91,0,0,1,13,0L52.83.09a11.89,11.89,0,0,1,8.4,3.5Z"/><path class="cls-3" d="M13,185.05a98.41,98.41,0,0,0,196.82,0h0A98.41,98.41,0,1,0,13,185Z"/><path class="cls-4" d="M150,150.85l28.43,38.05c.06-1.28.12-2.57.12-3.85a67.11,67.11,0,1,0-82.74,65.29L67.51,212.52,150,150.85Z"/><path class="cls-5" d="M178.41,188.9a67.18,67.18,0,0,1-82.59,61.41l24.48,32.76a98.45,98.45,0,0,0,82.54-61.49L178.41,188.9Z"/><path class="cls-6" d="M178.41,188.9,150,150.85,67.54,212.49l28.28,37.82a67.18,67.18,0,0,0,82.59-61.41Z"/><path class="cls-3" d="M60,185.05a51.45,51.45,0,1,0,51.45-51.45A51.45,51.45,0,0,0,60,185.05Z"/></g></g></svg>