<?xml version="1.0" standalone="no"?><!DOCTYPE svg PUBLIC "-//W3C//DTD SVG 1.1//EN" "http://www.w3.org/Graphics/SVG/1.1/DTD/svg11.dtd"><svg t="1541335965274" class="icon" style="" viewBox="0 0 1024 1024" version="1.1" xmlns="http://www.w3.org/2000/svg" p-id="1228" xmlns:xlink="http://www.w3.org/1999/xlink" width="1024" height="1024"><defs><style type="text/css"></style></defs><path d="M252 462h524c19.9 0 36-16.1 36-36s-16.1-36-36-36H339.4l59-59c14.1-14.1 14.1-36.9 0-50.9-14.1-14.1-36.9-14.1-50.9 0L230.3 397.2c-8.7 6.6-14.3 17-14.3 28.8 0 19.9 16.1 36 36 36zM802 564c-8.5-8.5-20.3-11.9-31.4-10H252c-19.9 0-36 16.1-36 36s16.1 36 36 36h437.1l-58.5 58.5c-14.1 14.1-14.1 36.9 0 50.9 7 7 16.2 10.5 25.5 10.5s18.4-3.5 25.5-10.5L802 615c14-14.1 14-36.9 0-51z" p-id="1229" fill="#C9A96C"></path></svg>