<?xml version="1.0" encoding="utf-8"?>
<!-- Generator: Adobe Illustrator 22.1.0, SVG Export Plug-In . SVG Version: 6.00 Build 0)  -->
<svg version="1.1" id="图层_1" xmlns="http://www.w3.org/2000/svg" xmlns:xlink="http://www.w3.org/1999/xlink" x="0px" y="0px"
	 viewBox="0 0 100 100" style="enable-background:new 0 0 100 100;" xml:space="preserve">
<style type="text/css">
	.st0{fill:#3BC58F;}
</style>
<path class="st0" d="M50,0C22.4,0,0,22.4,0,50c0,27.6,22.4,50,50,50c27.6,0,50-22.4,50-50C100,22.4,77.6,0,50,0L50,0z M77.3,38.1
	L44.8,70.7c-0.8,0.8-2,0.8-2.8,0L22.7,51.4c-0.8-0.8-0.8-2,0-2.8l6.1-6.1c0.8-0.8,2-0.8,2.8,0l11.9,11.9l25.1-25.1
	c0.8-0.8,2-0.8,2.8,0l6.1,6.1C78.1,36.1,78.1,37.4,77.3,38.1L77.3,38.1L77.3,38.1z"/>
</svg>
