<?xml version="1.0" standalone="no"?>
<!DOCTYPE svg PUBLIC "-//W3C//DTD SVG 1.1//EN" "http://www.w3.org/Graphics/SVG/1.1/DTD/svg11.dtd">
<svg t="1590633828673" class="icon" viewBox="0 0 1024 1024" version="1.1" xmlns="http://www.w3.org/2000/svg" p-id="2312" xmlns:xlink="http://www.w3.org/1999/xlink" width="200" height="200">
<defs>
<style type="text/css"></style>
</defs>
<path fill="#F5C109" d="M230.4 215.7c0 22.2-9.8 39.2-29.6 50.9v586.1c0 4-1.5 7.5-4.4 10.4-2.9 2.9-6.4 4.4-10.4 4.4h-29.6c-4 0-7.5-1.5-10.4-4.4-2.9-2.9-4.4-6.4-4.4-10.4V266.6c-19.8-11.7-29.6-28.7-29.6-50.9 0-16.4 5.7-30.3 17.3-41.9 11.6-11.6 25.5-17.3 41.9-17.3s30.3 5.7 41.9 17.3c11.6 11.6 17.3 25.5 17.3 41.9zM912 245.4v353.3c0 7.7-1.9 13.6-5.7 17.8-3.9 4.2-9.9 8.4-18.3 12.8-66.5 35.8-123.3 53.7-170.9 53.7-18.8 0-37.9-3.4-57.2-10.2-19.3-6.8-36-14.2-50.2-22.2-14.2-8-32-15.4-53.5-22.2-21.4-6.8-43.4-10.2-66-10.2-59.3 0-130.9 22.5-214.8 67.6-5.3 2.8-10.3 4.2-15.3 4.2-8 0-15-2.9-20.8-8.8-5.8-5.8-8.8-12.9-8.8-20.8V316.7c0-9.8 4.8-18.4 14.3-25.5 6.5-4.3 18.7-10.9 36.6-19.9 72.8-37 137.8-55.6 195-55.6 33 0 63.9 4.5 92.6 13.4 28.7 9 62.5 22.5 101.4 40.7 11.7 5.8 25.3 8.8 40.7 8.8 16.7 0 34.8-3.2 54.4-9.7 19.6-6.5 36.6-13.7 50.9-21.7 14.3-8 27.9-15.3 40.7-21.7 12.8-6.5 21.2-9.7 25.2-9.7 8 0 15 2.9 20.8 8.8 6 5.8 8.9 12.7 8.9 20.8z" p-id="2313">
</path></svg>