<?xml version="1.0" encoding="utf-8"?>
<!-- Generator: Adobe Illustrator 22.0.0, SVG Export Plug-In . SVG Version: 6.00 Build 0)  -->
<svg version="1.1" id="图层_1" xmlns="http://www.w3.org/2000/svg" xmlns:xlink="http://www.w3.org/1999/xlink" x="0px" y="0px"
	 width="100px" height="100px" viewBox="0 0 100 100" style="enable-background:new 0 0 100 100;" xml:space="preserve">
<style type="text/css">
	.st0{fill:#F1912A;}
</style>
<g>
	<path class="st0" d="M0,39.1h9.4v25H0V39.1z M90.6,39.1h9.4v25h-9.4V39.1z M25,14.1h50v9.4H25V14.1z M25,73.4h50v9.4H25V73.4z
		 M15.6,14.1H25v68.8h-9.4V14.1z M75,14.1h9.4v68.8H75V14.1z M25,89.1h50v9.4H25V89.1z M43.8,1.6h9.4v9.4h-9.4V1.6z M34.4,45.3h9.4
		v9.4h-9.4V45.3z M56.3,45.3h9.4v9.4h-9.4V45.3z"/>
</g>
</svg>
