<?xml version="1.0" standalone="no"?><!DOCTYPE svg PUBLIC "-//W3C//DTD SVG 1.1//EN" "http://www.w3.org/Graphics/SVG/1.1/DTD/svg11.dtd"><svg t="1601264989571" class="icon" viewBox="0 0 1024 1024" version="1.1" xmlns="http://www.w3.org/2000/svg" p-id="3255" xmlns:xlink="http://www.w3.org/1999/xlink" width="200" height="200"><defs><style type="text/css"></style></defs><path d="M512 959.50101c-246.743684 0-447.50101-200.757327-447.50101-447.50101 0-246.76108 200.757327-447.50101 447.50101-447.50101s447.50101 200.73993 447.50101 447.50101C959.50101 758.743684 758.743684 959.50101 512 959.50101zM512 133.344984c-208.791303 0-378.655016 169.863712-378.655016 378.655016s169.863712 378.655016 378.655016 378.655016 378.655016-169.863712 378.655016-378.655016S720.791303 133.344984 512 133.344984zM752.962004 477.577003 546.422997 477.577003 546.422997 271.037996c0-19.010983-15.412015-34.422997-34.422997-34.422997l0 0c-19.010983 0-34.422997 15.412015-34.422997 34.422997l0 206.539007L271.037996 477.577003c-19.010983 0-34.422997 15.412015-34.422997 34.422997l0 0c0 19.010983 15.412015 34.422997 34.422997 34.422997l206.539007 0L477.577003 752.962004c0 19.010983 15.412015 34.422997 34.422997 34.422997l0 0c19.010983 0 34.422997-15.412015 34.422997-34.422997L546.422997 546.422997l206.539007 0c19.010983 0 34.422997-15.412015 34.422997-34.422997l0 0C787.385001 492.987994 771.972986 477.577003 752.962004 477.577003z" p-id="3256"></path></svg>