<?xml version="1.0" standalone="no"?><!DOCTYPE svg PUBLIC "-//W3C//DTD SVG 1.1//EN" "http://www.w3.org/Graphics/SVG/1.1/DTD/svg11.dtd"><svg t="1585795046573" class="icon" viewBox="0 0 1024 1024" version="1.1" xmlns="http://www.w3.org/2000/svg" p-id="2102" xmlns:xlink="http://www.w3.org/1999/xlink" width="200" height="200"><defs><style type="text/css"></style></defs><path d="M520.5 671.5v-40.9h32.2v40.9c0 10.7 8.7 19.5 19.3 19.5 10.6 0 19.3-8.8 19.3-19.5v-42.7c47.9-6.5 72.7-34.4 72.7-81.8-3.7-39-26.7-62.2-69.1-70.6v-1.9c36.8-8.4 56.2-31.6 57.1-68.7-2.8-35.3-23-57.6-59.9-66v-43.7c0-10.7-8.7-19.5-19.3-19.5-10.6 0-19.3 8.8-19.3 19.5V336h-32.2v-39.9c0-10.7-8.7-19.5-19.3-19.5-10.6 0-19.3 8.8-19.3 19.5V336h-78.3c-12.2 0-22.1 10-22.1 22.3s9.9 22.3 22.1 22.3h34.1V586h-34.1c-12.2 0-22.1 10-22.1 22.3s9.9 22.3 22.1 22.3h77.3v40.9c0 10.7 8.7 19.5 19.3 19.5 10.8 0 19.5-8.8 19.5-19.5z m-39.6-301H550c36.8 0 56.2 13.9 57.1 42.7-0.9 30.7-20.3 46.5-57.1 47.4h-69.1v-90.1z m0 226.7V496.8h74.6c39.6 0.9 60.8 16.7 62.6 47.4 0 34.4-19.3 52-57.1 53h-80.1z m42.4-521.9C282.5 75.3 86.5 271.2 86.5 512c0 15.6 12.6 28.2 28.2 28.2s28.2-12.6 28.2-28.2c0-209.7 170.6-380.4 380.4-380.4S903.6 302.3 903.6 512 733 892.4 523.3 892.4c-15.6 0-28.2 12.6-28.2 28.2s12.6 28.2 28.2 28.2C764.1 948.7 960 752.8 960 512S764.1 75.3 523.3 75.3zM390.4 803.1c-0.1-0.7-0.4-1.3-0.6-2-0.2-0.7-0.4-1.5-0.7-2.2-0.3-0.8-0.8-1.5-1.2-2.3-0.3-0.5-0.5-1.1-0.9-1.6-0.8-1.3-1.8-2.4-2.9-3.5l-75.9-75.9c-8.8-8.8-23.1-8.8-31.9 0-8.8 8.8-8.8 23.1 0 31.9l37.5 37.5H86.5c-12.4-0.1-22.5 10-22.5 22.5S74.1 830 86.5 830h281.8c1.5 0 3-0.2 4.4-0.4 0.7-0.1 1.3-0.4 2-0.6 0.7-0.2 1.5-0.4 2.2-0.7 0.7-0.3 1.4-0.7 2.1-1.1 0.6-0.3 1.2-0.6 1.8-1 1-0.7 1.9-1.4 2.7-2.2 0.2-0.2 0.5-0.4 0.7-0.6 0.2-0.2 0.3-0.4 0.5-0.6 0.8-0.9 1.6-1.8 2.3-2.8 0.4-0.6 0.7-1.2 1-1.9 0.4-0.7 0.8-1.3 1.1-2 0.3-0.8 0.5-1.6 0.7-2.4 0.2-0.6 0.4-1.2 0.5-1.8 0.3-1.5 0.4-2.9 0.4-4.4 0.1-1.5 0-3-0.3-4.4z" p-id="2103"></path></svg>