<?xml version="1.0" standalone="no"?><!DOCTYPE svg PUBLIC "-//W3C//DTD SVG 1.1//EN" "http://www.w3.org/Graphics/SVG/1.1/DTD/svg11.dtd"><svg t="1562730706391" class="icon" viewBox="0 0 1024 1024" version="1.1" xmlns="http://www.w3.org/2000/svg" p-id="2531" xmlns:xlink="http://www.w3.org/1999/xlink" width="400" height="400"><defs><style type="text/css"></style></defs><path d="M512.128 677.376c-19.296 0-38.496 7.936-52.16 21.568s-21.6 32.8-21.6 52.064 7.936 38.464 21.6 52.064c13.632 13.632 32.832 21.568 52.16 21.568s38.496-7.936 52.16-21.568c13.632-13.632 21.6-32.8 21.6-52.064s-7.936-38.464-21.6-52.064c-13.632-13.632-32.832-21.568-52.16-21.568z" p-id="2532" fill="#23CED0"></path><path d="M511.36 213.312c-49.728 0-89.92 15.232-120.544 45.632-30.624 30.464-48.48 72.416-49.472 111.072s80.64 30.624 83.648 11.552c3.2-20.224 16.576-52.896 32.16-67.68s35.008-22.208 58.176-22.208c24.064 0 43.2 7.104 57.376 21.312s21.312 31.296 21.312 51.2c0 14.368-4.032 27.52-12 39.456-5.184 7.552-21.12 23.488-47.68 47.84s-44.352 46.272-53.184 65.728-13.312 44.288-13.312 74.496c0 2.88 0.096 11.072 0.32 24.448l82.784 0c-0.448-28.224 1.696-47.84 6.336-58.784 4.64-10.976 16.576-25.472 35.776-43.456 37.12-34.784 61.376-62.336 72.736-82.496 11.328-20.192 16.96-41.664 16.96-64.288 0-40.896-15.424-76.768-46.4-107.584s-72.576-46.24-124.928-46.24z" p-id="2533" fill="#23CED0"></path><path d="M512 0c-282.208 0-512 229.664-512 512.032s229.728 511.968 512 511.968c282.304 0 512-229.6 512-511.968s-229.632-512.032-512-512.032zM511.68 958.912c-246.848 0-447.584-200.768-447.584-447.456 0-246.848 200.768-447.552 447.584-447.552s447.648 200.672 447.648 447.552c0.032 246.72-200.8 447.456-447.648 447.456z" p-id="2534" fill="#23CED0"></path></svg>